<svg width="64" height="64" viewBox="0 0 64 64" fill="none" xmlns="http://www.w3.org/2000/svg">
<path d="M5.53241 17.0814H7.34637C7.86444 17.0814 8.28387 16.662 8.28387 16.1439C8.28387 15.6258 7.86444 15.2064 7.34637 15.2064H5.53241C5.01434 15.2064 4.59442 15.6258 4.59442 16.1439C4.59442 16.662 5.01434 17.0814 5.53241 17.0814Z" fill="#4690FF"/>
<path d="M5.53241 21.7692H7.34637C7.86444 21.7692 8.28387 21.3498 8.28387 20.8317C8.28387 20.3136 7.86444 19.8942 7.34637 19.8942H5.53241C5.01434 19.8942 4.59442 20.3136 4.59442 20.8317C4.59442 21.3498 5.01434 21.7692 5.53241 21.7692Z" fill="#4690FF"/>
<path d="M5.53241 26.4575H7.34637C7.86444 26.4575 8.28387 26.0376 8.28387 25.5195C8.28387 25.0014 7.86444 24.582 7.34637 24.582H5.53241C5.01434 24.582 4.59442 25.0014 4.59442 25.5195C4.59442 26.0376 5.01434 26.4575 5.53241 26.4575Z" fill="#4690FF"/>
<path d="M5.53241 31.1466H7.34637C7.86444 31.1466 8.28387 30.7267 8.28387 30.2086C8.28387 29.6911 7.86444 29.2711 7.34637 29.2711H5.53241C5.01434 29.2711 4.59442 29.6911 4.59442 30.2086C4.59442 30.7267 5.01434 31.1466 5.53241 31.1466Z" fill="#4690FF"/>
<path d="M5.53241 35.8344H7.34637C7.86444 35.8344 8.28387 35.4145 8.28387 34.8969C8.28387 34.3789 7.86444 33.959 7.34637 33.959H5.53241C5.01434 33.959 4.59442 34.3789 4.59442 34.8969C4.59442 35.4145 5.01434 35.8344 5.53241 35.8344Z" fill="#4690FF"/>
<path d="M5.53241 40.5219H7.34637C7.86444 40.5219 8.28387 40.1024 8.28387 39.5844C8.28387 39.0663 7.86444 38.6469 7.34637 38.6469H5.53241C5.01434 38.6469 4.59442 39.0663 4.59442 39.5844C4.59442 40.1024 5.01434 40.5219 5.53241 40.5219Z" fill="#4690FF"/>
<path d="M5.53241 45.2101H7.34637C7.86444 45.2101 8.28387 44.7902 8.28387 44.2722C8.28387 43.7546 7.86444 43.3347 7.34637 43.3347H5.53241C5.01434 43.3347 4.59442 43.7546 4.59442 44.2722C4.59442 44.7902 5.01434 45.2101 5.53241 45.2101Z" fill="#4690FF"/>
<path d="M5.53241 49.8979H7.34637C7.86444 49.8979 8.28387 49.478 8.28387 48.9604C8.28387 48.4424 7.86444 48.0225 7.34637 48.0225H5.53241C5.01434 48.0225 4.59442 48.4424 4.59442 48.9604C4.59442 49.478 5.01434 49.8979 5.53241 49.8979Z" fill="#4690FF"/>
<path d="M5.53241 54.5871H7.34637C7.86444 54.5871 8.28387 54.1677 8.28387 53.6496C8.28387 53.1315 7.86444 52.7116 7.34637 52.7116H5.53241C5.01434 52.7116 4.59442 53.1315 4.59442 53.6496C4.59442 54.1677 5.01434 54.5871 5.53241 54.5871Z" fill="#4690FF"/>
<path d="M5.53241 59.2747H7.34637C7.86444 59.2747 8.28387 58.8553 8.28387 58.3372C8.28387 57.8192 7.86444 57.3997 7.34637 57.3997H5.53241C5.01434 57.3997 4.59442 57.8192 4.59442 58.3372C4.59442 58.8553 5.01434 59.2747 5.53241 59.2747Z" fill="#4690FF"/>
<path d="M10.7241 17.0814H19.5439C20.062 17.0814 20.4814 16.662 20.4814 16.1439C20.4814 15.6258 20.062 15.2064 19.5439 15.2064H10.7241C10.206 15.2064 9.78607 15.6258 9.78607 16.1439C9.78607 16.662 10.206 17.0814 10.7241 17.0814Z" fill="#4690FF"/>
<path d="M10.7241 35.8344H19.5439C20.062 35.8344 20.4814 35.4145 20.4814 34.8969C20.4814 34.3789 20.062 33.959 19.5439 33.959H10.7241C10.206 33.959 9.78607 34.3789 9.78607 34.8969C9.78607 35.4145 10.206 35.8344 10.7241 35.8344Z" fill="#4690FF"/>
<path d="M10.7241 45.2101H19.5439C20.062 45.2101 20.4814 44.7902 20.4814 44.2722C20.4814 43.7546 20.062 43.3347 19.5439 43.3347H10.7241C10.206 43.3347 9.78607 43.7546 9.78607 44.2722C9.78607 44.7902 10.206 45.2101 10.7241 45.2101Z" fill="#4690FF"/>
<path d="M10.7241 21.7692H15.666C16.184 21.7692 16.6035 21.3498 16.6035 20.8317C16.6035 20.3136 16.184 19.8942 15.666 19.8942H10.7241C10.206 19.8942 9.78607 20.3136 9.78607 20.8317C9.78607 21.3498 10.206 21.7692 10.7241 21.7692Z" fill="#4690FF"/>
<path d="M10.7241 26.4575H15.666C16.184 26.4575 16.6035 26.0376 16.6035 25.5195C16.6035 25.0014 16.184 24.582 15.666 24.582H10.7241C10.206 24.582 9.78607 25.0014 9.78607 25.5195C9.78607 26.0376 10.206 26.4575 10.7241 26.4575Z" fill="#4690FF"/>
<path d="M10.7241 59.2747H15.666C16.184 59.2747 16.6035 58.8553 16.6035 58.3372C16.6035 57.8192 16.184 57.3997 15.666 57.3997H10.7241C10.206 57.3997 9.78607 57.8192 9.78607 58.3372C9.78607 58.8553 10.206 59.2747 10.7241 59.2747Z" fill="#4690FF"/>
<path d="M10.7241 40.5219H13.1953C13.7128 40.5219 14.1328 40.1024 14.1328 39.5844C14.1328 39.0663 13.7128 38.6469 13.1953 38.6469H10.7241C10.206 38.6469 9.78607 39.0663 9.78607 39.5844C9.78607 40.1024 10.206 40.5219 10.7241 40.5219Z" fill="#4690FF"/>
<path d="M10.7241 31.1466H18.0053C18.5229 31.1466 18.9428 30.7267 18.9428 30.2086C18.9428 29.6911 18.5229 29.2711 18.0053 29.2711H10.7241C10.206 29.2711 9.78607 29.6911 9.78607 30.2086C9.78607 30.7267 10.206 31.1466 10.7241 31.1466Z" fill="#4690FF"/>
<path d="M10.7241 49.8979H18.0053C18.5229 49.8979 18.9428 49.478 18.9428 48.9604C18.9428 48.4424 18.5229 48.0225 18.0053 48.0225H10.7241C10.206 48.0225 9.78607 48.4424 9.78607 48.9604C9.78607 49.478 10.206 49.8979 10.7241 49.8979Z" fill="#4690FF"/>
<path d="M10.7241 54.5871H18.0053C18.5229 54.5871 18.9428 54.1677 18.9428 53.6496C18.9428 53.1315 18.5229 52.7116 18.0053 52.7116H10.7241C10.206 52.7116 9.78607 53.1315 9.78607 53.6496C9.78607 54.1677 10.206 54.5871 10.7241 54.5871Z" fill="#4690FF"/>
<path d="M6.84637 3.59958C5.3288 3.59958 4.09442 4.83395 4.09442 6.35153C4.09442 7.86862 5.3288 9.103 6.84637 9.103C8.36346 9.103 9.59784 7.86862 9.59784 6.35153C9.59784 4.83395 8.36346 3.59958 6.84637 3.59958ZM6.84637 7.22751C6.36298 7.22751 5.96991 6.83444 5.96991 6.35153C5.96991 5.86813 6.36298 5.47507 6.84637 5.47507C7.32928 5.47507 7.72284 5.86813 7.72284 6.35153C7.72284 6.83444 7.32928 7.22751 6.84637 7.22751Z" fill="#4690FF"/>
<path d="M13.8521 3.59958C12.3345 3.59958 11.1006 4.83395 11.1006 6.35153C11.1006 7.86862 12.335 9.103 13.8521 9.103C15.3692 9.103 16.6036 7.86862 16.6036 6.35153C16.6036 4.83395 15.3692 3.59958 13.8521 3.59958ZM13.8521 7.22751C13.3687 7.22751 12.9756 6.83444 12.9756 6.35153C12.9756 5.86813 13.3687 5.47507 13.8521 5.47507C14.335 5.47507 14.7286 5.86813 14.7286 6.35153C14.7286 6.83444 14.335 7.22751 13.8521 7.22751Z" fill="#4690FF"/>
<path d="M20.8581 3.59958C19.3405 3.59958 18.1061 4.83395 18.1061 6.35153C18.1061 7.86862 19.3405 9.103 20.8581 9.103C22.3752 9.103 23.6096 7.86862 23.6096 6.35153C23.6096 4.83395 22.3752 3.59958 20.8581 3.59958ZM20.8581 7.22751C20.3747 7.22751 19.9816 6.83444 19.9816 6.35153C19.9816 5.86813 20.3747 5.47507 20.8581 5.47507C21.341 5.47507 21.7346 5.86813 21.7346 6.35153C21.7346 6.83444 21.3415 7.22751 20.8581 7.22751Z" fill="#4690FF"/>
<path d="M32.3325 33.1795H55.4345C56.77 33.1795 57.8559 32.0931 57.8559 30.7581V17.6278C57.8559 16.2923 56.77 15.2064 55.4345 15.2064H32.3325C30.997 15.2064 29.9111 16.2923 29.9111 17.6278V30.7581C29.9111 32.0931 30.997 33.1795 32.3325 33.1795ZM31.7861 17.6278C31.7861 17.3265 32.0312 17.0814 32.3325 17.0814H55.4345C55.7358 17.0814 55.9804 17.3265 55.9804 17.6278V30.7581C55.9804 31.0589 55.7358 31.304 55.4345 31.304H32.3325C32.0312 31.304 31.7861 31.0589 31.7861 30.7581V17.6278Z" fill="#4690FF"/>
<path d="M32.3325 56.0981H55.4345C56.77 56.0981 57.8559 55.0117 57.8559 53.6768V40.5464C57.8559 39.2109 56.77 38.125 55.4345 38.125H32.3325C30.997 38.125 29.9111 39.2109 29.9111 40.5464V53.6768C29.9111 55.0117 30.997 56.0981 32.3325 56.0981ZM31.7861 40.5464C31.7861 40.2451 32.0312 40 32.3325 40H55.4345C55.7358 40 55.9804 40.2451 55.9804 40.5464V53.6768C55.9804 53.9775 55.7358 54.2227 55.4345 54.2227H32.3325C32.0312 54.2227 31.7861 53.9775 31.7861 53.6768V40.5464Z" fill="#4690FF"/>
<path d="M30.8486 36.0725H45.6689C46.187 36.0725 46.6069 35.6526 46.6069 35.1345C46.6069 34.6169 46.187 34.197 45.6689 34.197H30.8486C30.3305 34.197 29.9111 34.6169 29.9111 35.1345C29.9111 35.6526 30.3305 36.0725 30.8486 36.0725Z" fill="#4690FF"/>
<path d="M30.8486 59.0247H45.6689C46.187 59.0247 46.6069 58.6053 46.6069 58.0872C46.6069 57.5692 46.187 57.1497 45.6689 57.1497H30.8486C30.3305 57.1497 29.9111 57.5692 29.9111 58.0872C29.9111 58.6053 30.3305 59.0247 30.8486 59.0247Z" fill="#4690FF"/>
<path d="M59.8735 0H4.12646C1.85107 0 0 1.85107 0 4.12646V26.9297C0 27.4478 0.419922 28.25 0.9375 28.25C1.45557 28.25 1.5625 33.7324 1.87549 26.9297V12.7549H23.4434V62.125H4.12646C2.88525 62.125 1.87549 61.1147 1.87549 59.8735V26.9297C1.87549 26.4116 1.45557 25.9922 0.9375 25.9922C0.419922 25.9922 0 26.4116 0 26.9297V59.873C0 62.1484 1.85107 64 4.12646 64H59.8735C62.1489 64 64 62.1484 64 59.873V4.12646C64 1.85107 62.1489 0 59.8735 0ZM62.1245 59.873C62.1245 61.1147 61.1147 62.1245 59.8735 62.1245H25.3188V12.7549H62.125V59.873H62.1245ZM62.1245 10.8794H1.87549V4.12646C1.87549 2.88525 2.88525 1.87549 4.12646 1.87549H59.8735C61.1147 1.87549 62.1245 2.88525 62.1245 4.12646V10.8794Z" fill="#4690FF"/>
</svg>
