<svg width="64" height="64" viewBox="0 0 64 64" fill="none" xmlns="http://www.w3.org/2000/svg">
<path d="M51.5404 3.91516C44.6638 3.91516 39.0809 9.29388 39.0809 15.8301V25.4981H19.4723C18.9277 20.6641 14.7745 16.8513 9.80425 16.8513C4.35745 16.8513 0 21.2088 0 26.5875C0 31.6258 3.81277 35.7109 8.64681 36.2556V52.7322C8.64681 56.7492 11.9149 60.0854 16 60.0854H41.5319C45.5489 60.0854 48.8851 56.8173 48.8851 52.7322V26.5875C48.8851 25.9747 48.4085 25.4981 47.7957 25.4981H41.2596V15.8981C41.2596 10.5194 45.8894 6.16197 51.5404 6.16197C57.1915 6.16197 61.8213 10.5194 61.8213 15.8981V26.5875C61.8213 27.2003 62.2979 27.6769 62.9106 27.6769C63.5234 27.6769 64 27.2003 64 26.5875V15.8981C64 9.29388 58.417 3.91516 51.5404 3.91516ZM9.73617 34.1449C5.58298 34.213 2.17872 30.8088 2.17872 26.5875C2.17872 22.4343 5.58298 19.0301 9.73617 19.0301C12.1191 19.0301 14.2298 20.1194 15.5915 21.8215C15.5234 21.8215 15.5234 21.8896 15.4553 21.8896L8.17021 28.0854L5.78723 24.5449C5.44681 24.0684 4.76596 23.9322 4.28936 24.2726C3.81277 24.613 3.6766 25.2939 4.01702 25.7705L7.14894 30.3322C7.35319 30.6045 7.62553 30.7407 7.89787 30.8088C7.96596 30.8088 7.96596 30.8088 8.03404 30.8088C8.30638 30.8088 8.51064 30.7407 8.71489 30.5364L16.7489 23.7279C17.0894 24.613 17.2936 25.5662 17.2936 26.5875C17.2936 30.7407 13.8894 34.1449 9.73617 34.1449ZM46.7064 27.7449V52.8003C46.7064 55.6598 44.3915 57.9067 41.6 57.9067H16C13.1404 57.9067 10.8936 55.5918 10.8936 52.8003V36.3237C15.3872 35.8471 18.9957 32.2386 19.4723 27.7449H46.7064Z" fill="#4690FF"/>
<path d="M27.7112 45.0386V50.8939C27.7112 51.5066 28.1878 51.9832 28.8006 51.9832C29.4133 51.9832 29.8899 51.5066 29.8899 50.8939V45.0386C32.7495 44.4939 34.8601 42.0428 34.8601 39.0471C34.8601 35.7109 32.1367 32.9875 28.8006 32.9875C25.4644 32.9875 22.741 35.7109 22.741 39.0471C22.741 42.0428 24.9197 44.4939 27.7112 45.0386ZM28.8006 35.2343C30.9793 35.2343 32.6814 37.0045 32.6814 39.1152C32.6814 41.2258 30.9112 42.996 28.8006 42.996C26.6218 42.996 24.9197 41.2258 24.9197 39.1152C24.9197 37.0045 26.6899 35.2343 28.8006 35.2343Z" fill="#4690FF"/>
</svg>
