<svg width="64" height="64" viewBox="0 0 64 64" fill="none" xmlns="http://www.w3.org/2000/svg">
<path d="M32.8358 34.9289C32.7174 34.9033 32.5959 34.8986 32.476 34.9166C31.2739 34.7766 30.3672 33.7597 30.3651 32.55C30.3651 31.9702 29.8951 31.5002 29.3153 31.5002C28.7356 31.5002 28.2656 31.9702 28.2656 32.55C28.2686 34.5701 29.6198 36.3395 31.5677 36.8742V37.924C31.5677 38.5037 32.0377 38.9737 32.6174 38.9737C33.1972 38.9737 33.6672 38.5037 33.6672 37.924V36.9377C35.9154 36.4672 37.4435 34.3732 37.2072 32.0886C36.9704 29.804 35.0456 28.0679 32.7487 28.0673C31.4323 28.0673 30.3651 27.0001 30.3651 25.6838C30.3651 24.3675 31.4323 23.3003 32.7487 23.3003C34.065 23.3003 35.1322 24.3675 35.1322 25.6838C35.1322 26.2635 35.6023 26.7336 36.182 26.7336C36.7617 26.7336 37.2318 26.2635 37.2318 25.6838C37.2287 23.5627 35.7427 21.7333 33.6672 21.2955V20.34C33.6672 19.7603 33.1972 19.2903 32.6174 19.2903C32.0377 19.2903 31.5677 19.7603 31.5677 20.34V21.3596C29.4015 21.9511 28.0072 24.0543 28.3055 26.2799C28.6039 28.5056 30.503 30.1669 32.7487 30.1664C34.0476 30.1664 35.1071 31.2065 35.1307 32.5048C35.1548 33.8032 34.1337 34.8817 32.8358 34.9289Z" fill="#4690FF"/>
<path d="M17.5249 29.1977C17.5249 37.6052 24.3403 44.4206 32.7478 44.4206C41.1553 44.4206 47.9707 37.6052 47.9707 29.1977C47.9707 20.7902 41.1553 13.9749 32.7478 13.9749C24.3444 13.9841 17.5346 20.7943 17.5249 29.1977ZM32.7478 16.0744C39.9958 16.0744 45.8711 21.9497 45.8711 29.1977C45.8711 36.4458 39.9958 42.3211 32.7478 42.3211C25.4998 42.3211 19.6245 36.4458 19.6245 29.1977C19.6327 21.9533 25.5034 16.0826 32.7478 16.0744Z" fill="#4690FF"/>
<path d="M53.1465 47.0081L44.923 50.8936C43.7876 48.7817 41.6096 47.4377 39.2128 47.37L31.6213 47.1614C30.4193 47.1271 29.2398 46.8226 28.1711 46.2705L27.3986 45.8702C23.4435 43.8086 18.7292 43.8137 14.7781 45.8835L14.8263 44.1335C14.8422 43.5538 14.3855 43.0709 13.8057 43.055L5.48127 42.8259C4.90153 42.81 4.41918 43.2667 4.40329 43.8465L3.90044 62.1142C3.88455 62.6939 4.34127 63.1768 4.92101 63.1927L13.2455 63.4218H13.2742C13.8432 63.4218 14.3086 62.9692 14.324 62.4007L14.3481 61.5267L16.5107 60.3688C17.3595 59.9121 18.3519 59.8034 19.2792 60.0659L32.1934 63.6904C32.2159 63.6971 32.2385 63.7022 32.2615 63.7073C33.195 63.9026 34.1463 64.0005 35.0998 64C37.1194 64.001 39.1154 63.5658 40.951 62.7231C40.9961 62.7026 41.0396 62.6785 41.0812 62.6514L59.8056 50.5399C60.272 50.238 60.4227 49.6254 60.1495 49.1415C58.7594 46.675 55.6761 45.7354 53.1465 47.0081ZM6.0282 61.1228L6.47313 44.9537L12.6985 45.1249L12.2536 61.2945L6.0282 61.1228ZM40.0052 60.8481C37.7247 61.8774 35.1777 62.1613 32.7265 61.6605L19.8471 58.0452C18.3975 57.6357 16.8459 57.8053 15.5198 58.5184L14.4147 59.1104L14.7105 48.3598C18.2125 46.0306 22.7038 45.7913 26.4334 47.7345L27.2059 48.1348C28.556 48.8319 30.0451 49.2164 31.5639 49.2605L39.1559 49.4691C41.2883 49.5306 43.0992 51.0489 43.5319 53.1382L32.2236 52.826C31.6439 52.8102 31.1615 53.2674 31.1451 53.8466C31.1292 54.4263 31.5865 54.9092 32.1657 54.9251L44.6452 55.2685H44.6744C45.2429 55.268 45.7078 54.8154 45.7232 54.2475C45.736 53.7912 45.7022 53.3345 45.6217 52.8855L54.0564 48.9001C54.0646 48.8965 54.0728 48.8924 54.081 48.8883C55.2774 48.283 56.7239 48.4854 57.7081 49.3963L40.0052 60.8481Z" fill="#4690FF"/>
<path d="M33.7988 11.0227V1.04978C33.7988 0.470045 33.3288 0 32.749 0C32.1693 0 31.6992 0.470045 31.6992 1.04978V11.0227C31.6992 11.6025 32.1693 12.0725 32.749 12.0725C33.3288 12.0725 33.7988 11.6025 33.7988 11.0227Z" fill="#4690FF"/>
<path d="M41.6714 11.0215V6.29742C41.6714 5.71768 41.2013 5.24763 40.6216 5.24763C40.0419 5.24763 39.5718 5.71768 39.5718 6.29742V11.0215C39.5718 11.6012 40.0419 12.0712 40.6216 12.0712C41.2013 12.0712 41.6714 11.6012 41.6714 11.0215Z" fill="#4690FF"/>
<path d="M25.9247 11.0215V6.29742C25.9247 5.71768 25.4547 5.24763 24.875 5.24763C24.2952 5.24763 23.8252 5.71768 23.8252 6.29742V11.0215C23.8252 11.6012 24.2952 12.0712 24.875 12.0712C25.4547 12.0712 25.9247 11.6012 25.9247 11.0215Z" fill="#4690FF"/>
</svg>
