<svg width="64" height="64" viewBox="0 0 64 64" fill="none" xmlns="http://www.w3.org/2000/svg">
<path d="M44.0932 36.4349H11.0978L39.6703 18.2682C39.7535 18.2153 39.8254 18.1466 39.882 18.066C39.9386 17.9853 39.9787 17.8943 40.0001 17.7982C40.0215 17.702 40.0238 17.6026 40.0067 17.5056C39.9897 17.4085 39.9537 17.3158 39.9008 17.2327L37.07 12.7804C36.4244 11.7675 35.4033 11.052 34.2308 10.7909C33.0584 10.5299 31.8302 10.7446 30.8158 11.3879L26.7952 13.9443L27.1137 12.4204C27.2393 11.8695 27.2547 11.2992 27.1592 10.7422C27.0636 10.1853 26.859 9.65272 26.557 9.17512C26.255 8.69752 25.8616 8.28429 25.3994 7.95919C24.9372 7.63409 24.4154 7.40351 23.8638 7.28071C23.3122 7.15791 22.7418 7.1453 22.1854 7.24362C21.6289 7.34193 21.0974 7.54923 20.6213 7.8536C20.1452 8.15797 19.734 8.55341 19.4112 9.0172C19.0884 9.481 18.8604 10.004 18.7403 10.5562L16.6516 19.9379L9.65771 18.3812C8.61471 18.1487 7.5225 18.3139 6.59492 18.8445C5.66735 19.3751 4.97122 20.2327 4.64282 21.2496C4.31442 22.2665 4.37741 23.3693 4.81945 24.3422C5.2615 25.3151 6.05076 26.0879 7.0327 26.5094L2.72545 29.2482C1.71254 29.8938 0.997065 30.9148 0.73601 32.0872C0.474955 33.2597 0.689636 34.4878 1.33295 35.5022L4.16383 39.9546C4.21666 40.0377 4.28536 40.1096 4.36599 40.1662C4.44662 40.2228 4.5376 40.2629 4.63375 40.2843C4.72989 40.3057 4.82932 40.308 4.92634 40.291C5.02336 40.274 5.11608 40.238 5.1992 40.1852L7.8342 38.5102V57.4962C7.83556 58.6974 8.31335 59.849 9.16274 60.6983C10.0121 61.5477 11.1638 62.0254 12.365 62.0267H40.313C41.5141 62.0253 42.6657 61.5476 43.515 60.6982C44.3643 59.8489 44.8421 58.6973 44.8435 57.4962V37.1849C44.8435 37.0864 44.8241 36.9889 44.7863 36.8979C44.7486 36.8068 44.6934 36.7242 44.6237 36.6545C44.554 36.5849 44.4713 36.5296 44.3803 36.4919C44.2893 36.4543 44.1917 36.4349 44.0932 36.4349ZM31.6207 12.6539C32.1045 12.3446 32.6666 12.18 33.2408 12.1797C33.4643 12.1798 33.6872 12.2044 33.9053 12.2531C34.2942 12.3386 34.6622 12.5003 34.9881 12.729C35.314 12.9577 35.5914 13.2487 35.8041 13.5853L38.2326 17.4047L26.4201 24.9154L22.3656 18.5387L31.6207 12.6539ZM20.2045 10.8823C20.3665 10.1605 20.8086 9.53262 21.4336 9.13681C22.0585 8.74099 22.8152 8.60965 23.537 8.77168C24.2588 8.93371 24.8866 9.37584 25.2825 10.0008C25.6783 10.6258 25.8096 11.3824 25.6476 12.1042L25.0318 15.0497L18.3235 19.3308L20.2045 10.8823ZM21.0995 19.3436L25.154 25.7203L18.309 30.0723L14.2546 23.6956L21.0995 19.3436ZM6.37183 24.0646C6.07581 23.599 5.92449 23.0562 5.937 22.5046C5.94951 21.9531 6.12529 21.4177 6.44212 20.966C6.75894 20.5144 7.20258 20.1669 7.71692 19.9674C8.23126 19.7679 8.79321 19.7254 9.33171 19.8453L15.3923 21.1946L8.66458 25.4119L8.11933 25.2904C7.76147 25.2118 7.42276 25.0629 7.1228 24.8525C6.82284 24.6421 6.5676 24.3743 6.37183 24.0646ZM5.02745 38.5169L2.59908 34.6974C2.16875 34.0189 2.02513 33.1974 2.19971 32.4132C2.37429 31.6289 2.85282 30.9459 3.53033 30.514L12.9887 24.5004L17.0431 30.8772L5.02745 38.5169ZM19.5716 60.5267H12.365C11.5615 60.5257 10.7912 60.2062 10.2231 59.638C9.65496 59.0699 9.33538 58.2996 9.33445 57.4962V37.9349H19.572L19.5716 60.5267ZM29.1046 60.5267H21.0716V37.9349H29.1046V60.5267ZM43.3432 57.4962C43.3423 58.2996 43.0227 59.0698 42.4547 59.638C41.8866 60.2061 41.1164 60.5257 40.313 60.5267H30.6046V37.9349H43.3432V57.4962Z" fill="#4690FF"/>
<path d="M52.4785 29.6215L52.8373 27.5296C52.8609 27.3917 52.8455 27.25 52.7927 27.1204C52.74 26.9908 52.6521 26.8786 52.539 26.7963C52.4258 26.7141 52.2919 26.6651 52.1524 26.655C52.0128 26.6449 51.8733 26.6739 51.7494 26.739L49.8709 27.7265L47.9923 26.739C47.8684 26.6738 47.7288 26.6447 47.5892 26.6548C47.4496 26.6648 47.3156 26.7138 47.2024 26.796C47.0892 26.8783 47.0012 26.9906 46.9485 27.1202C46.8958 27.2499 46.8803 27.3917 46.904 27.5296L47.2628 29.6215L45.743 31.1027C45.6428 31.2004 45.5719 31.3242 45.5383 31.4601C45.5047 31.5959 45.5099 31.7385 45.5531 31.8716C45.5964 32.0047 45.676 32.1231 45.783 32.2133C45.89 32.3035 46.0201 32.362 46.1586 32.3821L48.2586 32.6873L49.1979 34.5905C49.2598 34.716 49.3556 34.8217 49.4745 34.8956C49.5934 34.9695 49.7305 35.0087 49.8705 35.0087C50.0105 35.0087 50.1477 34.9695 50.2665 34.8956C50.3854 34.8217 50.4812 34.716 50.5431 34.5905L51.4823 32.6873L53.5823 32.3821C53.7208 32.362 53.8509 32.3035 53.9579 32.2133C54.0649 32.1231 54.1445 32.0047 54.1878 31.8716C54.231 31.7385 54.2362 31.5959 54.2026 31.4601C54.1691 31.3242 54.0981 31.2004 53.9979 31.1027L52.4785 29.6215ZM50.8764 31.259C50.7561 31.2764 50.6418 31.3229 50.5434 31.3944C50.445 31.4659 50.3655 31.5602 50.3116 31.6692L49.8705 32.5632L49.4293 31.6692C49.3755 31.5602 49.2959 31.4659 49.1976 31.3944C49.0992 31.323 48.985 31.2765 48.8646 31.259L47.8779 31.1156L48.5919 30.4197C48.679 30.3348 48.7441 30.2301 48.7817 30.1144C48.8193 29.9988 48.8282 29.8757 48.8076 29.7558L48.639 28.7731L49.5215 29.237C49.6291 29.2936 49.7489 29.3232 49.8705 29.3232C49.9921 29.3232 50.1119 29.2936 50.2195 29.237L51.1019 28.7731L50.9334 29.7558C50.9128 29.8757 50.9217 29.9987 50.9593 30.1144C50.9968 30.2301 51.0619 30.3348 51.149 30.4197L51.863 31.1156L50.8764 31.259Z" fill="#4690FF"/>
<path d="M61.1048 19.2883L59.0423 18.787L58.2859 16.8042C58.2361 16.6734 58.1506 16.5591 58.0393 16.4744C57.9279 16.3896 57.795 16.3377 57.6556 16.3246C57.5163 16.3114 57.376 16.3375 57.2508 16.3999C57.1255 16.4623 57.0201 16.5585 56.9467 16.6777L55.8328 18.4843L53.7132 18.5909C53.5734 18.5979 53.4384 18.6439 53.3234 18.7237C53.2085 18.8034 53.1181 18.9138 53.0625 19.0422C53.007 19.1706 52.9885 19.312 53.0091 19.4505C53.0297 19.5889 53.0886 19.7187 53.1792 19.8254L54.5531 21.443L53.9997 23.4918C53.9632 23.6269 53.9652 23.7695 54.0055 23.9035C54.0458 24.0375 54.1228 24.1576 54.2278 24.2501C54.3328 24.3427 54.4616 24.404 54.5996 24.4271C54.7376 24.4503 54.8794 24.4344 55.0088 24.3812L56.9713 23.5744L58.7497 24.734C58.8669 24.8105 59.0031 24.8526 59.143 24.8557C59.2829 24.8588 59.4209 24.8226 59.5414 24.7514C59.6618 24.6801 59.7599 24.5766 59.8246 24.4525C59.8892 24.3284 59.9179 24.1887 59.9073 24.0492L59.7467 21.9329L61.3983 20.6008C61.5072 20.5129 61.5894 20.3964 61.6355 20.2643C61.6816 20.1322 61.6899 19.9899 61.6594 19.8533C61.6288 19.7168 61.5607 19.5915 61.4627 19.4917C61.3647 19.3918 61.2408 19.3214 61.1048 19.2883ZM58.4978 21.0133C58.4032 21.0896 58.3285 21.1878 58.2803 21.2994C58.232 21.411 58.2116 21.5327 58.2208 21.6539L58.2958 22.648L57.4607 22.1032C57.3588 22.0367 57.2424 21.9961 57.1213 21.9846C57.0003 21.9732 56.8783 21.9914 56.7658 22.0377L55.8438 22.4167L56.1038 21.4542C56.1355 21.3368 56.1382 21.2134 56.1117 21.0948C56.0851 20.9761 56.0301 20.8657 55.9514 20.773L55.3061 20.0132L56.3018 19.9632C56.4233 19.9571 56.5414 19.9216 56.6461 19.8597C56.7508 19.7978 56.8388 19.7114 56.9027 19.6079L57.4258 18.7593L57.7811 19.6908C57.8244 19.8044 57.8947 19.9057 57.9859 19.9861C58.0772 20.0665 58.1866 20.1235 58.3047 20.1522L59.2736 20.3877L58.4978 21.0133Z" fill="#4690FF"/>
<path d="M50.0748 7.09581L49.5212 9.14456C49.4846 9.27966 49.4866 9.4223 49.5269 9.55634C49.5672 9.69037 49.6442 9.81045 49.7492 9.903C49.8542 9.99555 49.983 10.0569 50.1211 10.08C50.2591 10.1032 50.4008 10.0873 50.5303 10.0341L52.4928 9.22718L54.2704 10.3871C54.3876 10.4635 54.5239 10.5057 54.6638 10.5087C54.8037 10.5118 54.9417 10.4756 55.0621 10.4044C55.1826 10.3331 55.2807 10.2296 55.3453 10.1054C55.41 9.98133 55.4387 9.8416 55.4281 9.70206L55.2674 7.58581L56.9194 6.25356C57.0283 6.16572 57.1105 6.04917 57.1566 5.91709C57.2028 5.78501 57.211 5.64265 57.1805 5.50611C57.15 5.36958 57.0818 5.2443 56.9838 5.14445C56.8858 5.04459 56.7619 4.97414 56.6259 4.94106L54.5634 4.43993L53.8072 2.45693C53.7573 2.32616 53.6718 2.21195 53.5604 2.12722C53.449 2.04249 53.3161 1.99063 53.1768 1.97749C53.0375 1.96436 52.8972 1.99047 52.7719 2.05289C52.6467 2.11531 52.5414 2.21153 52.4679 2.33068L51.3542 4.13718L49.2344 4.24368C49.0947 4.25069 48.9596 4.29667 48.8446 4.37641C48.7296 4.45616 48.6392 4.56648 48.5837 4.69492C48.5281 4.82336 48.5096 4.96478 48.5302 5.1032C48.5508 5.24162 48.6097 5.37151 48.7003 5.47818L50.0748 7.09581ZM51.8237 5.61531C51.9451 5.60921 52.0633 5.57367 52.1679 5.51176C52.2726 5.44986 52.3606 5.36343 52.4244 5.25993L52.9477 4.41131L53.3029 5.34281C53.3463 5.45642 53.4166 5.55778 53.5078 5.63818C53.599 5.71858 53.7084 5.77559 53.8266 5.80431L54.7953 6.03968L54.0193 6.66543C53.9246 6.74175 53.85 6.83994 53.8017 6.95154C53.7534 7.06314 53.733 7.18481 53.7422 7.30606L53.8172 8.30031L52.9821 7.75543C52.8802 7.68901 52.7637 7.64834 52.6427 7.63693C52.5216 7.62552 52.3996 7.64371 52.2872 7.68993L51.3652 8.06893L51.6252 7.10643C51.6569 6.98903 51.6596 6.86568 51.6331 6.747C51.6065 6.62832 51.5515 6.51787 51.4728 6.42518L50.8274 5.66518L51.8237 5.61531Z" fill="#4690FF"/>
<path d="M36.4682 29.7284C34.775 30.794 33.9477 32.0853 33.9133 32.1398C33.8068 32.3078 33.7714 32.5112 33.8148 32.7053C33.8583 32.8994 33.977 33.0683 34.145 33.1748C34.313 33.2814 34.5164 33.3168 34.7105 33.2734C34.9046 33.2299 35.0735 33.1111 35.1801 32.9432C35.2926 32.7682 38.0062 28.6663 43.9126 30.1273C44.1049 30.173 44.3075 30.1409 44.4764 30.038C44.6452 29.9351 44.7665 29.7697 44.814 29.5778C44.8615 29.3859 44.8313 29.183 44.73 29.0132C44.6287 28.8434 44.4644 28.7205 44.273 28.6713C40.639 27.7721 38.0228 28.7498 36.4682 29.7284Z" fill="#4690FF"/>
<path d="M50.7001 21.7871C50.8838 21.8633 51.0903 21.8635 51.2742 21.7875C51.458 21.7115 51.6041 21.5656 51.6804 21.3818C51.7566 21.1981 51.7568 20.9916 51.6808 20.8078C51.6048 20.624 51.4588 20.4778 51.2751 20.4016C45.9359 18.1857 42.0552 19.8451 39.7401 21.6276C38.2042 22.822 36.9329 24.3223 36.0066 26.0333C35.9628 26.1216 35.9368 26.2175 35.9301 26.3158C35.9234 26.4141 35.9361 26.5127 35.9675 26.606C35.9989 26.6994 36.0484 26.7857 36.1131 26.8599C36.1779 26.9341 36.2566 26.9949 36.3448 27.0387C36.433 27.0825 36.529 27.1085 36.6273 27.1152C36.7255 27.1219 36.8241 27.1092 36.9175 27.0778C37.0108 27.0464 37.0971 26.9969 37.1713 26.9322C37.2456 26.8674 37.3063 26.7887 37.3501 26.7005C38.1766 25.1947 39.3011 23.8731 40.6551 22.8161C43.5661 20.5755 46.9457 20.229 50.7001 21.7871Z" fill="#4690FF"/>
<path d="M42.2724 16.2296C42.2112 16.4188 42.2277 16.6246 42.3182 16.8017C42.4087 16.9788 42.5659 17.1127 42.7552 17.1739C43.7877 17.4782 44.8585 17.6329 45.9349 17.6334C47.1892 17.6334 48.6378 17.4071 49.9368 16.6371C51.6368 15.6298 52.7268 13.9137 53.1785 11.5371C53.1973 11.4401 53.1968 11.3405 53.1769 11.2438C53.1571 11.1471 53.1184 11.0552 53.063 10.9735C53.0076 10.8918 52.9366 10.8218 52.8541 10.7676C52.7716 10.7134 52.6792 10.676 52.5822 10.6576C52.4852 10.6391 52.3856 10.64 52.2889 10.6602C52.1923 10.6804 52.1006 10.7195 52.0191 10.7752C51.9376 10.8308 51.8679 10.9021 51.814 10.9848C51.76 11.0675 51.723 11.16 51.7049 11.2571C51.3377 13.1897 50.4877 14.5646 49.1785 15.3433C46.6884 16.8249 43.2702 15.7642 43.216 15.7469C43.0269 15.6859 42.8213 15.7025 42.6444 15.793C42.4675 15.8835 42.3337 16.0405 42.2724 16.2296Z" fill="#4690FF"/>
<path d="M32.3592 35.6101C32.6263 35.6101 32.8875 35.5309 33.1096 35.3825C33.3318 35.2341 33.5049 35.0231 33.6072 34.7763C33.7094 34.5295 33.7362 34.2579 33.6841 33.9959C33.632 33.7338 33.5034 33.4931 33.3145 33.3042C33.1256 33.1153 32.8849 32.9866 32.6228 32.9345C32.3608 32.8824 32.0892 32.9091 31.8424 33.0113C31.5956 33.1136 31.3846 33.2867 31.2362 33.5088C31.0877 33.731 31.0085 33.9921 31.0085 34.2593C31.0089 34.6174 31.1514 34.9607 31.4046 35.2139C31.6578 35.4671 32.0011 35.6096 32.3592 35.6101ZM32.3592 34.11C32.3887 34.11 32.4176 34.1188 32.4422 34.1352C32.4668 34.1516 32.4859 34.1749 32.4973 34.2022C32.5086 34.2295 32.5116 34.2595 32.5058 34.2885C32.5 34.3175 32.4858 34.3441 32.4649 34.365C32.444 34.3859 32.4174 34.4002 32.3884 34.4059C32.3594 34.4117 32.3294 34.4087 32.3021 34.3974C32.2748 34.3861 32.2514 34.3669 32.235 34.3423C32.2186 34.3178 32.2099 34.2888 32.2099 34.2593C32.2101 34.2198 32.2259 34.1819 32.2538 34.154C32.2818 34.126 32.3196 34.1102 32.3592 34.11Z" fill="#4690FF"/>
<path d="M42.9858 11.11C43.253 11.11 43.5141 11.0308 43.7363 10.8824C43.9584 10.7339 44.1315 10.523 44.2338 10.2762C44.336 10.0294 44.3627 9.75777 44.3106 9.49575C44.2585 9.23373 44.1299 8.99305 43.941 8.80414C43.752 8.61524 43.5114 8.48659 43.2493 8.43447C42.9873 8.38235 42.7157 8.4091 42.4689 8.51134C42.2221 8.61357 42.0111 8.7867 41.8627 9.00883C41.7143 9.23096 41.6351 9.49211 41.6351 9.75926C41.6355 10.1174 41.7779 10.4607 42.0311 10.7139C42.2844 10.9672 42.6277 11.1096 42.9858 11.11ZM42.9858 9.61002C43.0154 9.61002 43.0443 9.61878 43.0688 9.6352C43.0934 9.65162 43.1125 9.67495 43.1238 9.70226C43.1351 9.72956 43.1381 9.7596 43.1323 9.78858C43.1265 9.81756 43.1123 9.84417 43.0914 9.86506C43.0705 9.88594 43.0439 9.90016 43.0149 9.90591C42.9859 9.91166 42.9559 9.90868 42.9286 9.89736C42.9013 9.88603 42.878 9.86687 42.8616 9.84229C42.8452 9.81771 42.8364 9.78881 42.8364 9.75926C42.8366 9.71972 42.8525 9.68185 42.8804 9.6539C42.9084 9.62595 42.9463 9.61018 42.9858 9.61002Z" fill="#4690FF"/>
<path d="M62.0248 10.0789C61.7576 10.0789 61.4965 10.1581 61.2743 10.3066C61.0522 10.455 60.8791 10.666 60.7769 10.9128C60.6746 11.1596 60.6479 11.4312 60.7 11.6932C60.7521 11.9553 60.8808 12.1959 61.0697 12.3848C61.2586 12.5737 61.4993 12.7024 61.7614 12.7545C62.0234 12.8066 62.295 12.7798 62.5418 12.6776C62.7886 12.5753 62.9996 12.4022 63.148 12.18C63.2964 11.9579 63.3756 11.6967 63.3756 11.4295C63.3752 11.0714 63.2327 10.7281 62.9795 10.4749C62.7263 10.2217 62.3829 10.0793 62.0248 10.0789ZM62.0248 11.5789C61.9953 11.5789 61.9664 11.5702 61.9418 11.5537C61.9172 11.5373 61.8981 11.514 61.8868 11.4867C61.8755 11.4594 61.8725 11.4294 61.8783 11.4004C61.8841 11.3714 61.8983 11.3448 61.9192 11.3239C61.9401 11.303 61.9667 11.2888 61.9957 11.283C62.0246 11.2773 62.0547 11.2802 62.082 11.2915C62.1093 11.3029 62.1326 11.322 62.149 11.3466C62.1654 11.3711 62.1742 11.4 62.1742 11.4295C62.174 11.4691 62.1582 11.507 62.1302 11.535C62.1023 11.563 62.0644 11.5788 62.0248 11.5789Z" fill="#4690FF"/>
<path d="M31.8054 28.0038C31.8054 27.7366 31.7262 27.4755 31.5777 27.2533C31.4293 27.0312 31.2183 26.858 30.9714 26.7558C30.7246 26.6536 30.4529 26.6269 30.1909 26.6791C29.9289 26.7313 29.6882 26.86 29.4993 27.049C29.3104 27.2379 29.1818 27.4787 29.1298 27.7408C29.0778 28.0028 29.1046 28.2744 29.207 28.5213C29.3093 28.7681 29.4826 28.979 29.7048 29.1273C29.927 29.2756 30.1883 29.3547 30.4554 29.3546C30.8134 29.354 31.1566 29.2115 31.4097 28.9583C31.6628 28.7051 31.8051 28.3618 31.8054 28.0038ZM30.4554 28.1538C30.4259 28.1538 30.3971 28.1451 30.3725 28.1288C30.3479 28.1124 30.3288 28.0891 30.3174 28.0618C30.3061 28.0346 30.3031 28.0046 30.3088 27.9756C30.3145 27.9466 30.3286 27.92 30.3494 27.8991C30.3703 27.8782 30.3968 27.8639 30.4257 27.858C30.4547 27.8522 30.4847 27.855 30.512 27.8663C30.5393 27.8775 30.5627 27.8965 30.5792 27.921C30.5957 27.9455 30.6046 27.9743 30.6047 28.0038C30.6045 28.0435 30.5887 28.0815 30.5606 28.1094C30.5325 28.1374 30.4945 28.1532 30.4548 28.1532L30.4554 28.1538Z" fill="#4690FF"/>
<path d="M59.8005 28.8525C59.5334 28.8525 59.2722 28.9318 59.0501 29.0802C58.828 29.2286 58.6548 29.4396 58.5526 29.6864C58.4504 29.9332 58.4236 30.2048 58.4757 30.4668C58.5278 30.7288 58.6565 30.9695 58.8454 31.1584C59.0343 31.3473 59.275 31.476 59.537 31.5281C59.799 31.5802 60.0706 31.5534 60.3174 31.4512C60.5642 31.349 60.7752 31.1759 60.9236 30.9537C61.072 30.7316 61.1513 30.4704 61.1513 30.2033C61.1509 29.8452 61.0084 29.5018 60.7552 29.2486C60.502 28.9954 60.1586 28.8529 59.8005 28.8525ZM59.8005 30.3525C59.771 30.3525 59.7422 30.3437 59.7176 30.3273C59.6931 30.3109 59.674 30.2876 59.6627 30.2603C59.6514 30.233 59.6485 30.203 59.6543 30.1741C59.66 30.1451 59.6743 30.1186 59.6952 30.0977C59.716 30.0768 59.7426 30.0626 59.7716 30.0569C59.8005 30.0511 59.8305 30.0541 59.8578 30.0654C59.8851 30.0767 59.9084 30.0958 59.9247 30.1204C59.9411 30.1449 59.9499 30.1738 59.9499 30.2033C59.9497 30.2428 59.9339 30.2807 59.9059 30.3086C59.8779 30.3366 59.8401 30.3524 59.8005 30.3525Z" fill="#4690FF"/>
</svg>
