<svg width="64" height="64" viewBox="0 0 64 64" fill="none" xmlns="http://www.w3.org/2000/svg">
<g clip-path="url(#clip0)">
<path d="M62.2443 32.9003C61.9702 32.7203 61.7096 32.5207 61.4645 32.3029C61.6102 31.994 61.7803 31.6972 61.9733 31.4155C62.5067 30.5845 63.1083 29.6437 62.704 28.6677C62.2997 27.6917 61.1915 27.44 60.2176 27.2277C59.8898 27.1658 59.5671 27.0791 59.2523 26.9685C59.269 26.6314 59.3121 26.2962 59.3813 25.9659C59.5552 24.9899 59.7536 23.8848 59.0016 23.1328C58.2496 22.3808 57.1445 22.5781 56.1675 22.7531C55.8387 22.8274 55.5038 22.8706 55.1669 22.8821C55.0558 22.5675 54.9692 22.2448 54.9077 21.9168C54.6944 20.9429 54.4555 19.8389 53.4677 19.4293C52.48 19.0197 51.5477 19.6277 50.7189 20.16C50.4375 20.353 50.1411 20.5231 49.8325 20.6688C49.6138 20.424 49.4134 20.1634 49.2331 19.8891C48.6613 19.0656 48.0128 18.1333 46.9333 18.1333C45.8539 18.1333 45.2064 19.0656 44.6336 19.8891C44.4536 20.1633 44.2536 20.424 44.0352 20.6688C43.7263 20.5232 43.4295 20.353 43.1477 20.16C42.3179 19.6267 41.3781 19.0219 40.4 19.4293C39.4219 19.8368 39.1723 20.9419 38.96 21.9147C38.8985 22.2433 38.8119 22.5668 38.7008 22.8821C38.624 22.8821 38.5163 22.8715 38.4 22.8576V4.26667C38.4 1.91025 36.4897 0 34.1333 0H4.26667C1.91025 0 0 1.91025 0 4.26667V38.4C0 40.7564 1.91025 42.6667 4.26667 42.6667H32.0512C32.5588 42.9082 33.0972 43.079 33.6512 43.1744C33.9791 43.2363 34.3018 43.323 34.6165 43.4336C34.5998 43.7707 34.5567 44.1059 34.4875 44.4363C34.3136 45.4112 34.1152 46.5173 34.8672 47.2693C35.1263 47.5264 35.458 47.6977 35.8176 47.76L31.4859 59.888C31.2535 60.5539 31.472 61.2938 32.0289 61.7265C32.5858 62.1592 33.3568 62.1881 33.9445 61.7984L36.0245 60.4224C36.0245 60.4224 36.144 60.4544 36.1557 60.4544L36.8917 62.8437C37.0914 63.5149 37.7 63.9815 38.4 64H38.464C39.1596 64.0001 39.7807 63.5641 40.0171 62.9099L44.5067 50.3232L44.6379 50.5099C45.2053 51.3355 45.8539 52.2667 46.9333 52.2667C48.0128 52.2667 48.6603 51.3344 49.2331 50.512L49.3643 50.3243L53.8667 62.9333C54.107 63.577 54.723 64.0028 55.4101 64H55.4667C56.1651 63.9806 56.7724 63.5153 56.9728 62.8459L57.7088 60.4555L56.6891 60.1419L57.84 60.4235L59.9115 61.7941C60.5009 62.1921 61.2794 62.1656 61.8404 61.7285C62.4013 61.2914 62.6173 60.5429 62.3755 59.8741L58.0416 47.7632C58.405 47.7018 58.7404 47.5293 59.0016 47.2693C59.7483 46.5227 59.5552 45.4123 59.3813 44.4363C59.3121 44.1063 59.269 43.7714 59.2523 43.4347C59.5673 43.3236 59.8904 43.2369 60.2187 43.1755C61.1915 42.9621 62.2955 42.7232 62.7051 41.7355C63.1147 40.7477 62.5067 39.8155 61.9744 38.9867C61.7812 38.705 61.611 38.4082 61.4656 38.0992C61.7107 37.8814 61.9713 37.6818 62.2453 37.5019C63.0677 36.9291 64 36.2795 64 35.2C64 34.1205 63.0677 33.4731 62.2443 32.9003ZM4.26667 2.13333H34.1333C35.3115 2.13333 36.2667 3.08846 36.2667 4.26667V22.5963C35.7475 22.5806 35.2434 22.7726 34.8661 23.1296C34.1195 23.8763 34.3125 24.9877 34.4864 25.9637C34.5556 26.2937 34.5988 26.6286 34.6155 26.9653C34.3003 27.0758 33.9772 27.1624 33.6491 27.2245C32.6752 27.4379 31.5723 27.6768 31.1627 28.6645C31.0089 29.0476 30.9905 29.4717 31.1104 29.8667H2.13333V4.26667C2.13333 3.08846 3.08846 2.13333 4.26667 2.13333ZM31.8933 38.9856C31.5567 39.4595 31.2932 39.9812 31.1115 40.5333H4.26667C3.08846 40.5333 2.13333 39.5782 2.13333 38.4V32H32.2507C32.308 32.0971 32.3586 32.1979 32.4021 32.3019C32.1574 32.5203 31.8967 32.7203 31.6224 32.9003C30.7989 33.4731 29.8667 34.1216 29.8667 35.2C29.8667 36.2784 30.7989 36.928 31.6224 37.4997C31.8962 37.6804 32.1568 37.8803 32.4021 38.0981C32.2567 38.4072 32.0866 38.704 31.8933 38.9856ZM38.4971 60.8139L38.1877 59.8123C37.9742 59.144 37.4554 58.6172 36.7904 58.3936C36.1395 58.1625 35.4174 58.2552 34.8459 58.6432L33.9925 59.2085L38.1525 47.5819C38.3358 47.5521 38.5207 47.5329 38.7061 47.5243C38.8172 47.8393 38.9039 48.1624 38.9653 48.4907C39.1787 49.4645 39.4176 50.5685 40.4053 50.9781C40.9447 51.177 41.5431 51.1383 42.0523 50.8715L38.4971 60.8139ZM59.0315 58.6507C58.4582 58.2576 57.7317 58.1621 57.0763 58.3936C56.407 58.6201 55.886 59.1523 55.6736 59.8261L55.3707 60.8128L51.8219 50.8661C52.3305 51.1323 52.9279 51.1711 53.4667 50.9728C54.4544 50.5632 54.6944 49.4603 54.9067 48.4864C54.9681 48.1581 55.0548 47.835 55.1659 47.52C55.3473 47.5167 55.5286 47.5328 55.7067 47.568L59.8752 59.2075L59.0315 58.6507ZM61.0261 35.7504C60.2366 36.1479 59.6321 36.8362 59.3397 37.6704C59.2957 38.5686 59.5951 39.4499 60.1771 40.1355C60.3093 40.3424 60.5067 40.6496 60.6176 40.8736C60.3765 40.9547 60.0107 41.0347 59.7643 41.0869C58.8753 41.1531 58.0464 41.561 57.4517 42.2251C57.0633 43.0315 57.0021 43.957 57.2811 44.8075C57.3248 45.0539 57.3877 45.4197 57.4069 45.6715C57.1552 45.6555 56.7893 45.5904 56.5429 45.5467C55.6926 45.2666 54.7667 45.3278 53.9605 45.7173C53.2964 46.3119 52.8888 47.1409 52.8235 48.0299C52.7701 48.2763 52.6901 48.6411 52.6101 48.8832C52.3861 48.7712 52.0768 48.5749 51.8731 48.4416C51.1873 47.8585 50.3048 47.5594 49.4059 47.6053C48.5718 47.8974 47.8836 48.5015 47.4859 49.2907C47.3155 49.5461 47.131 49.7918 46.9333 50.0267C46.7365 49.7933 46.5531 49.549 46.384 49.2949C45.9858 48.5062 45.2977 47.9022 44.464 47.6096C44.3484 47.5867 44.2309 47.5753 44.1131 47.5755C43.3409 47.6638 42.6086 47.9652 41.9979 48.4459C41.7909 48.5792 41.4848 48.7755 41.2608 48.8864C41.175 48.6058 41.1038 48.321 41.0475 48.0331C40.9812 47.1449 40.5737 46.317 39.9104 45.7227C39.1041 45.3327 38.1778 45.2711 37.3269 45.5509C37.0805 45.5947 36.7157 45.6576 36.464 45.6757C36.4911 45.3862 36.5327 45.0982 36.5888 44.8128C36.8682 43.9616 36.807 43.0353 36.4181 42.2283C35.8232 41.5654 34.9949 41.1583 34.1067 41.0923C33.8188 41.0355 33.534 40.9643 33.2533 40.8789C33.36 40.6549 33.5616 40.3456 33.6939 40.1408C34.2761 39.4554 34.5755 38.574 34.5312 37.6757C34.2389 36.8415 33.6343 36.1532 32.8448 35.7557C32.5885 35.5845 32.3421 35.3989 32.1067 35.2C32.3402 35.0035 32.5845 34.8201 32.8384 34.6507C33.6279 34.2532 34.2325 33.5649 34.5248 32.7307C34.5688 31.8327 34.2698 30.9515 33.6885 30.2656C33.5552 30.0587 33.3579 29.7515 33.2469 29.5275C33.5276 29.4421 33.8124 29.3709 34.1003 29.3141C34.9891 29.2484 35.818 28.8409 36.4128 28.1771C36.8013 27.3703 36.8625 26.4445 36.5835 25.5936C36.5397 25.3472 36.4768 24.9824 36.4576 24.7307C36.7093 24.7467 37.0752 24.8117 37.3205 24.8555C38.1713 25.1356 39.0975 25.0744 39.904 24.6848C40.568 24.0901 40.9756 23.2612 41.0411 22.3723C41.0944 22.1259 41.1744 21.76 41.2544 21.5189C41.4784 21.6309 41.7877 21.8272 41.9915 21.9595C42.6777 22.5418 43.5598 22.8411 44.4587 22.7968C45.2929 22.5045 45.9812 21.8999 46.3787 21.1104C46.5503 20.855 46.7354 20.6089 46.9333 20.3733C47.1296 20.6071 47.313 20.8513 47.4827 21.1051C47.8802 21.8946 48.5684 22.4992 49.4027 22.7915C50.3012 22.8357 51.183 22.5364 51.8688 21.9541C52.0757 21.8219 52.3819 21.6256 52.6059 21.5136C52.6916 21.7942 52.7628 22.079 52.8192 22.3669C52.8859 23.2555 53.2933 24.084 53.9563 24.6795C54.7627 25.0691 55.689 25.1303 56.5397 24.8501C56.7851 24.8064 57.1509 24.7435 57.4027 24.7243C57.3757 25.0138 57.334 25.3018 57.2779 25.5872C56.9984 26.4387 57.0596 27.3654 57.4485 28.1728C58.0438 28.8352 58.8719 29.2422 59.76 29.3088C60.0478 29.3656 60.3326 29.4368 60.6133 29.5221C60.5067 29.7461 60.3051 30.0555 60.1728 30.2592C59.5907 30.9451 59.2913 31.8268 59.3355 32.7253C59.6278 33.5596 60.2323 34.2478 61.0219 34.6453C61.2779 34.8165 61.5243 35.0017 61.76 35.2C61.5256 35.3967 61.2806 35.5805 61.0261 35.7504Z" fill="#4690FF"/>
<path d="M46.9326 24.534C41.0416 24.534 36.266 29.3096 36.266 35.2006C36.266 41.0916 41.0416 45.8673 46.9326 45.8673C52.8237 45.8673 57.5993 41.0916 57.5993 35.2006C57.5922 29.3125 52.8207 24.541 46.9326 24.534ZM46.9326 43.7339C42.2198 43.7339 38.3993 39.9134 38.3993 35.2006C38.3993 30.4878 42.2198 26.6673 46.9326 26.6673C51.6455 26.6673 55.466 30.4878 55.466 35.2006C55.4607 39.9112 51.6433 43.7286 46.9326 43.7339Z" fill="#4690FF"/>
<path d="M50.1618 31.9605L49.4898 31.8539L49.2402 31.3205C48.8187 30.4279 47.9201 29.8585 46.933 29.8585C45.9458 29.8585 45.0472 30.4279 44.6258 31.3205L44.3762 31.8539L43.7042 31.9605C42.7587 32.1057 41.9738 32.7673 41.6707 33.6745C41.3675 34.5817 41.597 35.5823 42.2652 36.2667L42.822 36.8341L42.7036 37.5605C42.544 38.5245 42.9489 39.4949 43.7463 40.0596C44.5437 40.6243 45.5935 40.684 46.4498 40.2133L46.7314 40.0587C46.8568 39.9894 47.0091 39.9894 47.1346 40.0587L47.4162 40.2133C48.2719 40.684 49.3213 40.6248 50.1188 40.061C50.9162 39.4971 51.3218 38.5275 51.1634 37.5637L51.0439 36.8373L51.6007 36.2667C52.2722 35.5828 52.5038 34.5803 52.2003 33.6711C51.8968 32.762 51.1094 32.0996 50.1618 31.9563V31.9605ZM50.0775 34.7765L49.142 35.7301C48.904 35.9727 48.7959 36.3142 48.8508 36.6496L49.0578 37.9104C49.0834 38.0684 49.0169 38.2271 48.8863 38.3196C48.7557 38.4121 48.5839 38.4222 48.4434 38.3456L48.1618 38.1899C47.3983 37.7683 46.4719 37.7683 45.7084 38.1899L45.4268 38.3435C45.2874 38.4236 45.1139 38.414 44.9842 38.3189C44.8498 38.2294 44.7825 38.0678 44.8135 37.9093L45.0194 36.6485C45.0743 36.3132 44.9662 35.9717 44.7282 35.7291L43.7927 34.7755C43.6822 34.6635 43.6439 34.4989 43.6937 34.3496C43.7434 34.2003 43.8728 34.0916 44.0284 34.0683L45.2626 33.8816C45.6137 33.8282 45.9153 33.6034 46.0668 33.2821L46.5596 32.2389C46.6283 32.0925 46.7755 31.999 46.9372 31.999C47.099 31.999 47.2462 32.0925 47.3148 32.2389L47.8076 33.2821C47.9592 33.6034 48.2607 33.8282 48.6119 33.8816L49.846 34.0683C50.0017 34.0916 50.131 34.2003 50.1808 34.3496C50.2306 34.4989 50.1923 34.6635 50.0818 34.7755L50.0775 34.7765Z" fill="#4690FF"/>
<path d="M25.5993 35.2007H8.53266C8.53266 34.6116 8.05509 34.1341 7.46599 34.1341C6.87689 34.1341 6.39932 34.6116 6.39932 35.2007H5.33266C4.74355 35.2007 4.26599 35.6783 4.26599 36.2674C4.26599 36.8565 4.74355 37.3341 5.33266 37.3341H6.39932C6.39932 37.9232 6.87689 38.4007 7.46599 38.4007C8.05509 38.4007 8.53266 37.9232 8.53266 37.3341H25.5993C26.1884 37.3341 26.666 36.8565 26.666 36.2674C26.666 35.6783 26.1884 35.2007 25.5993 35.2007Z" fill="#4690FF"/>
<path d="M12.6901 18.1122H8.93602L8.15058 20.6502H6.39998L10.0609 9.74965H11.5719L15.2395 20.6502H13.4822L12.6901 18.1122ZM9.40861 16.5849H12.2176L10.8131 12.063L9.40861 16.5849Z" fill="#4690FF"/>
<path d="M16.3444 20.6502V9.74965H19.2066C20.0631 9.74965 20.8219 9.96426 21.4831 10.3935C22.1487 10.8227 22.6635 11.4316 23.0273 12.2202C23.3912 13.0088 23.5731 13.9122 23.5731 14.9304V15.4769C23.5731 16.5101 23.389 17.4185 23.0207 18.2021C22.6568 18.9857 22.1354 19.5896 21.4565 20.0138C20.7819 20.4381 20.0076 20.6502 19.1334 20.6502H16.3444ZM18.0285 11.2769V19.1379H19.1268C20.0098 19.1379 20.6865 18.8284 21.1569 18.2095C21.6317 17.5857 21.8736 16.6922 21.8825 15.5293V14.9229C21.8825 13.74 21.6539 12.8366 21.1969 12.2127C20.7398 11.5889 20.0764 11.2769 19.2066 11.2769H18.0285Z" fill="#4690FF"/>
<path d="M30.3159 17.8427C30.3159 17.3636 30.1651 16.9942 29.8633 16.7347C29.566 16.4751 29.0268 16.2131 28.2458 15.9486C27.4648 15.6841 26.8436 15.3896 26.3821 15.0652C25.499 14.4413 25.0575 13.6277 25.0575 12.6245C25.0575 11.7461 25.3748 11.0224 26.0093 10.4534C26.6483 9.88441 27.4759 9.59991 28.4921 9.59991C29.1666 9.59991 29.7679 9.73967 30.296 10.0192C30.824 10.2987 31.2389 10.698 31.5407 11.217C31.8424 11.7311 31.9933 12.3026 31.9933 12.9315H30.3159C30.3159 12.3625 30.1562 11.9183 29.8367 11.5988C29.5216 11.2744 29.069 11.1122 28.4788 11.1122C27.9286 11.1122 27.5003 11.2445 27.1942 11.509C26.8924 11.7735 26.7415 12.1429 26.7415 12.617C26.7415 13.0163 26.9057 13.3507 27.2341 13.6202C27.5625 13.8848 28.1038 14.1443 28.8582 14.3988C29.6126 14.6484 30.2183 14.9354 30.6754 15.2598C31.1324 15.5792 31.4675 15.9486 31.6805 16.3678C31.8935 16.7821 32 17.2687 32 17.8277C32 18.7361 31.6894 19.4598 31.0681 19.9988C30.4513 20.5329 29.6126 20.7999 28.552 20.7999C27.8509 20.7999 27.2052 20.6552 26.6151 20.3657C26.0293 20.0712 25.5722 19.6669 25.2439 19.1529C24.9199 18.6388 24.758 18.0398 24.758 17.3561H26.442C26.442 17.975 26.6239 18.4541 26.9878 18.7935C27.3517 19.1329 27.8731 19.3026 28.552 19.3026C29.1378 19.3026 29.5771 19.1703 29.87 18.9058C30.1673 18.6363 30.3159 18.2819 30.3159 17.8427Z" fill="#4690FF"/>
</g>
<defs>
<clipPath id="clip0">
<rect width="64" height="64" fill="white"/>
</clipPath>
</defs>
</svg>
