<svg width="338" height="396" viewBox="0 0 338 396" fill="none" xmlns="http://www.w3.org/2000/svg">
<g clip-path="url(#clip0)">
<path d="M0.251953 368.13H298V369.277H0.251953V368.13Z" fill="#3F3D56"/>
<path d="M128.442 171.811C128.442 171.811 150.641 189.184 139.541 193.132C128.442 197.08 121.306 178.918 121.306 178.918L128.442 171.811Z" fill="#FFB8B8"/>
<path d="M127.649 165.492L132.406 173.389C132.406 173.389 124.477 173.389 122.892 185.234L116.549 177.337L127.649 165.492Z" fill="#CFCCE0"/>
<path d="M22.2 345.541L21.4068 369.231L30.9212 374.759L34.8853 372.39L34.0927 345.541H22.2Z" fill="#FFB8B8"/>
<path d="M78.4919 339.223L76.9062 364.493L99.106 373.969L97.5202 360.544C97.5202 360.544 91.1775 350.278 92.7632 339.223H78.4919Z" fill="#FFB8B8"/>
<path d="M44.3998 148.908C44.3998 148.908 31.7142 182.075 29.3357 202.607C26.9571 223.139 22.9929 277.627 22.9929 277.627L15.0644 347.909L37.2641 351.067L46.7783 279.996L68.1852 209.714L72.9423 279.996L76.9065 343.96L97.5206 344.75L99.1063 278.416L107.828 193.92L103.071 153.646L44.3998 148.908Z" fill="#2F2E41"/>
<path d="M32.5068 370.811C32.5068 370.811 31.2064 357.548 21.5496 364.969L19.8212 363.704L11.8927 381.077C11.8927 381.077 2.37857 394.501 19.0284 396.081C35.6782 397.66 34.0925 381.077 34.0925 381.077L35.6782 373.969L34.8854 369.315L32.5068 370.811Z" fill="#2F2E41"/>
<path d="M78.4921 355.018C76.5405 356.129 74.9231 357.74 73.8078 359.684C72.6925 361.628 72.1198 363.834 72.1493 366.073C72.1493 373.97 72.9421 374.76 72.9421 374.76L84.8348 377.918C84.8348 377.918 92.7633 377.129 97.5204 381.867C102.278 386.605 126.063 389.764 126.063 383.446C126.063 377.129 106.242 366.863 106.242 366.863C106.242 366.863 100.355 356.962 96.163 357.964C91.9705 358.966 90.3848 360.545 90.3848 361.335C90.3848 362.125 92.7633 367.653 92.7633 367.653C92.7633 367.653 79.2849 364.494 78.4921 355.018Z" fill="#2F2E41"/>
<path d="M80.0777 51.7791C69.1308 51.7791 60.2565 42.9403 60.2565 32.037C60.2565 21.1338 69.1308 12.2949 80.0777 12.2949C91.0247 12.2949 99.8989 21.1338 99.8989 32.037C99.8989 42.9403 91.0247 51.7791 80.0777 51.7791Z" fill="#FFB8B8"/>
<path d="M65.41 37.168L56.6886 56.9101L80.4741 90.8665C80.4741 90.8665 82.0598 53.7513 86.8169 47.4339C91.574 41.1164 65.41 37.168 65.41 37.168Z" fill="#FFB8B8"/>
<path d="M76.5101 78.2326L72.5455 67.9668L69.3746 68.7562L65.41 65.5974L59.8603 48.2246L51.9316 53.7522L41.6247 157.201L105.845 158.78L97.124 86.919L89.1954 66.3874L83.4725 58.8516L79.6815 70.3356L76.5101 78.2326Z" fill="#CFCCE0"/>
<path d="M58.2744 122.455L55.8483 51.0215C55.8483 51.0215 51.1388 51.3832 49.5531 53.7522C47.9674 56.1213 21.8034 60.8594 21.8034 60.8594L26.5605 134.3C26.5605 134.3 6.7393 192.737 13.8749 195.895C21.0105 199.054 33.6961 198.264 33.6961 198.264L58.2744 122.455Z" fill="#575A89"/>
<path d="M96.7275 113.374L88.3168 65.2305L107.035 77.8379L102.277 112.584L106.242 136.275C106.242 136.275 121.306 201.818 116.549 204.187C111.792 206.556 106.242 204.187 106.242 204.187L96.7275 137.854V113.374Z" fill="#575A89"/>
<path d="M101.485 76.2578L107.035 77.8372L109.413 109.425L113.377 137.064L132.406 171.02C132.406 171.02 122.892 164.702 118.927 182.865L97.9715 146.526L101.485 76.2578Z" fill="#575A89"/>
<path d="M39.6427 165.492C39.6427 165.492 61.8425 182.865 50.7426 186.814C39.6427 190.762 32.5071 172.599 32.5071 172.599L39.6427 165.492Z" fill="#FFB8B8"/>
<path d="M26.1641 174.18L33.2996 182.866L42.814 166.283L38.8499 159.176L26.1641 174.18Z" fill="#CFCCE0"/>
<path d="M27.7499 63.6236L21.4071 60.4648C21.4071 60.4648 16.65 66.7823 15.8571 72.3101C15.0643 77.8379 11.1 84.9451 11.1 88.8935C11.1 92.8419 0.000167847 129.957 0.000167847 129.957L25.3713 181.287C25.3713 181.287 30.9212 162.334 42.814 160.755L22.9928 133.116L34.0926 113.374L27.7499 63.6236Z" fill="#575A89"/>
<path d="M63.4846 13.2259L59.7468 11.7354C59.7468 11.7354 67.5621 3.16561 78.4356 3.91085L75.3773 0.557398C75.3773 0.557398 82.8528 -2.42339 89.6487 5.40121C93.2212 9.51443 97.3546 14.3493 99.9313 19.7957H103.934L102.264 23.4596L108.111 27.1235L102.109 26.4654C102.467 28.4718 102.522 30.5201 102.272 32.5427C102.015 34.5658 100.978 36.4102 99.3811 37.6866C99.3811 37.6866 94.7456 28.1299 94.7456 26.6395V30.3655C94.7456 30.3655 91.0079 27.0121 91.0079 24.7765L88.9691 27.3847L87.9498 23.286L75.3773 27.3847L77.4161 24.0313L69.6008 25.1491L72.6591 21.0504C72.6591 21.0504 63.8244 25.8943 63.4846 29.9929C63.1448 34.0915 60.5589 37.9751 60.5589 37.9751C60.5589 37.9751 53.6305 18.8149 63.4846 13.2259Z" fill="#2F2E41"/>
<path d="M63.8245 31.6411C62.5984 31.6411 61.6045 30.4036 61.6045 28.8772C61.6045 27.3507 62.5984 26.1133 63.8245 26.1133C65.0505 26.1133 66.0444 27.3507 66.0444 28.8772C66.0444 30.4036 65.0505 31.6411 63.8245 31.6411Z" fill="#FFB8B8"/>
<path d="M166.589 114.442H135V82.9785H156.436V83.7275H135.753V113.693H165.837V98.7101H166.589V114.442Z" fill="#3F3D56"/>
<path d="M258.943 114.442H227.354V82.9785H248.79V83.7275H228.107V113.693H258.191V98.7101H258.943V114.442Z" fill="#3F3D56"/>
<path d="M150.632 106.234C149.902 104.087 140.748 96.7893 146.357 95.5626L150.957 101.672L172.107 80.6074L174.234 82.726L150.632 106.234Z" fill="#4690FF"/>
<path d="M242.985 106.234C242.255 104.087 233.101 96.7893 238.711 95.5626L243.311 101.672L264.46 80.6074L266.587 82.726L242.985 106.234Z" fill="#4690FF"/>
<path d="M166.589 203.584H135V172.121H156.436V172.871H135.753V202.835H165.837V187.853H166.589V203.584Z" fill="#3F3D56"/>
<path d="M258.943 203.584H227.354V172.121H248.79V172.871H228.107V202.835H258.191V187.853H258.943V203.584Z" fill="#3F3D56"/>
<path d="M150.632 195.378C149.902 193.232 140.748 185.934 146.357 184.707L150.957 190.816L172.107 169.752L174.234 171.871L150.632 195.378Z" fill="#4690FF"/>
<path d="M242.985 195.378C242.255 193.232 233.101 185.934 238.711 184.707L243.311 190.816L264.46 169.752L266.587 171.871L242.985 195.378Z" fill="#4690FF"/>
<path d="M166.589 292.355H135V260.893H156.436V261.642H135.753V291.606H165.837V276.624H166.589V292.355Z" fill="#3F3D56"/>
<path d="M258.943 292.355H227.354V260.893H248.79V261.642H228.107V291.606H258.191V276.624H258.943V292.355Z" fill="#3F3D56"/>
<path d="M150.632 284.148C149.902 282.001 140.748 274.703 146.357 273.477L150.957 279.586L172.107 258.521L174.234 260.64L150.632 284.148Z" fill="#4690FF"/>
<path d="M242.985 284.148C242.255 282.001 233.101 274.703 238.711 273.477L243.311 279.586L264.46 258.521L266.587 260.64L242.985 284.148Z" fill="#4690FF"/>
</g>
<defs>
<clipPath id="clip0">
<rect width="338" height="396" fill="white" transform="matrix(-1 0 0 1 338 0)"/>
</clipPath>
</defs>
</svg>
