<svg width="64" height="64" viewBox="0 0 64 64" fill="none" xmlns="http://www.w3.org/2000/svg">
<path d="M61.3459 30.0119L58.3584 27.9159C58.1687 21.05 55.3077 14.529 50.384 9.74004C45.4603 4.95105 38.8625 2.27195 31.994 2.2726C25.1255 2.27325 18.5282 4.9536 13.6054 9.74353C8.68267 14.5335 5.82291 21.055 5.63443 27.9209L2.65393 30.0119C2.53892 30.0927 2.44503 30.2 2.3802 30.3247C2.31536 30.4494 2.28149 30.5879 2.28143 30.7284V40.0339C2.28163 40.1734 2.31518 40.3108 2.37929 40.4346C2.44339 40.5585 2.53619 40.6652 2.64993 40.7459L5.99293 43.1349C6.14074 43.2411 6.31795 43.2986 6.49993 43.2994H9.82893C10.061 43.2993 10.2834 43.2071 10.4475 43.043C10.6116 42.8789 10.7038 42.6565 10.7039 42.4244V28.4369C10.7039 28.4249 10.7079 28.4129 10.7084 28.4004C10.823 22.8303 13.1161 17.5269 17.0959 13.6281C21.0757 9.72931 26.4251 7.54566 31.9964 7.54566C37.5677 7.54566 42.9171 9.72931 46.8969 13.6281C50.8767 17.5269 53.1699 22.8303 53.2844 28.4004C53.2844 28.4334 53.2919 28.4644 53.2959 28.4959V42.4229C53.2961 42.655 53.3883 42.8774 53.5524 43.0415C53.7164 43.2056 53.9389 43.2978 54.1709 43.2979H54.9604V44.3059C54.9576 45.6354 54.48 46.9201 53.6136 47.9285C52.7473 48.9369 51.5493 49.6027 50.2354 49.8059C51.3504 47.2811 51.9256 44.551 51.9239 41.7909V28.9689C51.9239 23.6838 49.8244 18.6152 46.0873 14.8781C42.3502 11.1409 37.2815 9.04143 31.9964 9.04143C26.7113 9.04143 21.6427 11.1409 17.9056 14.8781C14.1684 18.6152 12.0689 23.6838 12.0689 28.9689V41.7934C12.0676 46.1921 13.5221 50.4675 16.2056 53.9527C18.8891 57.4379 22.6506 59.937 26.9035 61.0601C31.1563 62.1832 35.6613 61.8672 39.7157 60.1613C43.77 58.4555 47.1458 55.4557 49.3164 51.6299H49.3864C51.3282 51.6278 53.1899 50.8555 54.563 49.4824C55.936 48.1094 56.7083 46.2477 56.7104 44.3059V43.2994H57.4999C57.6824 43.2994 57.8604 43.2425 58.0089 43.1364L61.3519 40.7474C61.4653 40.6665 61.5577 40.5597 61.6215 40.4358C61.6852 40.312 61.7185 40.1747 61.7184 40.0354V30.7284C61.7184 30.5879 61.6845 30.4494 61.6197 30.3247C61.5548 30.2 61.461 30.0927 61.3459 30.0119ZM31.9959 10.7914C36.8151 10.7974 41.4351 12.7144 44.8428 16.1221C48.2504 19.5297 50.1675 24.1498 50.1734 28.9689V33.6809C49.5669 33.7458 48.9574 33.7801 48.3474 33.7839C45.1885 33.7764 42.0866 32.9415 39.3506 31.3625C36.6146 29.7835 34.3399 27.5154 32.7529 24.7839C32.676 24.6513 32.5656 24.5412 32.4328 24.4646C32.2999 24.3881 32.1493 24.3478 31.9959 24.3478C31.8426 24.3478 31.692 24.3881 31.5591 24.4646C31.4262 24.5412 31.3158 24.6513 31.2389 24.7839C29.652 27.5154 27.3773 29.7835 24.6413 31.3625C21.9053 32.9415 18.8034 33.7764 15.6444 33.7839C15.0344 33.7801 14.425 33.7458 13.8184 33.6809V28.9689C13.8244 24.1497 15.7415 19.5296 19.1493 16.1219C22.557 12.7142 27.1772 10.7972 31.9964 10.7914H31.9959ZM31.9959 59.9709C27.1769 59.9648 22.5569 58.0478 19.1494 54.6401C15.7419 51.2325 13.8249 46.6125 13.8189 41.7934V35.4399C14.4259 35.4954 15.0354 35.5339 15.6449 35.5339C18.8693 35.5262 22.0432 34.7328 24.8921 33.2226C27.7409 31.7124 30.1788 29.5307 31.9949 26.8664C33.8115 29.5314 36.2502 31.7135 39.1 33.2238C41.9498 34.734 45.1247 35.527 48.3499 35.5339C48.9594 35.5339 49.5689 35.4954 50.1759 35.4399V41.7934C50.1775 44.6004 49.5249 47.3691 48.2699 49.8799H40.0624C39.8768 49.3064 39.5144 48.8064 39.0271 48.4515C38.5398 48.0966 37.9527 47.9051 37.3499 47.9044H33.8839C33.1281 47.9044 32.4032 48.2047 31.8687 48.7392C31.3342 49.2737 31.0339 49.9986 31.0339 50.7544C31.0339 51.5103 31.3342 52.2352 31.8687 52.7697C32.4032 53.3042 33.1281 53.6044 33.8839 53.6044H37.3499C37.9527 53.6035 38.5397 53.4119 39.0269 53.0569C39.514 52.7019 39.8764 52.2019 40.0619 51.6284H47.2704C45.6257 54.1858 43.3656 56.2896 40.6971 57.7471C38.0286 59.2046 35.037 59.9692 31.9964 59.9709H31.9959ZM38.4459 50.8084C38.4325 51.0902 38.3113 51.356 38.1074 51.551C37.9035 51.7459 37.6325 51.8551 37.3504 51.8559H33.8839C33.5922 51.8559 33.3124 51.74 33.1061 51.5337C32.8998 51.3275 32.7839 51.0477 32.7839 50.7559C32.7839 50.4642 32.8998 50.1844 33.1061 49.9781C33.3124 49.7718 33.5922 49.6559 33.8839 49.6559H37.3499C37.632 49.6568 37.903 49.7659 38.1069 49.9609C38.3108 50.1558 38.432 50.4217 38.4454 50.7034C38.4454 50.7214 38.4399 50.7384 38.4399 50.7564C38.4399 50.7744 38.4444 50.7904 38.4459 50.8084ZM8.95393 41.5494H6.78043L4.03043 39.5854V31.1854L6.77493 29.2599H8.95293L8.95393 41.5494ZM31.9964 5.79943C26.1254 5.83087 20.4852 8.0895 16.2152 12.119C11.9452 16.1486 9.36375 21.6486 8.99243 27.5079H7.39243C7.68754 21.1812 10.4085 15.2113 14.9902 10.8384C19.5719 6.46541 25.6621 4.02553 31.9957 4.02553C38.3293 4.02553 44.4195 6.46541 49.0011 10.8384C53.5828 15.2113 56.3038 21.1812 56.5989 27.5079H54.9999C54.6295 21.648 52.0485 16.1471 47.7786 12.1168C43.5086 8.08647 37.868 5.82718 31.9964 5.79542V5.79943ZM59.9684 39.5879L57.2184 41.5519H55.0449V29.2579H57.2229L59.9674 31.1834L59.9684 39.5879Z" fill="#4690FF"/>
</svg>
