<svg width="40" height="40" viewBox="0 0 40 40" fill="none" xmlns="http://www.w3.org/2000/svg">
<path fill-rule="evenodd" clip-rule="evenodd" d="M21.1785 7.15417C20.5276 6.5033 19.4724 6.5033 18.8215 7.15417C18.1706 7.80504 18.1706 8.86032 18.8215 9.51119L27.643 18.3327H8.33332C7.41285 18.3327 6.66666 19.0789 6.66666 19.9993C6.66666 20.9198 7.41285 21.666 8.33332 21.666H27.643L18.8215 30.4875C18.1706 31.1384 18.1706 32.1937 18.8215 32.8445C19.4724 33.4954 20.5276 33.4954 21.1785 32.8445L32.8452 21.1779C33.496 20.527 33.496 19.4717 32.8452 18.8208L21.1785 7.15417Z" fill="#596982"/>
<path d="M4 1H36V-1H4V1ZM39 4V36H41V4H39ZM36 39H4V41H36V39ZM1 36V4H-1V36H1ZM4 39C2.34315 39 1 37.6569 1 36H-1C-1 38.7614 1.23858 41 4 41V39ZM39 36C39 37.6569 37.6569 39 36 39V41C38.7614 41 41 38.7614 41 36H39ZM36 1C37.6569 1 39 2.34315 39 4H41C41 1.23858 38.7614 -1 36 -1V1ZM4 -1C1.23858 -1 -1 1.23858 -1 4H1C1 2.34315 2.34315 1 4 1V-1Z" fill="#596982"/>
</svg>
