<svg width="24" height="24" viewBox="0 0 24 24" fill="none" xmlns="http://www.w3.org/2000/svg">
<path d="M23.6 4.40144H22V2.40144C22.0008 2.18054 21.8224 2.00079 21.6014 2.00004C21.5897 1.99999 21.5781 2.00049 21.5664 2.00144L20.5228 2.08944C17.9921 2.29874 15.5099 2.90399 13.1668 3.88304L12 4.36824L10.8344 3.88464C8.4911 2.90544 6.0086 2.30009 3.4776 2.09064L2.4336 2.00144C2.21345 1.98289 2.01995 2.14629 2.0014 2.36644C2.0004 2.37809 1.99995 2.38979 2 2.40144V4.40144H0.4C0.1791 4.40144 0 4.58054 0 4.80144V21.6014C0 21.8223 0.1791 22.0014 0.4 22.0014H23.6C23.8209 22.0014 24 21.8223 24 21.6014V4.80144C24 4.58054 23.8209 4.40144 23.6 4.40144ZM0.8 21.2022V5.20144H2V19.2014C1.99925 19.4097 2.15845 19.5837 2.366 19.6014L3.4424 19.6934C3.73575 19.718 4.02905 19.7482 4.3224 19.7842C4.4204 19.7958 4.5176 19.8114 4.6156 19.8242C4.8096 19.8502 5.0036 19.8762 5.1968 19.907C5.312 19.9254 5.4268 19.947 5.5416 19.9674C5.7168 19.9982 5.892 20.029 6.0664 20.0634C6.1864 20.0874 6.3064 20.1138 6.4264 20.1398C6.5948 20.1758 6.7632 20.2126 6.9308 20.2526C7.0508 20.2814 7.1728 20.3122 7.2936 20.343C7.4588 20.3854 7.6236 20.4286 7.788 20.4742C7.908 20.5078 8.028 20.543 8.148 20.5782C8.3112 20.6265 8.474 20.6766 8.6364 20.7286C8.75535 20.7665 8.874 20.8054 8.9924 20.8454C9.156 20.9002 9.3184 20.9578 9.4808 21.0166C9.596 21.0566 9.7116 21.1002 9.826 21.1438C9.8756 21.1626 9.9248 21.1838 9.974 21.2022H0.8ZM11.6 21.0014L10.8624 20.6934C8.5209 19.7124 6.0399 19.105 3.51 18.8934L2.8 18.8342V2.83664L3.4104 2.88784C5.8587 3.09014 8.26005 3.67554 10.5268 4.62264L11.6 5.06824V21.0014ZM12.4 21.0014V5.06824L13.4744 4.62224C15.7408 3.67534 18.1417 3.09009 20.5896 2.88784L21.2 2.83664V18.833L20.5428 18.8866C18.0113 19.0968 15.5282 19.7006 13.1828 20.6762L12.4 21.0014ZM23.2 21.2014H14.032C14.0868 21.1802 14.1412 21.1578 14.196 21.137C14.316 21.091 14.436 21.0474 14.5588 21.0038C14.7156 20.947 14.873 20.892 15.0312 20.8386C15.1544 20.7986 15.2784 20.7586 15.402 20.7186C15.56 20.6682 15.7188 20.6202 15.8776 20.573C16.0024 20.5362 16.1276 20.4998 16.2528 20.4654C16.4128 20.4206 16.5728 20.3786 16.7368 20.3374C16.8608 20.3058 16.9852 20.2742 17.11 20.2446C17.2764 20.2046 17.444 20.1686 17.6116 20.133C17.7316 20.107 17.8516 20.0802 17.974 20.0562C18.15 20.0214 18.3268 19.9906 18.5032 19.9598C18.6176 19.9398 18.7316 19.9198 18.8464 19.8998C19.0436 19.8686 19.2412 19.8418 19.4392 19.8154C19.534 19.803 19.6288 19.7878 19.724 19.7754C20.0174 19.74 20.3122 19.7097 20.6084 19.6846L21.6328 19.6014C21.8408 19.5843 22.0007 19.4101 22 19.2014V5.20144H23.2V21.2014Z" fill="white"/>
</svg>
