<svg xmlns="http://www.w3.org/2000/svg" width="80" height="80" viewBox="0 0 80 80" fill="none">
<circle opacity="0.9" cx="40" cy="40" r="40" fill="white"/>
<g clip-path="url(#clip0)">
<path d="M37.8745 53.791H37.4604C37.1554 53.791 36.9082 54.0383 36.9082 54.3432C36.9082 54.6482 37.1554 54.8954 37.4604 54.8954H37.8745C38.1795 54.8954 38.4267 54.6482 38.4267 54.3432C38.4267 54.0383 38.1795 53.791 37.8745 53.791Z" fill="#596982"/>
<path d="M50.4913 51.0746C50.4913 51.0746 50.4913 51.0746 50.4913 51.0304V49.5009C50.4897 49.0858 50.5398 48.6722 50.6404 48.2695L51.1153 46.3754C51.4424 45.0696 51.5395 43.7168 51.4025 42.3775L50.8503 38.8932C50.5851 37.2918 49.1989 36.1183 47.5757 36.1212H47.1782C47.112 36.1223 47.0465 36.1355 46.9849 36.1598C46.4716 35.45 45.652 35.0258 44.7761 35.0168H44.4172C44.1708 35.0165 43.9275 35.0712 43.7049 35.1769C43.1988 34.3922 42.3304 33.9165 41.3967 33.9124H41.104C40.9156 33.9139 40.7289 33.9475 40.5518 34.0118V28.3904C40.5518 27.1706 39.5629 26.1816 38.343 26.1816H38.2381C37.0722 26.1792 36.1051 27.0834 36.0293 28.2469L35.2342 40.7707C34.5567 40.528 33.9418 40.1375 33.434 39.6276L32.937 39.1306C31.8595 38.0565 30.1161 38.0565 29.0385 39.1306L28.7238 39.4343C28.3389 39.8212 28.2943 40.4313 28.6189 40.87L29.6625 42.2726C29.8505 42.5314 30.0238 42.8006 30.1816 43.0788L30.2975 43.2997C31.5779 45.4829 33.3975 47.3006 35.5821 48.5787C35.9234 48.7758 36.1338 49.1399 36.1343 49.534V51.0304C36.1331 51.0507 36.1331 51.071 36.1343 51.0912C35.3998 51.6434 35.0299 52.5269 35.0299 53.7914V55.448C35.0299 55.753 35.2771 56.0002 35.5821 56.0002C35.887 56.0002 36.1343 55.753 36.1343 55.448V53.7914C36.1343 52.2011 36.7527 51.5826 38.343 51.5826H48.2826C49.9391 51.5826 50.4913 52.1348 50.4913 53.7914H39.7235C39.4186 53.7914 39.1713 54.0387 39.1713 54.3436C39.1713 54.6486 39.4186 54.8958 39.7235 54.8958C40.0285 54.8958 50.4913 54.8958 50.4913 54.8958V55.448C50.4913 55.753 50.7386 56.0002 51.0435 56.0002C51.3485 56.0002 51.5957 55.753 51.5957 55.448V53.7914C51.5957 52.4993 51.2202 51.5826 50.4913 51.0746ZM50.1158 46.1325L49.641 48.0265C49.4959 48.5056 49.4105 49.0008 49.3869 49.5009V50.6053C49.0247 50.522 48.6542 50.4794 48.2826 50.4782H38.343C37.9713 50.4778 37.6006 50.5204 37.2386 50.6053V49.5395C37.2438 48.7453 36.8221 48.0095 36.1343 47.6124C34.1194 46.4348 32.4405 44.7597 31.2584 42.7475L31.1645 42.5487C30.9794 42.2356 30.7766 41.9332 30.5571 41.6431L29.5079 40.224L29.8116 39.9147C30.4584 39.2687 31.5062 39.2687 32.1529 39.9147L32.6499 40.4117C33.3468 41.1143 34.2087 41.6306 35.1569 41.9137L35.0851 43.0788C35.0626 43.3781 35.2834 43.6405 35.5821 43.6697H35.6373C35.9297 43.6702 36.1719 43.4426 36.1895 43.1506L37.1392 28.3186C37.1771 27.7369 37.6607 27.2848 38.2436 27.286H38.343C38.953 27.286 39.4474 27.7805 39.4474 28.3904V37.7778C39.4474 38.0827 39.6947 38.3299 39.9996 38.3299C40.3046 38.3299 40.5518 38.0827 40.5518 37.7778V35.569C40.5518 35.264 40.7991 35.0168 41.104 35.0168H41.3967C42.2281 35.0086 42.9369 35.6181 43.0533 36.4414L43.3128 38.4073C43.3516 38.6817 43.5879 38.8848 43.865 38.8821H43.9423C44.2447 38.8428 44.458 38.5658 44.4187 38.2633C44.4182 38.2597 44.4177 38.2562 44.4172 38.2526L44.1356 36.2813C44.1356 36.2813 44.1356 36.2426 44.1356 36.2206C44.2185 36.1622 44.316 36.1278 44.4172 36.1212H44.754C45.5729 36.1102 46.2769 36.6992 46.4106 37.5072L46.626 38.976C46.6721 39.2439 46.9064 39.4383 47.1782 39.4343H47.272C47.5734 39.3876 47.7798 39.1054 47.733 38.804C47.7322 38.7988 47.7313 38.7935 47.7304 38.7883L47.4874 37.3194C47.4874 37.2863 47.4874 37.2532 47.4874 37.22H47.6144C48.7122 37.2068 49.6531 38.0018 49.8232 39.0865L50.3754 42.5432C50.497 43.7456 50.4092 44.96 50.1158 46.1325Z" fill="#596982"/>
<path fill-rule="evenodd" clip-rule="evenodd" d="M31.051 30.0433C31.2226 30.2141 31.2226 30.4905 31.051 30.6611C30.8775 30.8315 30.5972 30.8319 30.4238 30.6611L28.5474 28.8077C28.3758 28.6371 28.3758 28.3605 28.5474 28.1897L30.4238 26.3363C30.5972 26.1657 30.8775 26.1657 31.051 26.3363C31.2226 26.5071 31.2226 26.7835 31.051 26.9543L29.4866 28.4986L31.051 30.0433Z" fill="#596982"/>
<path fill-rule="evenodd" clip-rule="evenodd" d="M34.0881 30.0433C34.2597 30.2141 34.2597 30.4905 34.0881 30.6611C33.9146 30.8315 33.6343 30.8319 33.4609 30.6611L31.5845 28.8077C31.4129 28.6371 31.4129 28.3605 31.5845 28.1897L33.4609 26.3363C33.6343 26.1657 33.9146 26.1657 34.0881 26.3363C34.2597 26.5071 34.2597 26.7835 34.0881 26.9543L32.5237 28.4986L34.0881 30.0433Z" fill="#596982"/>
</g>
<defs>
<clipPath id="clip0">
<rect width="32" height="32" fill="white" transform="translate(24 24)"/>
</clipPath>
</defs>
</svg>