<svg width="20" height="28" viewBox="0 0 20 28" fill="none" xmlns="http://www.w3.org/2000/svg">
<path fill-rule="evenodd" clip-rule="evenodd" d="M7.61581 27.0683C8.79419 27.4148 10.0592 27.2589 11.2896 26.7043L9.07147 26.0285C7.82376 26.583 6.55872 26.739 5.36301 26.3924L7.61581 27.0683ZM11.6535 26.5484L9.43538 25.8725C9.97258 25.5953 10.4925 25.266 10.995 24.8501L13.2132 25.526C12.7106 25.9419 12.1734 26.2711 11.6535 26.5484ZM13.4558 25.3353C13.8543 24.9887 14.2529 24.6075 14.6515 24.1916L12.4333 23.5158C12.0521 23.9317 11.6535 24.3129 11.2549 24.6595L13.4558 25.3353ZM14.8421 23.9837L12.624 23.3078C12.9532 22.9266 13.2825 22.528 13.5944 22.0948L15.8125 22.7706C15.5006 23.2038 15.1714 23.6024 14.8421 23.9837ZM15.9685 22.5453C16.2458 22.1468 16.523 21.7309 16.783 21.2976L14.5648 20.6218C14.3049 21.055 14.0276 21.4709 13.7504 21.8695L15.9685 22.5453ZM16.9216 21.055L14.6861 20.3792C14.9287 19.9633 15.154 19.53 15.362 19.0795L17.5974 19.7553C17.3895 20.2232 17.1642 20.6391 16.9216 21.055ZM17.7188 19.53C17.9267 19.0968 18.1173 18.6636 18.2906 18.1957L16.0551 17.5198C15.8819 17.9704 15.6912 18.421 15.4833 18.8542L17.7188 19.53ZM18.3773 17.9531L16.1418 17.2772C16.3151 16.844 16.471 16.3761 16.6097 15.9256L18.8451 16.6014C18.7065 17.0693 18.5506 17.5198 18.3773 17.9531ZM18.9318 16.3588C18.9665 16.2548 18.9838 16.1682 19.0184 16.0642C19.1224 15.7003 19.2264 15.3364 19.313 14.9725L17.0776 14.2966C16.9909 14.6605 16.8869 15.0418 16.783 15.4057C16.7483 15.4923 16.731 15.5963 16.6963 15.683L18.9318 16.3588ZM19.365 14.7125L17.1296 14.0367C17.2335 13.5688 17.3375 13.0836 17.4068 12.6157L19.6423 13.2915C19.573 13.7594 19.4863 14.2273 19.365 14.7125ZM19.6943 13.0316C19.7636 12.5464 19.8329 12.0611 19.8676 11.5759L17.6321 10.9001C17.5974 11.3853 17.5281 11.8532 17.4588 12.3557L19.6943 13.0316ZM19.8849 11.316L17.6494 10.6401C17.6841 10.1376 17.7014 9.63505 17.7014 9.14983L19.9369 9.82567C19.9369 10.3109 19.9196 10.8134 19.8849 11.316ZM19.9369 9.56573C19.9196 9.04586 19.9022 8.52598 19.8502 8.04076L17.6148 7.34759C17.6668 7.85014 17.7014 8.35269 17.7014 8.87257L19.9369 9.56573ZM19.7983 7.74616L17.5628 7.053C17.4935 6.49846 17.4068 5.96126 17.2855 5.45871L19.521 6.15188C19.6423 6.65442 19.7289 7.19163 19.7983 7.74616ZM19.4517 5.85728C19.2957 5.25076 19.1051 4.69622 18.8625 4.17634L16.6097 3.48317C16.835 4.00305 17.0429 4.55759 17.1989 5.16411L19.4517 5.85728ZM18.7238 3.86442L16.471 3.17125C16.1071 2.42609 15.6566 1.78491 15.1367 1.26503L17.3895 1.9582C17.9094 2.47808 18.3426 3.11926 18.7238 3.86442ZM16.9389 1.5423C16.4364 1.14373 15.8819 0.831804 15.258 0.658511L13.0225 0C13.6291 0.173292 14.1663 0.467888 14.6688 0.849131L16.9389 1.5423Z" fill="#12284C"/>
<path fill-rule="evenodd" clip-rule="evenodd" d="M5.06886 24.99C3.23196 24.4528 1.9496 22.6506 1.34308 20.1725C0.719226 17.6251 0.823202 14.3672 1.79364 11.0053C2.76408 7.66077 4.41035 4.85344 6.29924 3.01654C8.13614 1.23163 10.1983 0.399826 12.0352 0.937032C13.8721 1.47424 15.1545 3.27648 15.761 5.75456C16.3848 8.30195 16.2809 11.5598 15.3104 14.9217C14.34 18.2836 12.6937 21.0736 10.7875 22.9105C8.95061 24.6781 6.88843 25.5099 5.06886 24.99ZM0.667239 20.3284C1.32575 23.0491 2.7814 25.042 4.87824 25.6485C6.95775 26.255 9.26253 25.3539 11.2727 23.3957C13.2483 21.4895 14.9639 18.5782 15.9689 15.1123C16.974 11.6465 17.078 8.24997 16.4195 5.5986C15.761 2.87791 14.3053 0.885044 12.2085 0.278521L12.1392 0.261193C10.077 -0.310671 7.80688 0.607776 5.81402 2.53132C3.83849 4.43754 2.12289 7.34885 1.11779 10.8147L1.10047 10.884C0.112704 14.3152 0.00872841 17.6771 0.667239 20.3284Z" fill="#12284C"/>
<path fill-rule="evenodd" clip-rule="evenodd" d="M5.62258 23.0124C4.04562 22.5619 2.95388 21.0369 2.43401 18.9227C1.91413 16.7912 2.00078 14.0879 2.79792 11.2979C3.61239 8.50785 4.98141 6.16841 6.55836 4.66076C8.118 3.15312 9.86824 2.44263 11.4279 2.91051C13.0048 3.36107 14.0966 4.88605 14.6165 7.00021C15.1363 9.13171 15.0497 11.8351 14.2525 14.6251C13.4381 17.4151 12.0691 19.7372 10.4921 21.2622C8.94979 22.7525 7.19954 23.463 5.62258 23.0124ZM2.22606 18.9747C2.76326 21.1582 3.92432 22.7525 5.5706 23.2377C7.21687 23.7229 9.05377 22.9951 10.6654 21.4181C12.2597 19.8758 13.6633 17.5017 14.4778 14.6771V14.6597C15.2923 11.8351 15.3789 9.09705 14.8417 6.93089C14.3045 4.74741 13.1435 3.15312 11.4972 2.6679C9.85092 2.18269 8.01402 2.91051 6.4024 4.48747C4.80811 6.02977 3.40444 8.40388 2.58997 11.2285C1.77549 14.0532 1.68885 16.8086 2.22606 18.9747Z" fill="#12284C"/>
<path fill-rule="evenodd" clip-rule="evenodd" d="M9.93742 12.0948L12.3808 8.68094C12.4675 8.55964 12.5541 8.47299 12.6581 8.421C12.7274 8.38635 12.7967 8.35169 12.8661 8.35169C12.918 8.35169 12.97 8.36901 13.022 8.40367C13.0567 8.43833 13.0913 8.47299 13.126 8.52498C13.23 8.69827 13.2473 8.94088 13.23 9.18349C13.1953 9.46076 13.0913 9.7207 12.9354 9.94598L9.43486 14.8155L9.41754 14.8328L8.863 15.5433L10.8212 14.7288C10.8732 14.7115 10.9252 14.6942 10.9598 14.6942C11.0292 14.6942 11.0811 14.7115 11.1331 14.7462C11.1851 14.7982 11.2371 14.8675 11.2718 14.9541C11.3238 15.0581 11.3411 15.1967 11.3411 15.3527C11.3411 15.6473 11.2718 15.9419 11.1331 16.1845C11.0118 16.4098 10.8385 16.6004 10.6652 16.6697L6.74883 18.2987C6.02101 18.5933 5.83039 18.6799 5.34517 17.8654L4.42672 16.3231C4.16678 15.8726 4.08013 15.2314 4.14945 14.5729C4.2361 13.897 4.47871 13.2039 4.87728 12.6493L5.63976 11.5923L7.58064 8.88889C7.66729 8.76759 7.77126 8.68094 7.85791 8.61163C7.92723 8.55964 8.01387 8.54231 8.06586 8.54231C8.11784 8.54231 8.16983 8.55964 8.22182 8.5943C8.25648 8.62895 8.29114 8.66361 8.32579 8.7156C8.36045 8.76759 8.39511 8.83691 8.41244 8.90623C8.42977 8.95821 8.42977 9.02753 8.4471 9.07952L7.45933 10.4659L7.82325 10.7258L8.89766 9.23548C8.98431 9.11417 9.08828 9.02753 9.17493 8.95821C9.24424 8.90622 9.33089 8.88889 9.38288 8.88889C9.43487 8.88889 9.48685 8.90622 9.53884 8.94088C9.5735 8.97554 9.60816 9.0102 9.64282 9.06219C9.67748 9.1315 9.71213 9.20082 9.72946 9.27013C9.74679 9.33945 9.76412 9.40877 9.76412 9.49542C9.72947 9.53008 9.71214 9.56474 9.67748 9.59939L8.49909 11.2283L8.863 11.4883L10.0414 9.85933C10.128 9.73803 10.232 9.65138 10.3187 9.58206C10.388 9.53008 10.4746 9.51275 10.5266 9.51275C10.5786 9.51275 10.6306 9.53008 10.6826 9.56473C10.7172 9.59939 10.7519 9.63405 10.7865 9.68604C10.8039 9.7207 10.8212 9.75535 10.8385 9.80734C10.8385 9.82467 10.8559 9.842 10.8559 9.85933L9.50419 11.7482L9.93742 12.0948ZM10.2147 9.21815C10.18 9.09684 10.1454 8.99287 10.076 8.88889C10.0067 8.78492 9.93742 8.69827 9.83344 8.62896C9.69481 8.54231 9.55617 8.49032 9.40021 8.49032C9.26158 8.49032 9.10561 8.54231 8.96698 8.62896C8.91499 8.66361 8.88033 8.68094 8.82834 8.7156C8.81101 8.64629 8.77635 8.5943 8.74169 8.52498C8.67238 8.421 8.60306 8.33436 8.49909 8.26504C8.36045 8.1784 8.22182 8.12641 8.06586 8.12641C7.92722 8.12641 7.77126 8.1784 7.63263 8.26504C7.47666 8.35169 7.33803 8.49032 7.21673 8.66361L5.55312 10.9684L4.51336 12.4241C4.0628 13.0479 3.78554 13.8104 3.69889 14.5729C3.61225 15.3354 3.71622 16.0805 4.02815 16.6177L4.9466 18.16C5.63976 19.3211 5.8997 19.1998 6.92213 18.7839L10.8385 17.1549C11.1158 17.0336 11.3584 16.7737 11.5317 16.4618C11.6877 16.1498 11.7916 15.7686 11.7916 15.4047C11.7916 15.1967 11.757 14.9888 11.6877 14.8328C11.6183 14.6595 11.5144 14.5382 11.3931 14.4342C11.2544 14.3303 11.1158 14.2783 10.9425 14.2783C10.8385 14.2783 10.7346 14.2956 10.6306 14.3476L10.2147 14.5209L13.282 10.2406C13.4899 9.9633 13.6112 9.59939 13.6459 9.27013C13.6805 8.92355 13.6459 8.57697 13.4899 8.31703C13.4206 8.21305 13.3513 8.12641 13.2646 8.05709C13.1433 7.97044 12.9874 7.91846 12.8487 7.91846C12.7101 7.91846 12.5541 7.97045 12.4155 8.03976C12.2769 8.12641 12.1382 8.24771 11.9996 8.421L11.2198 9.51275C11.1505 9.40877 11.0811 9.32212 10.9945 9.27013C10.8559 9.18349 10.7172 9.1315 10.5613 9.1315C10.4573 9.1315 10.336 9.16616 10.2147 9.21815Z" fill="#12284C"/>
</svg>
