<svg width="16" height="17" viewBox="0 0 16 17" fill="none" xmlns="http://www.w3.org/2000/svg">
<g opacity="0.56">
<path d="M7.992 0.857178C3.576 0.857178 0 4.44118 0 8.85718C0 13.2732 3.576 16.8572 7.992 16.8572C12.416 16.8572 16 13.2732 16 8.85718C16 4.44118 12.416 0.857178 7.992 0.857178ZM8 15.2572C4.464 15.2572 1.6 12.3932 1.6 8.85718C1.6 5.32118 4.464 2.45718 8 2.45718C11.536 2.45718 14.4 5.32118 14.4 8.85718C14.4 12.3932 11.536 15.2572 8 15.2572Z" fill="#1F2040"/>
<path d="M8.39922 4.85718H7.19922V9.65718L11.3992 12.1772L11.9992 11.1932L8.39922 9.05718V4.85718Z" fill="#1F2040"/>
</g>
</svg>
