<svg width="285" height="174" viewBox="0 0 285 174" fill="none" xmlns="http://www.w3.org/2000/svg">
<path d="M205.121 49.0979L173.954 31.127L191.949 0.000424495L223.116 17.9713L205.121 49.0979Z" fill="#9966E0"/>
<path d="M50.2171 98.2624L50.2418 141.912L6.62063 141.887L6.59593 98.2377L50.2171 98.2624Z" fill="#4690FF"/>
<path d="M191.553 55.5851L210.342 23.0831L177.798 4.31836L159.008 36.8207L191.553 55.5851ZM208.17 23.6646L190.97 53.4159L161.18 36.2393L178.38 6.48753L208.17 23.6646Z" fill="#273B5B"/>
<path d="M65.2653 108.584L19.7165 108.558L19.7426 154.137L65.2919 154.162L65.2653 108.584ZM21.645 110.488L63.3393 110.512L63.3633 152.233L21.6686 152.209L21.645 110.488Z" fill="#273B5B"/>
<path d="M267.76 80.7132L232.997 90.0156L223.683 55.2985L258.445 45.9961L267.76 80.7132Z" fill="#F2F7FF"/>
<path d="M247.744 95.2065L284.042 85.4933L274.316 49.2422L238.018 58.9554L247.744 95.2065ZM282.095 84.3707L248.868 93.2621L239.965 60.078L273.192 51.1865L282.095 84.3707Z" fill="#273B5B"/>
</svg>
