<svg width="18" height="18" viewBox="0 0 18 18" fill="none" xmlns="http://www.w3.org/2000/svg">
<path fill-rule="evenodd" clip-rule="evenodd" d="M18 3.00376C18 1.42501 16.5765 0 14.9977 0H2.99921C1.42423 0 -3.05176e-05 1.42501 -3.05176e-05 3.00376V14.9977C-3.05176e-05 16.578 1.42423 18 2.99921 18H8.99995V11.1997H6.8017V8.20125H8.99995V7.03124C8.99995 5.01748 10.5135 3.20101 12.375 3.20101H14.8005V6.20326H12.375C12.111 6.20326 11.7982 6.5235 11.7982 7.00651V8.20201H14.8012V11.2005H11.7982V18H14.9977C16.5765 18 18 16.578 18 14.9977V3.00376Z" fill="#596982"/>
</svg>
