<svg width="12" height="16" viewBox="0 0 12 16" fill="none" xmlns="http://www.w3.org/2000/svg">
<path d="M11.9658 9.36778C11.7825 6.98156 10.6715 5.48622 9.69141 4.16665C8.78384 2.94503 8 1.89009 8 0.333904C8 0.208904 7.93 0.0946543 7.819 0.037373C7.70766 -0.020252 7.57387 -0.0108145 7.47266 0.062748C6.00066 1.11606 4.77247 2.89134 4.34344 4.58522C4.04559 5.7645 4.00619 7.09025 4.00066 7.96584C2.64128 7.6755 2.33334 5.64212 2.33009 5.61997C2.31478 5.5145 2.25034 5.42272 2.15659 5.37259C2.06188 5.32312 1.95053 5.31953 1.8545 5.36706C1.78322 5.40156 0.104812 6.25437 0.00715613 9.65941C0.000312384 9.77269 0 9.88631 0 9.9999C0 13.3079 2.69172 15.9995 6 15.9995C6.00456 15.9998 6.00944 16.0005 6.01334 15.9995C6.01466 15.9995 6.01594 15.9995 6.01756 15.9995C9.31772 15.99 12 13.3021 12 9.9999C12 9.83356 11.9658 9.36778 11.9658 9.36778Z" fill="#4690FF"/>
</svg>
