<svg width="326" height="300" viewBox="0 0 326 300" fill="none" xmlns="http://www.w3.org/2000/svg">
<path d="M325.476 186.992L0.535645 186.608L1.18738 0H325.476V186.992Z" fill="#E0EDFF"/>
<path d="M0.622987 18.1363C0.622987 18.1363 19.4122 9.30196 40.1804 16.0572C60.9487 22.8124 68.3642 29.0415 68.3642 29.0415C68.3642 29.0415 84.6815 17.0926 106.928 23.8478C129.175 30.603 128.165 47.2197 128.165 47.2197C128.165 47.2197 136.908 44.2804 145.142 47.395C153.376 50.5096 153.718 55.7451 153.718 55.7451C153.718 55.7451 167.23 36.3562 194.587 40.5145C221.944 44.6729 223.597 70.2909 223.597 70.2909C223.597 70.2909 230.027 61.8072 240.161 64.663C240.161 64.663 243.126 47.5203 263.155 48.564C263.155 48.564 271.31 32.4567 290.099 35.8385C308.888 39.2203 309.881 50.6432 309.881 50.6432C309.881 50.6432 317.035 42.0677 325.952 45.4494V83.1083H0.0825195C0.0825195 83.1083 0.0825187 17.652 0.575298 18.1781" fill="#F0F6FF"/>
<path d="M231.204 80.9874C231.204 80.9874 231.482 80.7202 232.038 80.2943C234.685 78.2569 243.499 72.4703 256.995 73.9733C273.312 75.7936 278.757 64.8801 294.351 64.3624C309.945 63.8447 313.633 52.9395 326 53.4572V83.0666L231.227 80.9874H231.204Z" fill="#DAE8FF"/>
<path d="M0.328828 29.1L0.130127 28.5322H0.336776C0.336776 28.7242 0.336776 28.9246 0.336776 29.1251" fill="#F0F6FF"/>
<path d="M216.039 78.3655C203.219 77.4637 190.351 76.1527 178.135 74.2739C154.187 70.5999 123.373 69.4476 94.1396 69.4476C49.0822 69.4476 7.76028 72.1864 1.07597 72.654L0.789844 30.4694L0.328857 29.1C0.328857 28.8996 0.328857 28.6992 0.328857 28.5072C1.07597 28.432 3.85779 28.1815 7.84771 28.1815C17.2661 28.1815 33.4166 29.5676 45.6089 37.8843C63.8894 50.351 86.6526 40.9989 103.955 50.351C121.258 59.7031 139.563 51.8957 152.749 59.1603C165.346 66.1076 174.939 73.0632 188.992 73.0632C189.651 73.0632 190.311 73.0632 190.987 73.0131C194.166 72.8711 197.091 72.7709 199.729 72.7709C208.735 72.7709 214.553 73.9149 216.031 78.3154" fill="#E0EDFF"/>
<path d="M0.130134 72.6791C0.130134 72.6791 113.851 64.329 178.166 74.2322C242.482 84.1354 324.482 78.3655 324.482 78.3655V187H1.93434C1.93434 187 -0.593138 71.8942 0.130134 72.6791Z" fill="#DAE8FF"/>
<path d="M325.475 187H324.538V133.868L325.475 133.969V187Z" fill="#F0F6FF"/>
<path d="M324.538 187H324.482V133.86H324.53V187" fill="#DAE8FF"/>
<path d="M324.482 187H1.93447C1.93447 186.841 0.154107 91.3666 1.09992 91.3666C1.09992 91.3666 126.679 91.3666 195.914 109.545C238.226 120.556 281.172 128.679 324.482 133.86V187Z" fill="#F0F6FF"/>
<path d="M0.622855 112.15C0.622855 112.15 88.6395 107.482 104.456 125.66C120.273 143.838 88.6395 154.752 120.281 159.946C151.922 165.139 224.114 161.031 224.114 186.958H1.93428C1.93428 186.958 0.130076 111.641 0.622855 112.15Z" fill="#DAE8FF"/>
<rect x="1" y="187" width="325" height="113" fill="white"/>
<rect x="23" y="206" width="277" height="44" fill="#EBF3FF"/>
<rect x="25" y="270" width="65" height="13" fill="#E7E8EA"/>
<rect x="102" y="270" width="16" height="13" fill="#E7E8EA"/>
</svg>
