<svg width="274" height="300" viewBox="0 0 274 300" fill="none" xmlns="http://www.w3.org/2000/svg">
<path d="M273.5 0H0V299.993H273.5V0Z" fill="#E4EFFF"/>
<path d="M77.3799 188.323L156.09 108.427L229.47 188.323H77.3799Z" fill="#DAE8FF"/>
<path d="M0 196.885L62.7 139.816L114.74 188.323H273.5V300H0V196.885Z" fill="#F0F6FF"/>
<path d="M83 78C91.2843 78 98 71.2843 98 63C98 54.7157 91.2843 48 83 48C74.7157 48 68 54.7157 68 63C68 71.2843 74.7157 78 83 78Z" fill="#F0F6FF"/>
<rect x="29" y="214" width="177" height="12" fill="#DAE8FF"/>
<rect x="29" y="238" width="140" height="12" fill="#DAE8FF"/>
<rect x="177" y="238" width="67" height="12" fill="#DAE8FF"/>
<rect x="29" y="262" width="174" height="12" fill="#DAE8FF"/>
</svg>
