<svg width="247" height="356" viewBox="0 0 247 356" fill="none" xmlns="http://www.w3.org/2000/svg">
<path d="M0 4C0 1.79086 1.79086 0 4 0H243C245.209 0 247 1.79086 247 4V352C247 354.209 245.209 356 243 356H4C1.79086 356 0 354.209 0 352V4Z" fill="white"/>
<g clip-path="url(#clip0)">
<path d="M231 16H16V231H231V16Z" fill="#E4EFFF"/>
<path d="M16 224.56C16 224.56 21.7817 219.726 29.5149 219.944C37.2481 220.161 40.293 222.016 40.293 222.016C41.5127 220.275 43.1836 218.899 45.1262 218.035C47.1277 216.976 49.3865 216.501 51.645 216.663C51.645 216.663 52.7808 211.655 59.2574 207.057C67.6793 201.07 76.0105 202.955 76.0105 202.955C76.7255 201.775 77.7087 200.779 78.8803 200.049C80.8015 198.877 83.9552 199.143 83.9552 199.143C83.9552 199.143 83.4235 196.418 86.3718 193.536C89.32 190.655 93.5854 191.929 93.5854 191.929C93.5854 191.929 90.3652 173.503 99.5665 161.414C108.768 149.325 130.608 146.503 152.212 124.56C179.291 97.0834 219.6 62.5198 219.6 62.5198C219.6 62.5198 219.781 57.6503 223.388 52.2492C225.461 49.084 228.038 46.2798 231.018 43.9481V231H16V224.56Z" fill="#F0F6FF"/>
<path d="M61.9641 180.759L48.2317 150.865C48.2317 150.865 54.8774 144.588 57.5417 145.204C60.206 145.82 76.2704 163.015 80.7714 161.275C85.2723 159.535 149.808 104.382 169.334 89.3805C188.86 74.3793 202.853 61.233 216.186 62.5198C229.52 63.8067 228.209 68.2049 228.209 68.2049C228.209 68.2049 229.085 82.1004 204.599 99.6813C180.112 117.262 103.832 164.622 86.0154 173.479C68.199 182.335 61.9641 180.759 61.9641 180.759Z" fill="#F0F6FF"/>
<path d="M19.1537 112.145L152.484 118.893C152.484 118.893 189.682 83.7679 209.196 74.0048C228.71 64.2416 229.87 65.1418 227.556 72.3796C225.242 79.6173 218.144 90.6975 201.475 101.917C184.806 113.136 178.016 125.044 178.016 125.044L229.61 156.46L230.172 164.314C230.172 164.314 214.579 161.063 208.973 159.045C203.366 157.027 203.251 160.725 203.251 160.725L150.756 150.521C150.756 150.521 146.02 157.166 138.238 157.922C130.457 158.677 121.485 165.884 118.905 167.455C116.326 169.026 89.1811 181.139 86.4926 181.586C89.4107 184.057 97.0351 190.449 97.0351 190.449L93.1081 196.618L66.7489 188.184C66.7489 188.184 59.4567 190.649 56.4299 189.307C53.4031 187.966 56.7683 186.287 56.7683 186.287L16 178.886C16 178.886 18.0602 174.959 24.1198 174.844C30.1795 174.729 69.7696 176.753 69.7696 176.753L128.324 137.483L116.096 135.381L112.955 139.531L37.242 125.636L39.1512 122.832L16.6042 118.984L16.7189 111.921L19.1537 112.145Z" fill="#DAE8FF"/>
</g>
<rect x="16" y="247" width="215" height="51" rx="4" fill="#EBF3FF"/>
<rect x="16" y="314" width="89" height="26" rx="4" fill="#C1DAFF"/>
<defs>
<clipPath id="clip0">
<rect x="16" y="16" width="215" height="215" rx="4" fill="white"/>
</clipPath>
</defs>
</svg>
