<svg width="807" height="292" viewBox="0 0 807 292" fill="none" xmlns="http://www.w3.org/2000/svg">
<circle cx="4" cy="4" r="4" fill="#B8BFC9"/>
<circle cx="4" cy="166" r="4" fill="#B8BFC9"/>
<circle cx="4" cy="20" r="4" fill="#B8BFC9"/>
<circle cx="4" cy="182" r="4" fill="#B8BFC9"/>
<circle cx="4" cy="46" r="4" fill="#B8BFC9"/>
<circle cx="4" cy="208" r="4" fill="#B8BFC9"/>
<circle cx="4" cy="86" r="4" fill="#B8BFC9"/>
<circle cx="4" cy="248" r="4" fill="#B8BFC9"/>
<circle cx="4" cy="126" r="4" fill="#B8BFC9"/>
<circle cx="4" cy="288" r="4" fill="#B8BFC9"/>
<circle cx="29" cy="4" r="4" fill="#B8BFC9"/>
<circle cx="29" cy="166" r="4" fill="#B8BFC9"/>
<circle cx="29" cy="20" r="4" fill="#B8BFC9"/>
<circle cx="29" cy="182" r="4" fill="#B8BFC9"/>
<circle cx="29" cy="46" r="4" fill="#B8BFC9"/>
<circle cx="29" cy="208" r="4" fill="#B8BFC9"/>
<circle cx="29" cy="86" r="4" fill="#B8BFC9"/>
<circle cx="29" cy="248" r="4" fill="#B8BFC9"/>
<circle cx="29" cy="126" r="4" fill="#B8BFC9"/>
<circle cx="29" cy="288" r="4" fill="#B8BFC9"/>
<circle cx="63" cy="4" r="4" fill="#B8BFC9"/>
<circle cx="63" cy="166" r="4" fill="#B8BFC9"/>
<circle cx="63" cy="20" r="4" fill="#B8BFC9"/>
<circle cx="63" cy="182" r="4" fill="#B8BFC9"/>
<circle cx="63" cy="46" r="4" fill="#B8BFC9"/>
<circle cx="63" cy="208" r="4" fill="#B8BFC9"/>
<circle cx="63" cy="86" r="4" fill="#B8BFC9"/>
<circle cx="63" cy="248" r="4" fill="#B8BFC9"/>
<circle cx="63" cy="126" r="4" fill="#B8BFC9"/>
<circle cx="63" cy="288" r="4" fill="#B8BFC9"/>
<circle cx="97" cy="4" r="4" fill="#B8BFC9"/>
<circle cx="97" cy="166" r="4" fill="#B8BFC9"/>
<circle cx="97" cy="20" r="4" fill="#B8BFC9"/>
<circle cx="97" cy="182" r="4" fill="#B8BFC9"/>
<circle cx="97" cy="46" r="4" fill="#B8BFC9"/>
<circle cx="97" cy="208" r="4" fill="#B8BFC9"/>
<circle cx="97" cy="86" r="4" fill="#B8BFC9"/>
<circle cx="97" cy="248" r="4" fill="#B8BFC9"/>
<circle cx="97" cy="126" r="4" fill="#B8BFC9"/>
<circle cx="97" cy="288" r="4" fill="#B8BFC9"/>
<circle cx="139" cy="4" r="4" fill="#B8BFC9"/>
<circle cx="139" cy="166" r="4" fill="#B8BFC9"/>
<circle cx="139" cy="20" r="4" fill="#B8BFC9"/>
<circle cx="139" cy="182" r="4" fill="#B8BFC9"/>
<circle cx="139" cy="46" r="4" fill="#B8BFC9"/>
<circle cx="139" cy="208" r="4" fill="#B8BFC9"/>
<circle cx="139" cy="86" r="4" fill="#B8BFC9"/>
<circle cx="139" cy="248" r="4" fill="#B8BFC9"/>
<circle cx="139" cy="126" r="4" fill="#B8BFC9"/>
<circle cx="139" cy="288" r="4" fill="#B8BFC9"/>
<circle cx="156" cy="4" r="4" fill="#B8BFC9"/>
<circle cx="156" cy="166" r="4" fill="#B8BFC9"/>
<circle cx="156" cy="20" r="4" fill="#B8BFC9"/>
<circle cx="156" cy="182" r="4" fill="#B8BFC9"/>
<circle cx="156" cy="46" r="4" fill="#B8BFC9"/>
<circle cx="156" cy="208" r="4" fill="#B8BFC9"/>
<circle cx="156" cy="86" r="4" fill="#B8BFC9"/>
<circle cx="156" cy="248" r="4" fill="#B8BFC9"/>
<circle cx="156" cy="126" r="4" fill="#B8BFC9"/>
<circle cx="156" cy="288" r="4" fill="#B8BFC9"/>
<circle cx="224" cy="4" r="4" fill="#B8BFC9"/>
<circle cx="224" cy="166" r="4" fill="#B8BFC9"/>
<circle cx="224" cy="20" r="4" fill="#B8BFC9"/>
<circle cx="224" cy="182" r="4" fill="#B8BFC9"/>
<circle cx="224" cy="46" r="4" fill="#B8BFC9"/>
<circle cx="224" cy="208" r="4" fill="#B8BFC9"/>
<circle cx="224" cy="86" r="4" fill="#B8BFC9"/>
<circle cx="224" cy="248" r="4" fill="#B8BFC9"/>
<circle cx="224" cy="126" r="4" fill="#B8BFC9"/>
<circle cx="224" cy="288" r="4" fill="#B8BFC9"/>
<circle cx="260" cy="4" r="4" fill="#B8BFC9"/>
<circle cx="260" cy="166" r="4" fill="#B8BFC9"/>
<circle cx="260" cy="20" r="4" fill="#B8BFC9"/>
<circle cx="260" cy="182" r="4" fill="#B8BFC9"/>
<circle cx="260" cy="46" r="4" fill="#B8BFC9"/>
<circle cx="260" cy="208" r="4" fill="#B8BFC9"/>
<circle cx="260" cy="86" r="4" fill="#B8BFC9"/>
<circle cx="260" cy="248" r="4" fill="#B8BFC9"/>
<circle cx="260" cy="126" r="4" fill="#B8BFC9"/>
<circle cx="260" cy="288" r="4" fill="#B8BFC9"/>
<circle cx="317" cy="4" r="4" fill="#B8BFC9"/>
<circle cx="317" cy="166" r="4" fill="#B8BFC9"/>
<circle cx="317" cy="20" r="4" fill="#B8BFC9"/>
<circle cx="317" cy="182" r="4" fill="#B8BFC9"/>
<circle cx="317" cy="46" r="4" fill="#B8BFC9"/>
<circle cx="317" cy="208" r="4" fill="#B8BFC9"/>
<circle cx="317" cy="86" r="4" fill="#B8BFC9"/>
<circle cx="317" cy="248" r="4" fill="#B8BFC9"/>
<circle cx="317" cy="126" r="4" fill="#B8BFC9"/>
<circle cx="317" cy="288" r="4" fill="#B8BFC9"/>
<circle cx="342" cy="4" r="4" fill="#B8BFC9"/>
<circle cx="342" cy="166" r="4" fill="#B8BFC9"/>
<circle cx="342" cy="20" r="4" fill="#B8BFC9"/>
<circle cx="342" cy="182" r="4" fill="#B8BFC9"/>
<circle cx="342" cy="46" r="4" fill="#B8BFC9"/>
<circle cx="342" cy="208" r="4" fill="#B8BFC9"/>
<circle cx="342" cy="86" r="4" fill="#B8BFC9"/>
<circle cx="342" cy="248" r="4" fill="#B8BFC9"/>
<circle cx="342" cy="126" r="4" fill="#B8BFC9"/>
<circle cx="342" cy="288" r="4" fill="#B8BFC9"/>
<circle cx="395" cy="4" r="4" fill="#B8BFC9"/>
<circle cx="395" cy="166" r="4" fill="#B8BFC9"/>
<circle cx="395" cy="20" r="4" fill="#B8BFC9"/>
<circle cx="395" cy="182" r="4" fill="#B8BFC9"/>
<circle cx="395" cy="46" r="4" fill="#B8BFC9"/>
<circle cx="395" cy="208" r="4" fill="#B8BFC9"/>
<circle cx="395" cy="86" r="4" fill="#B8BFC9"/>
<circle cx="395" cy="248" r="4" fill="#B8BFC9"/>
<circle cx="395" cy="126" r="4" fill="#B8BFC9"/>
<circle cx="395" cy="288" r="4" fill="#B8BFC9"/>
<circle cx="420" cy="4" r="4" fill="#B8BFC9"/>
<circle cx="420" cy="166" r="4" fill="#B8BFC9"/>
<circle cx="420" cy="20" r="4" fill="#B8BFC9"/>
<circle cx="420" cy="182" r="4" fill="#B8BFC9"/>
<circle cx="420" cy="46" r="4" fill="#B8BFC9"/>
<circle cx="420" cy="208" r="4" fill="#B8BFC9"/>
<circle cx="420" cy="86" r="4" fill="#B8BFC9"/>
<circle cx="420" cy="248" r="4" fill="#B8BFC9"/>
<circle cx="420" cy="126" r="4" fill="#B8BFC9"/>
<circle cx="420" cy="288" r="4" fill="#B8BFC9"/>
<circle cx="448" cy="4" r="4" fill="#B8BFC9"/>
<circle cx="448" cy="166" r="4" fill="#B8BFC9"/>
<circle cx="448" cy="20" r="4" fill="#B8BFC9"/>
<circle cx="448" cy="182" r="4" fill="#B8BFC9"/>
<circle cx="448" cy="46" r="4" fill="#B8BFC9"/>
<circle cx="448" cy="208" r="4" fill="#B8BFC9"/>
<circle cx="448" cy="86" r="4" fill="#B8BFC9"/>
<circle cx="448" cy="248" r="4" fill="#B8BFC9"/>
<circle cx="448" cy="126" r="4" fill="#B8BFC9"/>
<circle cx="448" cy="288" r="4" fill="#B8BFC9"/>
<circle cx="473" cy="4" r="4" fill="#B8BFC9"/>
<circle cx="473" cy="166" r="4" fill="#B8BFC9"/>
<circle cx="473" cy="20" r="4" fill="#B8BFC9"/>
<circle cx="473" cy="182" r="4" fill="#B8BFC9"/>
<circle cx="473" cy="46" r="4" fill="#B8BFC9"/>
<circle cx="473" cy="208" r="4" fill="#B8BFC9"/>
<circle cx="473" cy="86" r="4" fill="#B8BFC9"/>
<circle cx="473" cy="248" r="4" fill="#B8BFC9"/>
<circle cx="473" cy="126" r="4" fill="#B8BFC9"/>
<circle cx="473" cy="288" r="4" fill="#B8BFC9"/>
<circle cx="533" cy="4" r="4" fill="#B8BFC9"/>
<circle cx="533" cy="166" r="4" fill="#B8BFC9"/>
<circle cx="533" cy="20" r="4" fill="#B8BFC9"/>
<circle cx="533" cy="182" r="4" fill="#B8BFC9"/>
<circle cx="533" cy="46" r="4" fill="#B8BFC9"/>
<circle cx="533" cy="208" r="4" fill="#B8BFC9"/>
<circle cx="533" cy="86" r="4" fill="#B8BFC9"/>
<circle cx="533" cy="248" r="4" fill="#B8BFC9"/>
<circle cx="533" cy="126" r="4" fill="#B8BFC9"/>
<circle cx="533" cy="288" r="4" fill="#B8BFC9"/>
<circle cx="564" cy="4" r="4" fill="#B8BFC9"/>
<circle cx="564" cy="166" r="4" fill="#B8BFC9"/>
<circle cx="564" cy="20" r="4" fill="#B8BFC9"/>
<circle cx="564" cy="182" r="4" fill="#B8BFC9"/>
<circle cx="564" cy="46" r="4" fill="#B8BFC9"/>
<circle cx="564" cy="208" r="4" fill="#B8BFC9"/>
<circle cx="564" cy="86" r="4" fill="#B8BFC9"/>
<circle cx="564" cy="248" r="4" fill="#B8BFC9"/>
<circle cx="564" cy="126" r="4" fill="#B8BFC9"/>
<circle cx="564" cy="288" r="4" fill="#B8BFC9"/>
<circle cx="608" cy="4" r="4" fill="#B8BFC9"/>
<circle cx="608" cy="166" r="4" fill="#B8BFC9"/>
<circle cx="608" cy="20" r="4" fill="#B8BFC9"/>
<circle cx="608" cy="182" r="4" fill="#B8BFC9"/>
<circle cx="608" cy="46" r="4" fill="#B8BFC9"/>
<circle cx="608" cy="208" r="4" fill="#B8BFC9"/>
<circle cx="608" cy="86" r="4" fill="#B8BFC9"/>
<circle cx="608" cy="248" r="4" fill="#B8BFC9"/>
<circle cx="608" cy="126" r="4" fill="#B8BFC9"/>
<circle cx="608" cy="288" r="4" fill="#B8BFC9"/>
<circle cx="624" cy="4" r="4" fill="#B8BFC9"/>
<circle cx="624" cy="166" r="4" fill="#B8BFC9"/>
<circle cx="624" cy="20" r="4" fill="#B8BFC9"/>
<circle cx="624" cy="182" r="4" fill="#B8BFC9"/>
<circle cx="624" cy="46" r="4" fill="#B8BFC9"/>
<circle cx="624" cy="208" r="4" fill="#B8BFC9"/>
<circle cx="624" cy="86" r="4" fill="#B8BFC9"/>
<circle cx="624" cy="248" r="4" fill="#B8BFC9"/>
<circle cx="624" cy="126" r="4" fill="#B8BFC9"/>
<circle cx="624" cy="288" r="4" fill="#B8BFC9"/>
<circle cx="649" cy="4" r="4" fill="#B8BFC9"/>
<circle cx="649" cy="166" r="4" fill="#B8BFC9"/>
<circle cx="649" cy="20" r="4" fill="#B8BFC9"/>
<circle cx="649" cy="182" r="4" fill="#B8BFC9"/>
<circle cx="649" cy="46" r="4" fill="#B8BFC9"/>
<circle cx="649" cy="208" r="4" fill="#B8BFC9"/>
<circle cx="649" cy="86" r="4" fill="#B8BFC9"/>
<circle cx="649" cy="248" r="4" fill="#B8BFC9"/>
<circle cx="649" cy="126" r="4" fill="#B8BFC9"/>
<circle cx="649" cy="288" r="4" fill="#B8BFC9"/>
<circle cx="680" cy="4" r="4" fill="#B8BFC9"/>
<circle cx="680" cy="166" r="4" fill="#B8BFC9"/>
<circle cx="680" cy="20" r="4" fill="#B8BFC9"/>
<circle cx="680" cy="182" r="4" fill="#B8BFC9"/>
<circle cx="680" cy="46" r="4" fill="#B8BFC9"/>
<circle cx="680" cy="208" r="4" fill="#B8BFC9"/>
<circle cx="680" cy="86" r="4" fill="#B8BFC9"/>
<circle cx="680" cy="248" r="4" fill="#B8BFC9"/>
<circle cx="680" cy="126" r="4" fill="#B8BFC9"/>
<circle cx="680" cy="288" r="4" fill="#B8BFC9"/>
<circle cx="731" cy="4" r="4" fill="#B8BFC9"/>
<circle cx="731" cy="166" r="4" fill="#B8BFC9"/>
<circle cx="731" cy="20" r="4" fill="#B8BFC9"/>
<circle cx="731" cy="182" r="4" fill="#B8BFC9"/>
<circle cx="731" cy="46" r="4" fill="#B8BFC9"/>
<circle cx="731" cy="208" r="4" fill="#B8BFC9"/>
<circle cx="731" cy="86" r="4" fill="#B8BFC9"/>
<circle cx="731" cy="248" r="4" fill="#B8BFC9"/>
<circle cx="731" cy="126" r="4" fill="#B8BFC9"/>
<circle cx="731" cy="288" r="4" fill="#B8BFC9"/>
<circle cx="762" cy="4" r="4" fill="#B8BFC9"/>
<circle cx="762" cy="166" r="4" fill="#B8BFC9"/>
<circle cx="762" cy="20" r="4" fill="#B8BFC9"/>
<circle cx="762" cy="182" r="4" fill="#B8BFC9"/>
<circle cx="762" cy="46" r="4" fill="#B8BFC9"/>
<circle cx="762" cy="208" r="4" fill="#B8BFC9"/>
<circle cx="762" cy="86" r="4" fill="#B8BFC9"/>
<circle cx="762" cy="248" r="4" fill="#B8BFC9"/>
<circle cx="762" cy="126" r="4" fill="#B8BFC9"/>
<circle cx="762" cy="288" r="4" fill="#B8BFC9"/>
<circle cx="803" cy="4" r="4" fill="#B8BFC9"/>
<circle cx="803" cy="166" r="4" fill="#B8BFC9"/>
<circle cx="803" cy="20" r="4" fill="#B8BFC9"/>
<circle cx="803" cy="182" r="4" fill="#B8BFC9"/>
<circle cx="803" cy="46" r="4" fill="#B8BFC9"/>
<circle cx="803" cy="208" r="4" fill="#B8BFC9"/>
<circle cx="803" cy="86" r="4" fill="#B8BFC9"/>
<circle cx="803" cy="248" r="4" fill="#B8BFC9"/>
<circle cx="803" cy="126" r="4" fill="#B8BFC9"/>
<circle cx="803" cy="288" r="4" fill="#B8BFC9"/>
</svg>
