<svg width="215" height="300" viewBox="0 0 215 300" fill="none" xmlns="http://www.w3.org/2000/svg">
<path d="M215 0V299.986H0V0H215Z" fill="#DAE8FF"/>
<path d="M99.3604 33.6524C99.3604 33.6524 118.122 30.1812 139.036 45.3625C152.215 54.9396 158.579 50.3392 163.914 64.7816C169.249 79.224 184.17 87.9089 179.905 101.64C175.64 115.372 187.023 111.761 183.813 125.13C180.604 138.499 185.953 145.009 184.527 154.768C183.1 164.526 150.405 175.678 135.155 173.197C119.904 170.716 101.02 162.351 106.355 140.674C111.69 118.996 99.3604 33.6524 99.3604 33.6524Z" fill="#D0E3FF"/>
<path d="M67.5432 50.4508C67.5432 50.4508 84.2747 25.2045 119.534 35.4926C119.534 35.4926 132.961 41.1664 137.816 64.3913C142.766 88.0902 127.269 106.101 119.246 101.654C114.103 98.8662 110.209 107.941 110.209 107.941L67.5432 50.4508Z" fill="#D0E3FF"/>
<path d="M150.227 223.243C149.52 228.18 148.331 233.032 146.675 237.728C139.53 257.76 135.854 265.929 136.033 273.499C136.197 280.204 139.365 286.436 145.825 299.986H52.9648C63.7306 253.913 49.8242 238.425 48.8505 213.945C48.7279 211.679 48.7279 209.408 48.8505 207.142C50.8802 175.664 74.9078 141.817 74.9078 141.817H75.1272H75.3192H75.8266L76.4987 141.747H76.8415L78.2129 141.622C79.8175 140.757 80.2427 133.927 80.229 126.691C80.229 126.273 80.229 125.841 80.229 125.409C80.229 124.754 80.229 124.099 80.229 123.443C80.229 122.788 80.229 122.272 80.229 121.701C80.229 121.422 80.229 121.129 80.229 120.836C80.229 119.986 80.229 119.136 80.1467 118.313V117.24C80.1467 117.072 80.1467 116.919 80.1467 116.766C80.1467 116.25 80.1467 115.762 80.1467 115.274C80.1467 115.037 80.1467 114.8 80.1467 114.563C80.1467 114.326 80.1467 114.117 80.1467 113.88C80.1467 113.643 80.1467 113.225 80.1467 112.904V112.723C80.1467 112.361 80.1467 112.012 80.1467 111.691C80.1467 111.022 80.0644 110.451 80.037 110.005C80.0441 109.917 80.0441 109.828 80.037 109.74C80.0478 109.54 80.0478 109.34 80.037 109.14C80.037 109.043 80.037 108.987 80.037 108.931V108.834L107.15 103.383H107.246L108.796 103.076L110.51 102.728C110.51 104.554 110.51 106.324 110.606 108.039C111.457 127.388 117.175 139.238 120.659 140.102L121.221 140.242C124.485 141.176 128.174 144.215 131.836 148.815C137.437 156.261 141.835 164.567 144.865 173.42C150.158 188.183 153.162 206.069 150.638 223.327L150.227 223.243Z" fill="#ECF5FF"/>
<path d="M79.6117 108.708C79.6117 108.708 80.27 117.909 80.2837 126.566C96.3844 126.106 104.887 111.231 108.371 102.867L79.5706 108.652L79.6117 108.708Z" fill="#C6DFF7"/>
<path d="M111.333 99.7305C111.333 99.7305 119.768 86.1942 121.797 74.6375C123.169 66.3708 119.054 35.7295 88.8006 40.1348C82.6987 41.0017 76.8647 43.2451 71.7262 46.7007C65.1571 51.2175 55.653 60.9619 66.2405 87.7137L68.9834 96.7472L111.292 99.7584L111.333 99.7305Z" fill="#D0E3FF"/>
<path d="M74.2358 116.919C74.2358 116.919 112.307 117.505 112.334 93.4433C112.362 69.3819 117.299 53.1831 92.9833 51.7611C68.6677 50.3392 63.95 59.526 62.0163 67.5697C60.0825 75.6134 64.334 116.111 74.2358 116.919Z" fill="#ECF5FF"/>
<path d="M75.6482 51.1757C75.6482 51.1757 86.0711 79.447 102.103 83.6292C118.135 87.8113 125.047 83.4619 125.047 83.4619C117.137 76.4205 111.885 66.7991 110.195 56.25C110.195 56.25 83.5065 37.7091 75.6482 51.1757Z" fill="#D0E3FF"/>
<path d="M78.2267 53.4619C78.2267 53.4619 70.4507 59.777 68.5444 65.9248C66.6381 72.0725 65.8015 84.6887 62.1809 84.2565C62.1809 84.2565 54.3226 65.0465 63.1409 54.1729C72.5078 42.6301 78.2267 53.4619 78.2267 53.4619Z" fill="#D0E3FF"/>
<path d="M145.989 250.874C148.485 267.463 152.394 284.624 156.028 299.986H34.9028C37.3166 272.565 42.8572 241.812 44.0777 220.525C44.1737 218.769 44.256 217.082 44.2835 215.465C42.6371 205.865 41.8841 196.128 42.0343 186.385C42.5554 164.01 49.0149 151.533 53.9795 146.431C55.3509 145.33 56.7909 144.647 62.4413 143.643C65.3213 143.155 69.2984 142.57 74.9899 141.817H75.2093H75.4013H75.9088L76.5808 141.747H76.9236C77.0329 141.733 77.1435 141.733 77.2528 141.747C76.7594 143.413 76.5552 145.154 76.6493 146.891C76.6493 151.896 77.239 159.103 78.9122 162.463C85.3168 175.302 103.173 174.103 111.004 162.365C111.21 162.045 111.429 161.724 111.621 161.375C116.202 153.611 120.151 140.116 120.151 140.116H120.823C126.049 140.075 131.268 140.514 136.417 141.427C142.241 142.768 147.746 145.27 152.613 148.787L152.517 148.899C153.445 149.518 154.223 150.343 154.794 151.31C157.641 157.243 159.995 163.408 161.829 169.74C168.508 191.334 174.789 222.184 179.658 245.953C164.024 254.707 150.378 252.1 146.126 250.943L145.989 250.874Z" fill="#D0E3FF"/>
<path d="M197.514 299.986H29.6917C29.0745 279.884 30.1168 242.983 44.0643 220.525C45.4964 218.204 47.1157 216.008 48.9055 213.959C52.9602 209.22 58.1595 205.635 63.9913 203.559C69.1922 201.737 74.2376 199.485 79.0771 196.826C94.1629 188.587 106.972 177.114 116.613 166.743C121.926 161.047 126.904 155.037 131.521 148.745C133.578 145.957 135.045 143.769 135.841 142.542C136.335 141.803 136.581 141.399 136.581 141.399C136.581 141.399 155.781 145.748 166.438 156.58C167.809 157.974 169.263 161.32 170.867 166.255C179.85 193.69 192.509 268.62 197.61 300L197.514 299.986Z" fill="#EFF5FF"/>
<path d="M89.9937 214.837V299.986H19.5842C24.5214 260.827 38.1398 157.221 45.4769 148.439C54.5421 137.607 78.268 141.468 78.268 141.468C78.268 141.468 77.5685 143.49 76.636 146.752C74.4691 154.419 71.1502 168.973 73.2074 180.39C74.3815 186.099 76.3244 191.615 78.9811 196.784C82.1152 203.106 85.7863 209.137 89.9526 214.81L89.9937 214.837Z" fill="#EFF5FF"/>
<path d="M67.5432 50.4507C67.5432 50.4507 75.3604 45.1533 92.9833 51.7612C110.606 58.369 112.526 85.9015 112.526 85.9015C112.526 85.9015 119.562 79.4052 120.631 73.5502C121.701 67.6952 116.325 48.3039 109.962 43.8429C101.006 37.5558 88.389 36.6496 80.5307 38.8522C72.6724 41.0548 67.5432 50.4507 67.5432 50.4507Z" fill="#EFF5FF"/>
<path d="M144.618 205.009C144.618 205.009 116.174 257.621 91.7215 263.978C67.2688 270.335 85.4678 282.477 103.667 271.492C121.866 260.506 144.618 205.009 144.618 205.009Z" fill="#D0E3FF"/>
<path d="M149.857 231.176C149.857 231.176 134.922 258.485 124.252 269.331C113.582 280.177 129.477 281.585 136.033 273.513C142.588 265.441 149.857 231.19 149.857 231.19V231.176Z" fill="#D0E3FF"/>
<path d="M54.2953 179.568C54.2953 179.568 51.3604 194.819 48.9741 207.142C46.5878 219.466 47.0404 245.046 51.717 243.318C56.3936 241.589 54.2678 179.568 54.2678 179.568H54.2953Z" fill="#D0E3FF"/>
<rect x="9" y="215" width="195" height="70" fill="white"/>
<rect x="20" y="228" width="132" height="44" fill="#EBF3FF"/>
<path opacity="0.16" d="M192.828 250.414C192.828 257.27 187.27 262.828 180.414 262.828C173.558 262.828 168 257.27 168 250.414C168 243.558 173.558 238 180.414 238C187.27 238 192.828 243.558 192.828 250.414Z" fill="#4690FF"/>
<path d="M181.145 245.545C180.741 245.141 180.086 245.141 179.682 245.545C179.278 245.949 179.278 246.604 179.682 247.008L182.054 249.38H176.276C175.705 249.38 175.241 249.843 175.241 250.415C175.241 250.986 175.705 251.449 176.276 251.449H182.054L179.682 253.821C179.278 254.225 179.278 254.88 179.682 255.284C180.086 255.688 180.741 255.688 181.145 255.284L185.283 251.146C185.687 250.742 185.687 250.087 185.283 249.683L181.145 245.545Z" fill="#4690FF"/>
</svg>
