<svg width="136" height="34" viewBox="0 0 136 34" fill="none" xmlns="http://www.w3.org/2000/svg">
<path d="M80.5958 29.9029C80.4067 29.7024 80.1786 29.5428 79.9254 29.434C79.6723 29.3252 79.3995 29.2694 79.1239 29.27H71.7643L77.9758 22.2206C78.4433 21.6829 78.8783 21.1178 79.2785 20.5282C79.7116 19.8963 80.0767 19.2205 80.3677 18.5119C80.6615 17.8129 80.8141 17.0627 80.8166 16.3044C80.8495 14.8931 80.5415 13.4947 79.9187 12.2278C79.3145 11.1048 78.3965 10.1818 77.2767 9.57141C76.0989 8.91604 74.7678 8.58588 73.4202 8.61481C72.0586 8.58543 70.7132 8.91537 69.5197 9.57141C68.3653 10.2412 67.4101 11.2064 66.7525 12.3676C66.0661 13.5754 65.7154 14.9449 65.7368 16.3338C65.7311 16.6081 65.7825 16.8805 65.8876 17.1339C65.9928 17.3872 66.1494 17.6159 66.3477 17.8055C66.7401 18.192 67.2688 18.4086 67.8196 18.4086C68.3704 18.4086 68.8991 18.192 69.2915 17.8055C69.4799 17.6173 69.6289 17.3935 69.73 17.1472C69.8311 16.9009 69.8821 16.6369 69.8803 16.3706C69.871 15.6984 70.0331 15.0349 70.3513 14.4427C70.6497 13.8755 71.0912 13.3961 71.6319 13.052C72.1708 12.696 72.8038 12.509 73.4497 12.5148C74.0665 12.4961 74.6762 12.6517 75.2086 12.9637C75.6966 13.2723 76.0831 13.7175 76.3199 14.244C76.605 14.903 76.7431 15.6161 76.7247 16.3338C76.7066 16.8797 76.555 17.4128 76.2831 17.8865C75.9025 18.5715 75.4484 19.213 74.9289 19.7997L66.3183 29.8808C66.126 30.0734 65.9753 30.3034 65.8753 30.5565C65.7753 30.8096 65.7282 31.0805 65.7368 31.3525C65.7317 31.6247 65.7812 31.8951 65.8823 32.1479C65.9834 32.4007 66.1342 32.6306 66.3256 32.8242C66.516 33.0219 66.7447 33.1788 66.9978 33.2851C67.2509 33.3914 67.523 33.4448 67.7975 33.4423H79.0724C79.3461 33.4441 79.6174 33.391 79.8703 33.2861C80.1231 33.1812 80.3523 33.0266 80.5443 32.8315C80.741 32.6402 80.8974 32.4114 81.0042 32.1586C81.111 31.9058 81.166 31.6342 81.166 31.3598C81.166 31.0854 81.111 30.8138 81.0042 30.561C80.8974 30.3083 80.741 30.0795 80.5443 29.8881L80.5958 29.9029Z" fill="url(#paint0_linear)"/>
<path d="M85.9606 29.4393C85.7598 29.2339 85.5199 29.0708 85.2552 28.9593C84.9904 28.8479 84.706 28.7906 84.4188 28.7906C84.1315 28.7906 83.8472 28.8479 83.5824 28.9593C83.3176 29.0708 83.0778 29.2339 82.8769 29.4393C82.6676 29.6424 82.5021 29.8863 82.3907 30.1559C82.2793 30.4255 82.2244 30.715 82.2293 31.0066C82.2408 31.4337 82.3759 31.8482 82.6183 32.2C82.8607 32.5517 83.1999 32.8256 83.5949 32.9884C83.9899 33.1512 84.4237 33.1959 84.8436 33.1172C85.2635 33.0384 85.6515 32.8395 85.9606 32.5446C86.164 32.3439 86.3249 32.1043 86.4337 31.84C86.5424 31.5758 86.5968 31.2924 86.5935 31.0066C86.5986 30.7163 86.5452 30.4279 86.4365 30.1586C86.3278 29.8893 86.1659 29.6447 85.9606 29.4393Z" fill="#1B2949"/>
<path d="M38.7931 5.09012C39.1064 4.88034 39.3739 4.60922 39.5794 4.29316C39.7849 3.9771 39.9242 3.62266 39.9889 3.25126C40.0536 2.87985 40.0422 2.49919 39.9556 2.13229C39.869 1.76538 39.7089 1.41984 39.4849 1.11655C39.0415 0.537528 38.3929 0.150643 37.6726 0.0356422C36.9524 -0.0793588 36.2155 0.0862885 35.6138 0.498441L28.7988 5.06805L31.8383 6.53974C32.668 6.94763 33.5906 7.12974 34.5131 7.06773C35.4356 7.00572 36.3254 6.70179 37.0931 6.18654L38.7931 5.09012Z" fill="url(#paint1_linear)"/>
<path d="M25.6271 3.97164C26.008 3.9404 26.3913 3.988 26.7531 4.11145L21.2775 1.41825C20.8227 1.20199 20.32 1.10602 19.8175 1.13952C19.3149 1.17301 18.8294 1.33486 18.4073 1.60957L1.23744 13.1182C0.622596 13.53 0.196542 14.1691 0.0530027 14.895C-0.0905368 15.6209 0.0601965 16.374 0.472043 16.9888C0.88389 17.6035 1.52311 18.0295 2.24909 18.173C2.97507 18.3165 3.72833 18.1658 4.34318 17.754L20.2178 7.11371L24.2214 4.42051C24.6408 4.14676 25.1266 3.99166 25.6271 3.97164Z" fill="url(#paint2_linear)"/>
<path d="M31.8459 6.58389L28.8064 5.1122L26.7531 4.10409C26.3338 3.96722 25.8895 3.92461 25.4518 3.9793C25.0142 4.034 24.594 4.18465 24.2214 4.4205L20.2178 7.1137L26.0245 9.93935L28.0042 10.9107C28.4332 11.0452 28.8862 11.0853 29.3321 11.0282C29.778 10.971 30.2063 10.818 30.5874 10.5795L34.591 7.92313L37.1153 6.23068C36.3461 6.74864 35.4535 7.0541 34.5281 7.11613C33.6028 7.17816 32.6774 6.99454 31.8459 6.58389Z" fill="url(#paint3_linear)"/>
<path d="M14.4256 33.4276C12.9696 33.4443 11.5393 33.0433 10.3042 32.2723C9.06166 31.5077 8.04548 30.4256 7.36038 29.1376C6.63911 27.7581 6.27478 26.22 6.3006 24.6637C6.27782 23.0888 6.67675 21.5365 7.45605 20.1676C8.20498 18.8597 9.28662 17.7731 10.5912 17.0182C11.9332 16.245 13.4582 15.846 15.007 15.8629C16.5449 15.8269 18.0639 16.2081 19.4025 16.9661C20.7411 17.724 21.8493 18.8304 22.6094 20.1676C23.3887 21.5365 23.7876 23.0888 23.7649 24.6637H22.5284C22.554 26.22 22.1896 27.758 21.4687 29.1376C20.7975 30.419 19.7997 31.5003 18.5764 32.2723C17.3328 33.0488 15.8915 33.4499 14.4256 33.4276ZM15.0585 30.5799C16.0712 30.5971 17.0683 30.3294 17.9361 29.8072C18.7788 29.2922 19.4676 28.5603 19.9305 27.688C20.4271 26.7581 20.6803 25.7177 20.6665 24.6637C20.6824 23.6 20.4292 22.5496 19.9305 21.6099C19.4673 20.7378 18.7785 20.0059 17.9361 19.4907C17.0683 18.9685 16.0712 18.7007 15.0585 18.718C14.0509 18.7047 13.0596 18.9722 12.1956 19.4907C11.3446 20.0047 10.646 20.7362 10.1717 21.6099C9.66844 22.5478 9.415 23.5995 9.43578 24.6637C9.41708 25.7183 9.67055 26.7599 10.1717 27.688C10.6457 28.5619 11.3444 29.2935 12.1956 29.8072C13.0596 30.3257 14.0509 30.5932 15.0585 30.5799ZM22.1458 33.3319C21.9324 33.338 21.7201 33.3005 21.5218 33.2217C21.3235 33.1429 21.1434 33.0244 20.9925 32.8735C20.8416 32.7226 20.7231 32.5425 20.6443 32.3443C20.5654 32.146 20.5279 31.9337 20.534 31.7204V26.8786L21.1375 23.5525L23.7649 24.6931V31.7204C23.771 31.9337 23.7334 32.146 23.6546 32.3443C23.5758 32.5425 23.4573 32.7226 23.3064 32.8735C23.1555 33.0244 22.9753 33.1429 22.777 33.2217C22.5787 33.3005 22.3664 33.338 22.1531 33.3319H22.1458Z" fill="#1B2949"/>
<path d="M36.4235 33.4276C34.8746 33.4449 33.3496 33.0459 32.0077 32.2723C30.7031 31.5174 29.6215 30.4308 28.8726 29.1229C28.0933 27.7541 27.6943 26.2018 27.7171 24.6269C27.6913 23.0705 28.0556 21.5324 28.7769 20.1529C29.4419 18.8743 30.4318 17.7932 31.6471 17.0182C32.8887 16.2435 34.3271 15.8424 35.7906 15.8629C36.9595 15.8528 38.1157 16.1062 39.1733 16.6043C40.2308 17.1024 41.1625 17.8324 41.899 18.7401V10.2043C41.8894 9.98824 41.925 9.77257 42.0036 9.5711C42.0821 9.36962 42.2019 9.18678 42.3553 9.03428C42.58 8.79734 42.8717 8.6346 43.1914 8.56783C43.5111 8.50106 43.8435 8.53343 44.1443 8.66061C44.4451 8.78779 44.7 9.00373 44.8747 9.27957C45.0495 9.55541 45.136 9.87801 45.1225 10.2043V24.6269C45.1453 26.2018 44.7463 27.7541 43.967 29.1229C43.2117 30.4512 42.1128 31.5518 40.7855 32.3092C39.4582 33.0667 37.9515 33.4529 36.4235 33.4276ZM36.4235 30.5799C37.4361 30.5971 38.4333 30.3294 39.3011 29.8072C40.1464 29.289 40.8356 28.5516 41.2955 27.6733C41.7909 26.7376 42.0439 25.6928 42.0315 24.6342C42.0487 23.5751 41.7954 22.5291 41.2955 21.5952C40.8287 20.7295 40.1405 20.0033 39.3011 19.4907C38.4296 18.9833 37.4392 18.716 36.4308 18.716C35.4224 18.716 34.432 18.9833 33.5606 19.4907C32.7124 20.0017 32.0142 20.7277 31.5367 21.5952C31.0321 22.5273 30.7785 23.5746 30.8008 24.6342C30.7835 25.6934 31.0368 26.7394 31.5367 27.6733C32.0074 28.5534 32.7065 29.2906 33.5606 29.8072C34.4246 30.3257 35.4159 30.5932 36.4235 30.5799Z" fill="#1B2949"/>
<path d="M57.1186 33.4276C55.7128 33.4437 54.3152 33.2121 52.9898 32.7432C51.8941 32.3921 50.8891 31.8042 50.046 31.0213C49.8953 30.8724 49.781 30.6906 49.712 30.4902C49.6431 30.2898 49.6214 30.0762 49.6486 29.8661C49.6725 29.6562 49.7399 29.4537 49.8463 29.2713C49.9527 29.0889 50.0959 28.9306 50.2668 28.8064C50.4346 28.6528 50.6324 28.5356 50.8477 28.4622C51.063 28.3887 51.2912 28.3606 51.5179 28.3797C51.9259 28.4306 52.302 28.6265 52.5777 28.9315C53.0677 29.4219 53.6541 29.8052 54.2998 30.0574C55.1343 30.4143 56.0344 30.5923 56.9419 30.5798C57.9141 30.638 58.8837 30.4293 59.7459 29.9764C60.0321 29.8261 60.2742 29.6039 60.4484 29.3317C60.6226 29.0595 60.7229 28.7466 60.7395 28.4238C60.7412 28.0948 60.6589 27.7708 60.5005 27.4823C60.3421 27.1939 60.1128 26.9507 59.8342 26.7755C58.7933 26.1613 57.6349 25.7727 56.4341 25.6349C54.7525 25.406 53.1568 24.7526 51.7976 23.7365C51.3364 23.3628 50.9648 22.8905 50.7101 22.3545C50.4554 21.8184 50.324 21.2321 50.3257 20.6385C50.2922 19.6601 50.6315 18.7053 51.2751 17.9674C51.9386 17.2407 52.7773 16.6961 53.7111 16.3854C54.7067 16.0365 55.7545 15.8598 56.8095 15.8629C58.0675 15.842 59.3175 16.067 60.4892 16.5252C61.484 16.9098 62.3651 17.5402 63.0504 18.3574C63.1859 18.4979 63.2921 18.6639 63.3629 18.8458C63.4337 19.0278 63.4675 19.2219 63.4625 19.417C63.4499 19.6034 63.3949 19.7844 63.3018 19.9463C63.2087 20.1083 63.0799 20.2469 62.9253 20.3516C62.6032 20.5741 62.2086 20.6662 61.8213 20.6091C61.3842 20.539 60.9773 20.3419 60.6512 20.0425C60.1719 19.5651 59.587 19.2072 58.9437 18.9976C58.2555 18.7965 57.5411 18.6998 56.8242 18.7106C56.0144 18.6706 55.2063 18.8166 54.4617 19.1374C54.1775 19.2419 53.9323 19.4315 53.7598 19.6804C53.5873 19.9293 53.4957 20.2253 53.4976 20.5282C53.4931 20.894 53.5982 21.2528 53.7994 21.5584C54.1057 21.9425 54.5175 22.229 54.9843 22.3825C55.8267 22.7044 56.6961 22.9507 57.5822 23.1184C58.8843 23.3309 60.1501 23.7247 61.3429 24.2883C62.1324 24.6786 62.8051 25.27 63.2932 26.0029C63.6981 26.6673 63.9073 27.4325 63.8967 28.2104C63.9086 29.1438 63.6394 30.0591 63.124 30.8374C62.5545 31.6626 61.7637 32.3105 60.8425 32.7064C59.6672 33.211 58.3972 33.4569 57.1186 33.4276Z" fill="#1B2949"/>
<path d="M96.323 33.4276C94.7737 33.4489 93.2476 33.0496 91.9073 32.2723C90.6138 31.5153 89.5446 30.4285 88.8089 29.1229C88.0377 27.7501 87.6346 26.2013 87.6387 24.6269V10.2043C87.6291 9.98824 87.6647 9.77257 87.7433 9.5711C87.8219 9.36962 87.9417 9.18678 88.095 9.03428C88.3198 8.79734 88.6115 8.6346 88.9311 8.56783C89.2508 8.50106 89.5833 8.53343 89.8841 8.66061C90.1849 8.78779 90.4397 9.00373 90.6145 9.27957C90.7893 9.55541 90.8757 9.87801 90.8622 10.2043V18.7475C91.5947 17.8658 92.5051 17.1487 93.5338 16.6429C94.7303 16.0748 96.0492 15.8124 97.3722 15.8792C98.6951 15.946 99.9808 16.3399 101.114 17.0256C102.338 17.7976 103.335 18.8789 104.006 20.1603C104.728 21.5398 105.092 23.0778 105.066 24.6342C105.089 26.2091 104.69 27.7614 103.911 29.1303C103.152 30.4641 102.048 31.5683 100.713 32.3261C99.379 33.0838 97.8646 33.467 96.3304 33.435L96.323 33.4276ZM96.323 30.5799C97.3357 30.5971 98.3328 30.3294 99.2006 29.8072C100.048 29.2866 100.741 28.5501 101.21 27.6733C101.709 26.7392 101.963 25.6933 101.946 24.6342C101.968 23.5746 101.714 22.5274 101.21 21.5952C100.734 20.731 100.042 20.0056 99.2006 19.4907C98.3292 18.9833 97.3388 18.716 96.3304 18.716C95.322 18.716 94.3316 18.9833 93.4602 19.4907C92.6138 19.9993 91.9198 20.7262 91.451 21.5952C90.9505 22.5289 90.6971 23.575 90.715 24.6342C90.7023 25.6928 90.9553 26.7378 91.451 27.6733C91.9099 28.5676 92.6087 29.3166 93.4691 29.8365C94.3296 30.3563 95.3178 30.6264 96.323 30.6167V30.5799Z" fill="#1B2949"/>
<path d="M111.8 13.1771C111.387 13.1782 110.983 13.0565 110.639 12.8272C110.295 12.598 110.028 12.2718 109.87 11.8899C109.712 11.5081 109.671 11.088 109.753 10.683C109.835 10.278 110.035 9.90643 110.329 9.61559C110.519 9.41161 110.749 9.2481 111.005 9.13479C111.26 9.02149 111.535 8.9607 111.815 8.95604C112.094 8.95138 112.372 9.00296 112.631 9.10769C112.889 9.21243 113.125 9.36818 113.322 9.56568C113.52 9.76319 113.676 9.99841 113.78 10.2573C113.885 10.5163 113.937 10.7936 113.932 11.0729C113.927 11.3522 113.867 11.6277 113.753 11.883C113.64 12.1383 113.476 12.3682 113.272 12.559C113.082 12.7571 112.854 12.9142 112.6 13.0205C112.347 13.1268 112.075 13.1801 111.8 13.1771ZM111.8 33.3025C111.587 33.3086 111.375 33.2711 111.177 33.1923C110.978 33.1134 110.798 32.9949 110.647 32.8441C110.496 32.6932 110.378 32.5131 110.299 32.3148C110.22 32.1166 110.183 31.9043 110.189 31.691V17.6069C110.179 17.3908 110.215 17.1752 110.293 16.9737C110.372 16.7722 110.492 16.5894 110.645 16.4369C110.87 16.1999 111.161 16.0372 111.481 15.9704C111.801 15.9037 112.133 15.936 112.434 16.0632C112.735 16.1904 112.99 16.4063 113.164 16.6822C113.339 16.958 113.426 17.2806 113.412 17.6069V31.6836C113.419 31.8959 113.384 32.1074 113.308 32.3058C113.232 32.5041 113.117 32.6854 112.971 32.8389C112.819 32.9936 112.636 33.1147 112.435 33.1946C112.233 33.2744 112.017 33.3112 111.8 33.3025Z" fill="#1B2949"/>
<path d="M127.277 33.4276C125.729 33.4449 124.204 33.0459 122.862 32.2723C121.557 31.5174 120.475 30.4308 119.727 29.1229C118.947 27.7541 118.548 26.2018 118.571 24.6269C118.545 23.0705 118.91 21.5324 119.631 20.1529C120.302 18.8716 121.3 17.7902 122.523 17.0182C123.765 16.2435 125.203 15.8424 126.667 15.8629C127.836 15.8528 128.992 16.1062 130.049 16.6043C131.107 17.1024 132.039 17.8324 132.775 18.7401V10.2043C132.765 9.98824 132.801 9.77257 132.88 9.5711C132.958 9.36962 133.078 9.18678 133.231 9.03428C133.456 8.79734 133.748 8.6346 134.067 8.56783C134.387 8.50106 134.72 8.53343 135.02 8.66061C135.321 8.78779 135.576 9.00373 135.751 9.27957C135.926 9.55541 136.012 9.87801 135.999 10.2043V24.6269C136.021 26.2018 135.622 27.7541 134.843 29.1229C134.088 30.4512 132.989 31.5518 131.662 32.3092C130.334 33.0667 128.828 33.4529 127.3 33.4276H127.277ZM127.277 30.5799C128.29 30.5971 129.287 30.3294 130.155 29.8072C131 29.289 131.69 28.5516 132.15 27.6733C132.645 26.7376 132.898 25.6928 132.885 24.6342C132.903 23.5751 132.649 22.5291 132.15 21.5952C131.683 20.7295 130.994 20.0033 130.155 19.4907C129.284 18.9833 128.293 18.716 127.285 18.716C126.276 18.716 125.286 18.9833 124.415 19.4907C123.566 20.0017 122.868 20.7277 122.391 21.5952C121.886 22.5273 121.633 23.5746 121.655 24.6342C121.637 25.6934 121.891 26.7394 122.391 27.6733C122.861 28.5534 123.561 29.2906 124.415 29.8072C125.279 30.3257 126.27 30.5932 127.277 30.5799Z" fill="#1B2949"/>
<defs>
<linearGradient id="paint0_linear" x1="59.6182" y1="-12.6314" x2="92.5588" y2="7.09852" gradientUnits="userSpaceOnUse">
<stop stop-color="#4690FF"/>
<stop offset="1" stop-color="#9966E0"/>
</linearGradient>
<linearGradient id="paint1_linear" x1="20.4124" y1="19.6743" x2="41.8746" y2="-8.65233" gradientUnits="userSpaceOnUse">
<stop offset="0.3282" stop-color="#7E4D99"/>
<stop offset="0.3436" stop-color="#7B509E"/>
<stop offset="0.4712" stop-color="#6867C1"/>
<stop offset="0.6007" stop-color="#5979DC"/>
<stop offset="0.7312" stop-color="#4F86EF"/>
<stop offset="0.8635" stop-color="#488DFB"/>
<stop offset="1" stop-color="#4690FF"/>
</linearGradient>
<linearGradient id="paint2_linear" x1="-10.6068" y1="-13.4921" x2="13.0844" y2="22.2461" gradientUnits="userSpaceOnUse">
<stop stop-color="#4690FF"/>
<stop offset="1" stop-color="#9966E0"/>
</linearGradient>
<linearGradient id="paint3_linear" x1="22.8361" y1="-5.80615" x2="34.9407" y2="17.2468" gradientUnits="userSpaceOnUse">
<stop offset="0.3282" stop-color="#7E4D99"/>
<stop offset="0.3436" stop-color="#7B509E"/>
<stop offset="0.4712" stop-color="#6867C1"/>
<stop offset="0.6007" stop-color="#5979DC"/>
<stop offset="0.7312" stop-color="#4F86EF"/>
<stop offset="0.8635" stop-color="#488DFB"/>
<stop offset="1" stop-color="#4690FF"/>
</linearGradient>
</defs>
</svg>
