<svg width="776" height="437" viewBox="0 0 776 437" fill="none" xmlns="http://www.w3.org/2000/svg">
<g clip-path="url(#clip0)">
<path d="M154.608 153.837L123.441 135.866L141.435 104.74L172.602 122.711L154.608 153.837Z" fill="#9966E0"/>
<path d="M141.039 160.325L159.829 127.823L127.284 109.058L108.494 141.561L141.039 160.325ZM157.657 128.405L140.457 158.156L110.666 140.979L127.866 111.228L157.657 128.405Z" fill="#273B5B"/>
<path d="M170.195 247.663C161.854 247.663 155.092 240.91 155.092 232.58C155.092 224.249 161.854 217.496 170.195 217.496C178.536 217.496 185.298 224.249 185.298 232.58C185.298 240.91 178.536 247.663 170.195 247.663Z" fill="#F2F7FF"/>
<path d="M159.067 248.456C162.211 248.456 165.285 247.525 167.899 245.781C170.513 244.036 172.551 241.556 173.754 238.655C174.958 235.754 175.273 232.562 174.659 229.482C174.046 226.402 172.532 223.573 170.308 221.352C168.085 219.132 165.252 217.62 162.168 217.007C159.084 216.394 155.888 216.709 152.983 217.911C150.078 219.112 147.595 221.147 145.848 223.758C144.101 226.369 143.168 229.439 143.168 232.579C143.173 236.789 144.85 240.824 147.83 243.801C150.81 246.778 154.852 248.452 159.067 248.456ZM159.067 218.29C161.896 218.29 164.663 219.128 167.016 220.698C169.369 222.268 171.203 224.5 172.286 227.111C173.369 229.722 173.652 232.595 173.1 235.367C172.548 238.139 171.185 240.685 169.184 242.683C167.183 244.682 164.633 246.043 161.858 246.594C159.082 247.146 156.205 246.863 153.591 245.781C150.976 244.699 148.742 242.868 147.17 240.518C145.597 238.168 144.758 235.405 144.758 232.579C144.763 228.791 146.272 225.159 148.954 222.48C151.636 219.801 155.273 218.294 159.067 218.29Z" fill="#273B5B"/>
<path d="M469.167 402.229C337.902 402.229 231.49 397.04 231.49 390.639C231.49 384.238 337.902 379.048 469.167 379.048C600.432 379.048 706.844 384.238 706.844 390.639C706.844 397.04 600.432 402.229 469.167 402.229Z" fill="#596982"/>
<path d="M255.337 420.442C124.072 420.442 17.6605 415.252 17.6605 408.851C17.6605 402.45 124.072 397.261 255.337 397.261C386.602 397.261 493.014 402.45 493.014 408.851C493.014 415.252 386.602 420.442 255.337 420.442Z" fill="#596982"/>
<path d="M454.063 437C322.798 437 216.386 431.811 216.386 425.41C216.386 419.008 322.798 413.819 454.063 413.819C585.328 413.819 691.74 419.008 691.74 425.41C691.74 431.811 585.328 437 454.063 437Z" fill="#596982"/>
<path d="M68.558 259.634H227.539V408.087H68.558V259.634Z" fill="#4690FF"/>
<path d="M131.357 255.602H164.743V412.854H131.357V255.602Z" fill="#273B5B"/>
<path d="M639.449 409.639C640.386 409.659 641.291 409.982 642.029 410.56C644.228 404.666 647.632 400.879 651.456 400.879C655.28 400.879 658.683 404.666 660.882 410.56C661.62 409.982 662.525 409.659 663.462 409.639C667.806 409.639 671.328 417.091 671.328 426.283H631.583C631.583 417.091 635.105 409.639 639.449 409.639Z" fill="#596982"/>
<path d="M36.0573 245.8C36.9118 259.804 55.8535 270.046 55.8535 270.046C55.8535 270.046 73.4098 257.582 72.5552 243.578C71.7007 229.574 52.7591 219.332 52.7591 219.332C52.7591 219.332 35.2028 231.795 36.0573 245.8Z" fill="#273B5B"/>
<path d="M35.1985 289.494C49.2235 288.684 59.538 269.799 59.538 269.799C59.538 269.799 47.1133 252.227 33.0883 253.037C19.0632 253.846 8.74872 272.731 8.74872 272.731C8.74872 272.731 21.1734 290.303 35.1985 289.494Z" fill="#273B5B"/>
<path opacity="0.1" d="M68.558 275.845V327.669L120.171 259.634H80.8552L68.558 275.845Z" fill="black"/>
<path d="M-0.000133048 347.053L115.211 195.191L141.188 214.848L25.9768 366.709L-0.000133048 347.053Z" fill="#4690FF"/>
<path d="M47.1407 281.629L67.7827 254.421L95.0268 275.036L74.3848 302.244L47.1407 281.629Z" fill="#273B5B"/>
<path d="M217.246 185.453L182.484 194.755L173.169 160.038L207.932 150.736L217.246 185.453Z" fill="#F2F7FF"/>
<path d="M197.23 199.946L233.528 190.233L223.802 153.982L187.504 163.695L197.23 199.946ZM231.581 189.11L198.354 198.001L189.451 164.817L222.678 155.926L231.581 189.11Z" fill="#273B5B"/>
<path d="M698.601 197.25C709.788 179.65 705.523 156.811 693.629 149.165C681.735 141.52 659.333 147.216 648.146 164.816C637.792 181.107 641.212 202.218 650.661 210.98C650.479 211.009 650.305 211.073 650.147 211.168L647.38 212.912C647.169 213.045 646.995 213.23 646.875 213.449C646.755 213.669 646.693 213.915 646.695 214.166C646.696 214.416 646.762 214.662 646.884 214.88C647.007 215.098 647.183 215.281 647.395 215.411L653.337 219.052C653.549 219.182 653.791 219.256 654.04 219.265C654.289 219.275 654.536 219.221 654.758 219.107C654.98 218.994 655.17 218.825 655.309 218.618C655.448 218.41 655.531 218.17 655.552 217.921L655.825 214.648C655.832 214.533 655.826 214.419 655.806 214.306C667.684 219.319 688.224 213.576 698.601 197.25Z" fill="#4690FF"/>
<path d="M693.095 162.375C694.852 168.167 694.398 174.428 691.824 179.888C689.251 185.347 684.751 189.597 679.238 191.772C677.979 192.271 678.526 194.376 679.802 193.871C685.846 191.526 690.795 186.906 693.643 180.948C696.491 174.991 697.026 168.144 695.138 161.797C694.743 160.46 692.697 161.03 693.095 162.375Z" fill="white"/>
<path d="M456.359 173.694C468.594 173.694 478.512 163.776 478.512 151.541C478.512 139.306 468.594 129.388 456.359 129.388C444.124 129.388 434.205 139.306 434.205 151.541C434.205 163.776 444.124 173.694 456.359 173.694Z" fill="#2F2E41"/>
<path d="M493.703 364.676L485.768 368.641L467.119 339.05L478.83 333.196L493.703 364.676Z" fill="#A0616A"/>
<path d="M478.72 369.089L494.166 361.583L498.892 371.308L473.721 383.54C473.1 382.263 472.737 380.876 472.653 379.459C472.568 378.041 472.763 376.621 473.227 375.279C473.692 373.937 474.416 372.7 475.358 371.638C476.3 370.576 477.443 369.71 478.72 369.089Z" fill="#2F2E41"/>
<path d="M477.799 363.578C477.543 363.578 477.287 363.548 477.038 363.488C476.561 363.372 476.116 363.152 475.732 362.844C475.349 362.536 475.036 362.147 474.817 361.705L453.563 319.173C453.215 318.471 453.109 317.671 453.263 316.901C453.417 316.131 453.821 315.436 454.411 314.924L466.248 304.872C466.646 304.528 467.121 304.286 467.632 304.167C468.143 304.047 468.675 304.053 469.183 304.184C469.702 304.315 470.182 304.57 470.584 304.928C470.985 305.285 471.295 305.735 471.488 306.239L489.656 352.295C489.941 353.01 489.983 353.799 489.777 354.541C489.571 355.283 489.127 355.935 488.516 356.395L479.766 362.921C479.197 363.347 478.508 363.577 477.799 363.578Z" fill="#2F2E41"/>
<path d="M469.651 385.405L461.488 388.896L444.333 358.604L456.381 353.451L469.651 385.405Z" fill="#A0616A"/>
<path d="M454.895 388.776L470.72 382.107L474.919 392.071L449.13 402.939C448.578 401.631 448.29 400.227 448.281 398.807C448.273 397.387 448.544 395.979 449.079 394.664C449.614 393.349 450.403 392.152 451.401 391.142C452.399 390.131 453.586 389.328 454.895 388.776Z" fill="#2F2E41"/>
<path d="M456.888 385.099C456.31 385.099 455.742 384.946 455.242 384.655C454.742 384.364 454.329 383.946 454.044 383.443C451.052 378.155 442.95 363.458 432.365 341.229C419.803 314.848 447.627 285.608 453.332 280.015C453.589 279.762 453.788 279.458 453.918 279.122C454.048 278.786 454.104 278.427 454.084 278.067L452.848 255.878C452.802 255.072 453.057 254.278 453.564 253.649C454.071 253.02 454.794 252.601 455.593 252.474L488.446 247.157C489.014 247.067 489.596 247.127 490.134 247.33C490.672 247.533 491.147 247.873 491.513 248.315C497.063 255.036 499.448 262.266 498.6 269.805C496.87 285.196 482.334 296.817 480.682 298.092C480.615 298.143 480.551 298.199 480.489 298.257L450.75 326.543C450.378 326.894 450.122 327.35 450.014 327.849C449.907 328.348 449.954 328.868 450.149 329.34L468.547 374.388C468.825 375.066 468.867 375.817 468.664 376.521C468.462 377.225 468.028 377.841 467.432 378.268L458.81 384.479C458.25 384.882 457.578 385.099 456.888 385.099Z" fill="#2F2E41"/>
<path d="M427.685 231.925C426.951 231.926 426.238 231.682 425.66 231.233L399.202 210.621C398.955 210.707 398.704 210.78 398.449 210.84C396.911 211.199 395.301 211.097 393.821 210.548C392.341 209.999 391.059 209.027 390.137 207.756C389.214 206.485 388.693 204.971 388.638 203.405C388.584 201.84 388.999 200.294 389.831 198.963C390.662 197.631 391.874 196.574 393.312 195.926C394.75 195.277 396.349 195.065 397.908 195.317C399.468 195.57 400.916 196.275 402.071 197.343C403.226 198.412 404.036 199.796 404.397 201.32C404.477 201.664 404.533 202.013 404.564 202.365L427.182 218.655L435.829 209.867L444.333 220.905L429.581 231.327C429.027 231.717 428.365 231.926 427.685 231.925Z" fill="#A0616A"/>
<path d="M453.194 178.758C462.982 178.758 470.916 170.823 470.916 161.035C470.916 151.247 462.982 143.313 453.194 143.313C443.406 143.313 435.471 151.247 435.471 161.035C435.471 170.823 443.406 178.758 453.194 178.758Z" fill="#A0616A"/>
<path d="M461.645 267.37C460.2 267.381 458.765 267.121 457.413 266.602C455.397 265.808 453.712 264.338 452.637 262.435C447.149 252.728 435.319 222.645 446.336 200.308C453.755 185.267 461.962 181.691 467.54 181.34C472.69 181.017 473.688 182.173 475.408 186.87C476.363 189.475 478.218 193.198 480.368 197.51C488.082 212.99 499.741 236.382 489.986 248.016C479.453 260.577 469.408 267.369 461.645 267.37Z" fill="#9966E0"/>
<path d="M448.052 224.329C447.527 224.329 447.017 224.158 446.599 223.842L432.617 213.265C432.342 213.057 432.116 212.793 431.954 212.49C431.792 212.187 431.697 211.853 431.678 211.511C431.658 211.169 431.713 210.827 431.839 210.508C431.965 210.188 432.159 209.9 432.408 209.662L445.846 196.831C446.76 195.959 447.935 195.406 449.194 195.255C450.454 195.105 451.728 195.366 452.825 195.998C453.921 196.63 454.78 197.599 455.271 198.758C455.762 199.918 455.859 201.204 455.546 202.423L450.379 222.538C450.247 223.05 449.947 223.505 449.525 223.829C449.104 224.154 448.586 224.33 448.052 224.329Z" fill="#9966E0"/>
<path d="M459.974 253.446C458.232 253.438 456.539 252.879 455.147 251.852C453.755 250.826 452.739 249.386 452.249 247.747C451.932 246.678 451.849 245.555 452.005 244.451C452.162 243.348 452.554 242.29 453.157 241.346C453.76 240.401 454.559 239.593 455.503 238.972C456.447 238.352 457.514 237.934 458.634 237.746H458.635C458.99 237.689 459.348 237.655 459.708 237.646L483.532 208.807L475.576 200.406L487.324 192.683L497.005 207.892C497.38 208.487 497.55 209.184 497.489 209.88C497.428 210.577 497.139 211.235 496.666 211.758L467.768 243.448C467.84 243.697 467.899 243.95 467.945 244.205C468.136 245.303 468.089 246.428 467.806 247.507C467.522 248.586 467.01 249.594 466.302 250.465C465.593 251.336 464.705 252.051 463.695 252.562C462.686 253.073 461.577 253.37 460.442 253.432C460.286 253.441 460.129 253.446 459.974 253.446Z" fill="#A0616A"/>
<path d="M475.732 207.873C475.332 207.873 474.938 207.765 474.589 207.56C474.24 207.355 473.946 207.06 473.735 206.703L464.166 190.409C463.556 189.364 463.264 188.149 463.331 186.926C463.398 185.703 463.819 184.531 464.539 183.566C465.353 182.487 466.496 181.735 467.775 181.434C469.055 181.134 470.394 181.303 471.569 181.915L489.876 191.522C490.222 191.704 490.52 191.973 490.744 192.305C490.967 192.638 491.108 193.023 491.155 193.427C491.201 193.831 491.152 194.24 491.011 194.619C490.87 194.998 490.641 195.334 490.346 195.597L477.25 207.286C476.826 207.665 476.288 207.873 475.732 207.873Z" fill="#9966E0"/>
<path d="M438.885 179.868L451.928 172.569L450.974 171.162L438.694 178.033C438.371 177.294 437.765 176.684 436.988 176.317C436.211 175.951 435.313 175.851 434.462 176.037C433.61 176.223 432.86 176.682 432.351 177.329C431.842 177.977 431.607 178.77 431.69 179.562C431.773 180.354 432.167 181.093 432.801 181.642C433.435 182.191 434.266 182.514 435.142 182.551C436.017 182.588 436.877 182.338 437.565 181.845C438.253 181.352 438.721 180.65 438.885 179.868L438.885 179.868Z" fill="#3F3D56"/>
<path d="M465.853 134.451C465.853 134.451 457.558 142.635 439.55 145.219C421.543 147.803 435.692 176.226 435.692 176.226C435.692 176.226 430.547 165.89 440.837 156.846C451.127 147.803 465.853 146.079 465.853 134.451Z" fill="#2F2E41"/>
<path d="M457.465 128.122C457.465 128.122 462.354 146.277 469.686 148.87C477.019 151.464 473.352 178.696 461.132 181.289C461.132 181.289 471.519 166.377 465.409 154.706C459.298 143.035 455.632 133.957 457.465 128.122Z" fill="#2F2E41"/>
<path d="M579.839 322.886C581.219 327.564 580.863 332.621 578.841 337.031C576.818 341.44 573.283 344.872 568.952 346.63C567.962 347.032 568.392 348.733 569.394 348.325C574.143 346.431 578.032 342.699 580.27 337.887C582.508 333.076 582.928 327.545 581.444 322.419C581.134 321.339 579.527 321.799 579.839 322.886Z" fill="white"/>
<path d="M335.137 16.7151C322.887 0.123072 300.467 -3.88128 289.326 4.54487C278.185 12.971 275.626 35.8676 287.876 52.4596C299.215 67.8176 319.758 72.0061 331.073 66.2522C331.036 66.4318 331.034 66.6169 331.066 66.7974L331.704 69.9895C331.753 70.2328 331.862 70.4595 332.021 70.6481C332.181 70.8366 332.385 70.9808 332.615 71.0669C332.846 71.1529 333.094 71.178 333.336 71.1398C333.578 71.1016 333.807 71.0013 334 70.8484L339.402 66.577C339.596 66.4242 339.747 66.2238 339.842 65.9951C339.938 65.7663 339.974 65.5167 339.947 65.2699C339.92 65.0231 339.831 64.7874 339.689 64.5851C339.547 64.3828 339.356 64.2206 339.135 64.1139L336.229 62.7151C336.126 62.6687 336.019 62.6346 335.909 62.6135C344.631 53.2811 346.501 32.1064 335.137 16.7151Z" fill="#4690FF"/>
<path d="M308.392 10.0605C314.359 11.0572 319.734 14.4246 323.408 19.4678C327.082 24.511 328.775 30.8449 328.136 37.1622C328.005 38.6093 330.156 38.5998 330.286 37.1622C330.901 30.3532 329.045 23.5514 325.091 18.1209C321.136 12.6903 315.375 9.03261 308.964 7.8812C307.611 7.63937 307.029 9.81691 308.392 10.0605Z" fill="white"/>
<path d="M285.873 244.231C291.252 244.571 296.473 246.186 301.11 248.945C305.747 251.703 309.667 255.526 312.548 260.1C313.356 261.396 314.41 262.821 313.851 264.417C313.656 265.029 313.26 265.556 312.729 265.913C312.197 266.27 311.56 266.435 310.922 266.381C309.274 266.18 308.211 264.56 308.007 263.009C307.777 261.248 309.014 259.867 310.54 259.213C314.27 257.615 318.034 260.084 321.073 262.055C327.996 266.546 335.612 270.608 344.001 271.12C351.763 271.593 360.087 268.537 364.405 261.777C365.16 260.594 363.285 259.501 362.533 260.678C358.251 267.382 349.595 269.79 342.069 268.754C337.583 268.043 333.252 266.566 329.263 264.388C327.195 263.31 325.188 262.114 323.223 260.858C321.352 259.547 319.369 258.406 317.298 257.447C313.843 256.021 309.269 256.133 306.856 259.414C304.604 262.476 306.344 267.573 310.11 268.434C313.679 269.249 316.805 265.878 316.071 262.354C315.695 260.551 314.343 258.787 313.297 257.313C310.153 252.872 306.057 249.195 301.311 246.554C296.565 243.913 291.289 242.375 285.873 242.054C284.479 241.984 284.482 244.162 285.873 244.231H285.873Z" fill="url(#paint0_linear)"/>
<path d="M612.318 242.531C607.301 245.186 601.699 246.566 596.013 246.547C590.328 246.528 584.735 245.11 579.737 242.421C578.605 241.802 577.653 241.095 577.525 239.723C577.459 239.158 577.566 238.586 577.833 238.082C578.1 237.578 578.515 237.166 579.022 236.901C580.594 236.139 582.465 237.027 583.447 238.328C584.504 239.727 584.081 241.541 583.103 242.858C580.574 246.265 575.793 245.942 572.01 245.866C563.862 245.702 555.295 246.348 547.996 250.276C541.138 253.966 535.63 260.888 535.478 268.853C535.451 270.251 537.641 270.251 537.667 268.853C537.818 260.993 543.804 254.516 550.697 251.361C554.975 249.521 559.55 248.453 564.206 248.207C566.479 248.039 568.759 247.995 571.038 248.022C573.311 248.142 575.589 248.094 577.854 247.878C581.762 247.347 585.964 244.849 586.252 240.536C586.514 236.633 582.045 233.323 578.362 234.827C577.688 235.127 577.086 235.569 576.599 236.121C576.112 236.673 575.752 237.322 575.541 238.026C575.331 238.729 575.276 239.469 575.381 240.195C575.485 240.921 575.747 241.617 576.147 242.233C577.132 243.723 578.884 244.485 580.453 245.222C585.629 247.657 591.309 248.852 597.036 248.71C602.762 248.569 608.376 247.095 613.423 244.407C614.659 243.734 613.555 241.857 612.318 242.531V242.531Z" fill="#FF6584"/>
<path d="M514 101.175C523.752 104.551 530.582 114.499 531.161 124.742C531.456 129.94 530.23 135.95 526.377 139.691C525.524 140.6 524.46 141.28 523.28 141.671C522.1 142.061 520.843 142.149 519.621 141.926C517.493 141.461 515.272 140.001 514.909 137.681C514.557 135.441 516.079 133.589 517.924 132.568C518.971 131.997 520.122 131.644 521.308 131.53C522.494 131.417 523.691 131.546 524.827 131.909C527.836 132.85 530.384 134.87 532.813 136.819C535.184 138.797 537.705 140.586 540.354 142.169C550.802 148.224 563.187 149.932 574.868 146.929C586.55 143.925 596.603 136.448 602.884 126.092C603.647 124.849 604.346 123.57 604.982 122.256C605.594 121 603.725 119.893 603.11 121.155C600.353 126.883 596.405 131.947 591.533 136.005C586.66 140.062 580.977 143.018 574.87 144.671C568.763 146.324 562.373 146.637 556.136 145.587C549.898 144.537 543.957 142.149 538.717 138.586C533.671 135.183 528.832 129.337 522.269 129.296C517.436 129.265 511.623 132.941 512.861 138.474C513.424 140.991 515.539 142.805 517.856 143.676C519.102 144.141 520.433 144.325 521.758 144.216C523.082 144.106 524.366 143.706 525.52 143.043C530.638 140.151 532.873 133.731 533.298 128.153C534.132 117.191 527.974 105.821 518.299 100.682C517.101 100.05 515.856 99.5111 514.576 99.0713C513.254 98.6136 512.686 100.72 514 101.175V101.175Z" fill="#B8BFC9"/>
</g>
<defs>
<linearGradient id="paint0_linear" x1="284.829" y1="256.61" x2="364.581" y2="256.61" gradientUnits="userSpaceOnUse">
<stop stop-color="#4690FF"/>
<stop offset="1" stop-color="#9966E0"/>
</linearGradient>
<clipPath id="clip0">
<rect width="776" height="437" fill="white" transform="matrix(-1 0 0 1 776 0)"/>
</clipPath>
</defs>
</svg>
