<svg width="24" height="25" viewBox="0 0 24 25" fill="none" xmlns="http://www.w3.org/2000/svg">
<g opacity="0.64">
<path fill-rule="evenodd" clip-rule="evenodd" d="M10 5.85742C10 4.75285 10.8954 3.85742 12 3.85742C13.1046 3.85742 14 4.75285 14 5.85742C14 6.96199 13.1046 7.85742 12 7.85742C10.8954 7.85742 10 6.96199 10 5.85742Z" fill="#1F2040"/>
<path fill-rule="evenodd" clip-rule="evenodd" d="M10 12.8574C10 11.7529 10.8954 10.8574 12 10.8574C13.1046 10.8574 14 11.7529 14 12.8574C14 13.962 13.1046 14.8574 12 14.8574C10.8954 14.8574 10 13.962 10 12.8574Z" fill="#1F2040"/>
<path fill-rule="evenodd" clip-rule="evenodd" d="M10 19.8574C10 18.7529 10.8954 17.8574 12 17.8574C13.1046 17.8574 14 18.7529 14 19.8574C14 20.962 13.1046 21.8574 12 21.8574C10.8954 21.8574 10 20.962 10 19.8574Z" fill="#1F2040"/>
</g>
</svg>
