<svg width="409" height="40" viewBox="0 0 409 40" fill="none" xmlns="http://www.w3.org/2000/svg">
<rect x="243.5" y="0.5" width="70" height="39" rx="3.5" stroke="#A0A9B7"/>
<path d="M269.06 19.4C270.087 19.456 270.866 19.736 271.398 20.24C271.939 20.7347 272.21 21.3833 272.21 22.186C272.21 22.746 272.075 23.2453 271.804 23.684C271.533 24.1133 271.132 24.454 270.6 24.706C270.068 24.958 269.419 25.084 268.654 25.084C267.945 25.084 267.273 24.972 266.638 24.748C266.013 24.5147 265.509 24.2067 265.126 23.824L265.616 23.026C265.943 23.362 266.377 23.6373 266.918 23.852C267.459 24.0573 268.038 24.16 268.654 24.16C269.457 24.16 270.077 23.9873 270.516 23.642C270.955 23.2873 271.174 22.802 271.174 22.186C271.174 21.5793 270.955 21.1033 270.516 20.758C270.077 20.4127 269.415 20.24 268.528 20.24H267.828V19.498L270.544 16.096H265.532V15.2H271.832V15.914L269.06 19.4ZM280.254 24.104V25H273.38V24.286L277.454 20.296C277.967 19.792 278.313 19.358 278.49 18.994C278.677 18.6207 278.77 18.2473 278.77 17.874C278.77 17.2953 278.569 16.8473 278.168 16.53C277.776 16.2033 277.211 16.04 276.474 16.04C275.326 16.04 274.435 16.404 273.8 17.132L273.086 16.516C273.469 16.068 273.954 15.7227 274.542 15.48C275.139 15.2373 275.811 15.116 276.558 15.116C277.557 15.116 278.345 15.354 278.924 15.83C279.512 16.2967 279.806 16.9407 279.806 17.762C279.806 18.266 279.694 18.7513 279.47 19.218C279.246 19.6847 278.821 20.2213 278.196 20.828L274.864 24.104H280.254ZM285.37 25.084C284.614 25.084 283.938 24.8833 283.34 24.482C282.752 24.0807 282.29 23.5067 281.954 22.76C281.628 22.004 281.464 21.1173 281.464 20.1C281.464 19.0827 281.628 18.2007 281.954 17.454C282.29 16.698 282.752 16.1193 283.34 15.718C283.938 15.3167 284.614 15.116 285.37 15.116C286.126 15.116 286.798 15.3167 287.386 15.718C287.984 16.1193 288.45 16.698 288.786 17.454C289.122 18.2007 289.29 19.0827 289.29 20.1C289.29 21.1173 289.122 22.004 288.786 22.76C288.45 23.5067 287.984 24.0807 287.386 24.482C286.798 24.8833 286.126 25.084 285.37 25.084ZM285.37 24.16C285.94 24.16 286.439 24.0013 286.868 23.684C287.307 23.3667 287.648 22.9047 287.89 22.298C288.133 21.6913 288.254 20.9587 288.254 20.1C288.254 19.2413 288.133 18.5087 287.89 17.902C287.648 17.2953 287.307 16.8333 286.868 16.516C286.439 16.1987 285.94 16.04 285.37 16.04C284.801 16.04 284.297 16.1987 283.858 16.516C283.429 16.8333 283.093 17.2953 282.85 17.902C282.608 18.5087 282.486 19.2413 282.486 20.1C282.486 20.9587 282.608 21.6913 282.85 22.298C283.093 22.9047 283.429 23.3667 283.858 23.684C284.297 24.0013 284.801 24.16 285.37 24.16Z" fill="#12284C"/>
<path d="M363.788 19.134C364.432 19.134 365.001 19.2553 365.496 19.498C366 19.7407 366.392 20.086 366.672 20.534C366.952 20.9727 367.092 21.486 367.092 22.074C367.092 22.6713 366.947 23.1987 366.658 23.656C366.369 24.1133 365.967 24.468 365.454 24.72C364.95 24.9627 364.381 25.084 363.746 25.084C362.449 25.084 361.455 24.6593 360.764 23.81C360.073 22.9513 359.728 21.7427 359.728 20.184C359.728 19.092 359.915 18.168 360.288 17.412C360.661 16.656 361.184 16.0867 361.856 15.704C362.528 15.312 363.312 15.116 364.208 15.116C365.179 15.116 365.953 15.2933 366.532 15.648L366.126 16.46C365.659 16.152 365.025 15.998 364.222 15.998C363.139 15.998 362.29 16.3433 361.674 17.034C361.058 17.7153 360.75 18.7093 360.75 20.016C360.75 20.2493 360.764 20.5153 360.792 20.814C361.035 20.282 361.422 19.8713 361.954 19.582C362.486 19.2833 363.097 19.134 363.788 19.134ZM363.704 24.23C364.413 24.23 364.987 24.0387 365.426 23.656C365.874 23.264 366.098 22.746 366.098 22.102C366.098 21.458 365.874 20.9447 365.426 20.562C364.987 20.1793 364.39 19.988 363.634 19.988C363.139 19.988 362.701 20.0813 362.318 20.268C361.945 20.4547 361.651 20.7113 361.436 21.038C361.221 21.3647 361.114 21.7287 361.114 22.13C361.114 22.5033 361.212 22.8487 361.408 23.166C361.613 23.4833 361.912 23.74 362.304 23.936C362.696 24.132 363.163 24.23 363.704 24.23ZM376.589 22.424H374.629V25H373.621V22.424H368.091V21.696L373.285 15.2H374.405L369.393 21.528H373.649V19.26H374.629V21.528H376.589V22.424ZM381.421 25.084C380.665 25.084 379.988 24.8833 379.391 24.482C378.803 24.0807 378.341 23.5067 378.005 22.76C377.678 22.004 377.515 21.1173 377.515 20.1C377.515 19.0827 377.678 18.2007 378.005 17.454C378.341 16.698 378.803 16.1193 379.391 15.718C379.988 15.3167 380.665 15.116 381.421 15.116C382.177 15.116 382.849 15.3167 383.437 15.718C384.034 16.1193 384.501 16.698 384.837 17.454C385.173 18.2007 385.341 19.0827 385.341 20.1C385.341 21.1173 385.173 22.004 384.837 22.76C384.501 23.5067 384.034 24.0807 383.437 24.482C382.849 24.8833 382.177 25.084 381.421 25.084ZM381.421 24.16C381.99 24.16 382.49 24.0013 382.919 23.684C383.358 23.3667 383.698 22.9047 383.941 22.298C384.184 21.6913 384.305 20.9587 384.305 20.1C384.305 19.2413 384.184 18.5087 383.941 17.902C383.698 17.2953 383.358 16.8333 382.919 16.516C382.49 16.1987 381.99 16.04 381.421 16.04C380.852 16.04 380.348 16.1987 379.909 16.516C379.48 16.8333 379.144 17.2953 378.901 17.902C378.658 18.5087 378.537 19.2413 378.537 20.1C378.537 20.9587 378.658 21.6913 378.901 22.298C379.144 22.9047 379.48 23.3667 379.909 23.684C380.348 24.0013 380.852 24.16 381.421 24.16Z" fill="#12284C"/>
<rect x="338.5" y="0.5" width="70" height="39" rx="3.5" stroke="#A0A9B7"/>
<rect x="0.5" y="0.5" width="218" height="39" rx="3.5" fill="white" stroke="#A0A9B7"/>
<path d="M29.898 15.2V25H28.876V16.096H22.674V25H21.652V15.2H29.898ZM36.0047 25.07C35.2954 25.07 34.6561 24.9113 34.0867 24.594C33.5174 24.2673 33.0694 23.8193 32.7427 23.25C32.4161 22.6807 32.2527 22.0367 32.2527 21.318C32.2527 20.5993 32.4161 19.9553 32.7427 19.386C33.0694 18.8167 33.5174 18.3733 34.0867 18.056C34.6561 17.7387 35.2954 17.58 36.0047 17.58C36.7141 17.58 37.3534 17.7387 37.9227 18.056C38.4921 18.3733 38.9354 18.8167 39.2527 19.386C39.5794 19.9553 39.7427 20.5993 39.7427 21.318C39.7427 22.0367 39.5794 22.6807 39.2527 23.25C38.9354 23.8193 38.4921 24.2673 37.9227 24.594C37.3534 24.9113 36.7141 25.07 36.0047 25.07ZM36.0047 24.188C36.5274 24.188 36.9941 24.0713 37.4047 23.838C37.8247 23.5953 38.1514 23.2547 38.3847 22.816C38.6181 22.3773 38.7347 21.878 38.7347 21.318C38.7347 20.758 38.6181 20.2587 38.3847 19.82C38.1514 19.3813 37.8247 19.0453 37.4047 18.812C36.9941 18.5693 36.5274 18.448 36.0047 18.448C35.4821 18.448 35.0107 18.5693 34.5907 18.812C34.1801 19.0453 33.8534 19.3813 33.6107 19.82C33.3774 20.2587 33.2607 20.758 33.2607 21.318C33.2607 21.878 33.3774 22.3773 33.6107 22.816C33.8534 23.2547 34.1801 23.5953 34.5907 23.838C35.0107 24.0713 35.4821 24.188 36.0047 24.188ZM51.7892 17.636L48.1072 25.882C47.8085 26.5727 47.4632 27.0627 47.0712 27.352C46.6792 27.6413 46.2079 27.786 45.6572 27.786C45.3025 27.786 44.9712 27.73 44.6632 27.618C44.3552 27.506 44.0892 27.338 43.8652 27.114L44.3272 26.372C44.7005 26.7453 45.1485 26.932 45.6712 26.932C46.0072 26.932 46.2919 26.8387 46.5252 26.652C46.7679 26.4653 46.9919 26.148 47.1972 25.7L47.5192 24.986L44.2292 17.636H45.2652L48.0372 23.894L50.8092 17.636H51.7892ZM61.5698 17.636V25H60.6598V19.176L57.6778 24.104H57.2298L54.2478 19.162V25H53.3378V17.636H54.3458L57.4678 22.942L60.6458 17.636H61.5698ZM67.4364 25.07C66.727 25.07 66.0877 24.9113 65.5184 24.594C64.949 24.2673 64.501 23.8193 64.1744 23.25C63.8477 22.6807 63.6844 22.0367 63.6844 21.318C63.6844 20.5993 63.8477 19.9553 64.1744 19.386C64.501 18.8167 64.949 18.3733 65.5184 18.056C66.0877 17.7387 66.727 17.58 67.4364 17.58C68.1457 17.58 68.785 17.7387 69.3544 18.056C69.9237 18.3733 70.367 18.8167 70.6844 19.386C71.011 19.9553 71.1744 20.5993 71.1744 21.318C71.1744 22.0367 71.011 22.6807 70.6844 23.25C70.367 23.8193 69.9237 24.2673 69.3544 24.594C68.785 24.9113 68.1457 25.07 67.4364 25.07ZM67.4364 24.188C67.959 24.188 68.4257 24.0713 68.8364 23.838C69.2564 23.5953 69.583 23.2547 69.8164 22.816C70.0497 22.3773 70.1664 21.878 70.1664 21.318C70.1664 20.758 70.0497 20.2587 69.8164 19.82C69.583 19.3813 69.2564 19.0453 68.8364 18.812C68.4257 18.5693 67.959 18.448 67.4364 18.448C66.9137 18.448 66.4424 18.5693 66.0224 18.812C65.6117 19.0453 65.285 19.3813 65.0424 19.82C64.809 20.2587 64.6924 20.758 64.6924 21.318C64.6924 21.878 64.809 22.3773 65.0424 22.816C65.285 23.2547 65.6117 23.5953 66.0224 23.838C66.4424 24.0713 66.9137 24.188 67.4364 24.188ZM79.2778 17.636V25H78.2838V18.518H74.7558L74.6578 20.338C74.5831 21.8687 74.4058 23.0447 74.1258 23.866C73.8458 24.6873 73.3464 25.098 72.6278 25.098C72.4318 25.098 72.1938 25.0607 71.9138 24.986L71.9838 24.132C72.1518 24.1693 72.2684 24.188 72.3338 24.188C72.7164 24.188 73.0058 24.0107 73.2018 23.656C73.3978 23.3013 73.5284 22.8627 73.5938 22.34C73.6591 21.8173 73.7151 21.1267 73.7618 20.268L73.8878 17.636H79.2778ZM87.6615 17.636V25H86.6675V21.934C85.8181 22.3073 84.9828 22.494 84.1615 22.494C83.2748 22.494 82.5841 22.2933 82.0895 21.892C81.5948 21.4813 81.3475 20.87 81.3475 20.058V17.636H82.3415V20.002C82.3415 20.5527 82.5188 20.9727 82.8735 21.262C83.2281 21.542 83.7181 21.682 84.3435 21.682C85.0341 21.682 85.8088 21.5 86.6675 21.136V17.636H87.6615ZM93.0183 17.58C93.9796 17.58 94.717 17.8227 95.2303 18.308C95.7436 18.784 96.0003 19.4933 96.0003 20.436V25H95.0483V23.852C94.8243 24.2347 94.493 24.5333 94.0543 24.748C93.625 24.9627 93.1116 25.07 92.5143 25.07C91.693 25.07 91.0396 24.874 90.5543 24.482C90.069 24.09 89.8263 23.572 89.8263 22.928C89.8263 22.3027 90.0503 21.7987 90.4983 21.416C90.9556 21.0333 91.679 20.842 92.6683 20.842H95.0063V20.394C95.0063 19.7593 94.829 19.2787 94.4743 18.952C94.1196 18.616 93.6016 18.448 92.9203 18.448C92.4536 18.448 92.0056 18.5273 91.5763 18.686C91.147 18.8353 90.7783 19.0453 90.4703 19.316L90.0223 18.574C90.3956 18.2567 90.8436 18.014 91.3663 17.846C91.889 17.6687 92.4396 17.58 93.0183 17.58ZM92.6683 24.286C93.2283 24.286 93.709 24.16 94.1103 23.908C94.5116 23.6467 94.8103 23.2733 95.0063 22.788V21.584H92.6963C91.4363 21.584 90.8063 22.0227 90.8063 22.9C90.8063 23.3293 90.9696 23.67 91.2963 23.922C91.623 24.1647 92.0803 24.286 92.6683 24.286ZM98.6464 17.636H99.6404V20.898H104.274V17.636H105.268V25H104.274V21.752H99.6404V25H98.6464V17.636ZM108.094 17.636H109.088V23.488L114.002 17.636H114.884V25H113.89V19.148L108.99 25H108.094V17.636ZM124.06 17.58C124.751 17.58 125.372 17.7387 125.922 18.056C126.482 18.3733 126.921 18.8167 127.238 19.386C127.556 19.9553 127.714 20.5993 127.714 21.318C127.714 22.0367 127.556 22.6807 127.238 23.25C126.921 23.8193 126.482 24.2673 125.922 24.594C125.372 24.9113 124.751 25.07 124.06 25.07C123.407 25.07 122.814 24.93 122.282 24.65C121.75 24.3607 121.316 23.964 120.98 23.46C120.654 22.956 120.462 22.3773 120.406 21.724H118.726V25H117.732V17.636H118.726V20.814H120.42C120.495 20.1793 120.696 19.6193 121.022 19.134C121.358 18.6393 121.788 18.2567 122.31 17.986C122.833 17.7153 123.416 17.58 124.06 17.58ZM124.06 24.202C124.564 24.202 125.017 24.0807 125.418 23.838C125.829 23.5953 126.151 23.2547 126.384 22.816C126.618 22.3773 126.734 21.878 126.734 21.318C126.734 20.758 126.618 20.2587 126.384 19.82C126.151 19.3813 125.829 19.0453 125.418 18.812C125.017 18.5693 124.564 18.448 124.06 18.448C123.556 18.448 123.099 18.5693 122.688 18.812C122.287 19.0453 121.97 19.3813 121.736 19.82C121.503 20.2587 121.386 20.758 121.386 21.318C121.386 21.878 121.503 22.3773 121.736 22.816C121.97 23.2547 122.287 23.5953 122.688 23.838C123.099 24.0807 123.556 24.202 124.06 24.202Z" fill="#A0A9B7"/>
<path fill-rule="evenodd" clip-rule="evenodd" d="M197.58 16.3236C197.154 15.8973 196.464 15.8973 196.039 16.3236C195.613 16.7545 195.612 17.4505 196.039 17.8813L200.664 22.5413C201.089 22.9676 201.78 22.9676 202.206 22.5413L206.831 17.8813C207.257 17.4505 207.257 16.7545 206.831 16.3236C206.405 15.8973 205.715 15.8973 205.289 16.3236L201.435 20.2088L197.58 16.3236Z" fill="#A0A9B7"/>
<path fill-rule="evenodd" clip-rule="evenodd" d="M323.059 23.0342C322.791 22.7663 322.791 22.3324 323.059 22.0645L324.999 20.125L323.059 18.1855C322.791 17.9176 322.791 17.4837 323.059 17.2158C323.327 16.9479 323.761 16.9479 324.029 17.2158L325.969 19.1553L327.908 17.2158C328.176 16.9479 328.61 16.9479 328.878 17.2158C329.146 17.4837 329.146 17.9176 328.878 18.1855L326.938 20.125L328.878 22.0645C329.146 22.3321 329.146 22.7663 328.878 23.0342C328.61 23.3021 328.176 23.3019 327.908 23.0342L325.969 21.0947L324.029 23.0342C323.761 23.3021 323.327 23.3021 323.059 23.0342Z" fill="#B8BFC9"/>
</svg>

