<svg width="14" height="14" viewBox="0 0 14 14" fill="none" xmlns="http://www.w3.org/2000/svg">
<path opacity="0.64" d="M2.21053 0H11.7895C12.3757 0 12.938 0.245836 13.3526 0.683426C13.7671 1.12102 14 1.71452 14 2.33336V9.33344C14 9.95229 13.7671 10.5458 13.3526 10.9834C12.938 11.421 12.3757 11.6668 11.7895 11.6668H6.19979L4.942 13.7723C4.83895 13.881 4.70767 13.9551 4.56476 13.9851C4.42185 14.0151 4.27372 13.9997 4.1391 13.9408C4.00448 13.8819 3.88941 13.7823 3.80844 13.6544C3.72747 13.5265 3.68424 13.3762 3.68421 13.2224V11.6668H2.21053C1.62426 11.6668 1.062 11.421 0.647448 10.9834C0.232894 10.5458 0 9.95229 0 9.33344V2.33336C0 1.71452 0.232894 1.12102 0.647448 0.683426C1.062 0.245836 1.62426 0 2.21053 0ZM11.7895 0.777787H2.21053C1.81968 0.777787 1.44484 0.941677 1.16847 1.2334C0.892105 1.52513 0.736842 1.9208 0.736842 2.33336V9.33344C0.736842 9.74601 0.892105 10.1417 1.16847 10.4334C1.44484 10.7251 1.81968 10.889 2.21053 10.889H4.42105V13.2224L5.89474 10.889H11.7895C12.1803 10.889 12.5552 10.7251 12.8315 10.4334C13.1079 10.1417 13.2632 9.74601 13.2632 9.33344V2.33336C13.2632 1.9208 13.1079 1.52513 12.8315 1.2334C12.5552 0.941677 12.1803 0.777787 11.7895 0.777787Z" fill="black"/>
</svg>
