<svg width="16" height="14" viewBox="0 0 16 14" fill="none" xmlns="http://www.w3.org/2000/svg">
<path opacity="0.64" d="M7.63676 2.18344L7.99855 2.56269L8.36033 2.18344C9.06216 1.44772 10.2375 0.5 11.5411 0.5C12.7344 0.5 13.7177 0.91454 14.4016 1.59823C15.0855 2.28191 15.5 3.26484 15.5 4.45739C15.5 5.75803 14.9919 6.84136 14.1952 7.83578C13.389 8.84216 12.3122 9.72812 11.2022 10.6389C11.2022 10.6389 11.2021 10.6389 11.2021 10.639L11.1951 10.6447C10.1642 11.4903 9.05422 12.4007 8.19446 13.4183C8.15005 13.4707 8.08603 13.5 8.02036 13.5H7.97818C7.91234 13.5 7.84799 13.4708 7.8035 13.4185C6.95244 12.4094 5.85304 11.5063 4.83098 10.6667L4.79738 10.6391L4.79718 10.639C3.68687 9.72784 2.61018 8.84168 1.80417 7.83529C1.00777 6.84089 0.5 5.75772 0.5 4.45739C0.5 3.26484 0.914536 2.28193 1.59848 1.59825C2.28244 0.914565 3.26596 0.5 4.45964 0.5C5.76221 0.5 6.93454 1.44731 7.63676 2.18344Z" stroke="black"/>
</svg>
